<svg width="14" height="14" viewBox="0 0 14 14" fill="none" xmlns="http://www.w3.org/2000/svg">
<path d="M1.33594 4.5383V10.2141C1.33594 11.3225 2.12344 11.7775 3.0801 11.2291L4.45094 10.4475C4.74844 10.2783 5.24427 10.2608 5.55344 10.4183L8.61594 11.9525C8.9251 12.1041 9.42094 12.0925 9.71844 11.9233L12.2443 10.4766C12.5651 10.29 12.8334 9.83496 12.8334 9.46163V3.7858C12.8334 2.67747 12.0459 2.22247 11.0893 2.7708L9.71844 3.55247C9.42094 3.72163 8.9251 3.73913 8.61594 3.58163L5.55344 2.0533C5.24427 1.90163 4.74844 1.9133 4.45094 2.08247L1.9251 3.52913C1.59844 3.7158 1.33594 4.1708 1.33594 4.5383Z" stroke="white" stroke-linecap="round" stroke-linejoin="round"/>
<path d="M4.99341 2.33331V9.91665" stroke="white" stroke-linecap="round" stroke-linejoin="round"/>
<path d="M9.17578 3.86169V11.6667" stroke="white" stroke-linecap="round" stroke-linejoin="round"/>
</svg>
