<svg width="28" height="28" viewBox="0 0 28 28" fill="none" xmlns="http://www.w3.org/2000/svg">
<path d="M3.95431 25.2973L2.16211 23.5051" stroke="#43BEBB" stroke-opacity="0.5" stroke-width="0.644676" stroke-miterlimit="10" stroke-linejoin="round"/>
<path d="M23.9122 24.646L19.912 20.6461" stroke="#43BEBB" stroke-opacity="0.5" stroke-width="0.644676" stroke-miterlimit="10" stroke-linejoin="round"/>
<path d="M25.0486 10.4406L15.8871 19.6021C15.0484 20.4408 13.9041 20.9018 12.7182 20.8786L10.8016 20.8409C9.99219 20.8251 9.21116 21.1397 8.63869 21.7118L6.95898 20.0321C7.53113 19.4596 7.84574 18.6786 7.82994 17.8692L7.79223 15.9526C7.76902 14.7667 8.22996 13.6224 9.06869 12.7837L18.2302 3.62219L25.0486 10.4406Z" fill="#43BEBB"/>
<path d="M25.0477 9.6861L15.2728 19.461C14.378 20.3558 13.157 20.8477 11.8918 20.8229L9.84689 20.7826C8.98334 20.7658 8.1501 21.1014 7.53927 21.7119L5.74707 19.9197C6.35758 19.3089 6.69313 18.4756 6.67637 17.6121L6.63608 15.5672C6.61126 14.302 7.10315 13.081 7.99796 12.1862L17.7729 2.41125L25.0477 9.6861Z" stroke="#002D4F" stroke-width="0.644676" stroke-miterlimit="10" stroke-linejoin="round"/>
<path d="M5.7474 19.9196L7.5396 21.7118L3.16353 26.0882C2.66842 26.583 1.86612 26.583 1.37101 26.0882C1.12346 25.8407 1 25.5164 1 25.1921C1 24.8675 1.12346 24.5433 1.37101 24.2957L5.7474 19.9196ZM25.9661 8.7677L25.048 9.68604L17.7732 2.4112L18.6915 1.49318C19.3488 0.835608 20.4151 0.835608 21.0723 1.49318L25.9661 6.38691C26.6236 7.04448 26.6236 8.11046 25.9661 8.7677Z" stroke="#002D4F" stroke-width="0.644676" stroke-miterlimit="10" stroke-linejoin="round"/>
<path d="M17.0362 13.1649L14.2949 10.4236L9.39234 15.326L12.1336 18.0673L17.0362 13.1649Z" fill="white" stroke="#002D4F" stroke-width="0.644676" stroke-miterlimit="10" stroke-linejoin="round"/>
<path d="M18.5384 10.3377C19.3207 10.3377 19.9548 9.70359 19.9548 8.92136C19.9548 8.13913 19.3207 7.505 18.5384 7.505C17.7562 7.505 17.1221 8.13913 17.1221 8.92136C17.1221 9.70359 17.7562 10.3377 18.5384 10.3377Z" stroke="white" stroke-width="0.644676" stroke-miterlimit="10" stroke-linejoin="round"/>
<path d="M26.09 18.4701C27.1947 19.5747 27.1947 21.3653 26.0897 22.4699L21.7375 26.8225C20.6409 27.9191 18.8671 27.9271 17.7608 26.8457C17.7531 26.8383 17.7453 26.8305 17.7376 26.8228C17.1854 26.2706 16.9092 25.5467 16.9092 24.8224C16.9092 24.0987 17.1854 23.3747 17.7376 22.8226L22.0898 18.4704C23.1948 17.3654 24.9854 17.3654 26.09 18.4701Z" stroke="#002D4F" stroke-width="0.644676" stroke-miterlimit="10" stroke-linejoin="round"/>
</svg>
