<svg width="17" height="17" viewBox="0 0 17 17" fill="none" xmlns="http://www.w3.org/2000/svg">
    <path d="M15.5624 12.9838C15.5624 13.2388 15.5057 13.5009 15.3853 13.7559C15.2649 14.0109 15.1091 14.2517 14.9037 14.4784C14.5566 14.8609 14.1741 15.1372 13.742 15.3142C13.317 15.4913 12.8566 15.5834 12.3607 15.5834C11.6382 15.5834 10.8662 15.4134 10.0516 15.0663C9.23699 14.7192 8.42241 14.2517 7.61491 13.6638C6.80033 13.0688 6.02824 12.4101 5.29158 11.6805C4.56199 10.9438 3.90324 10.1717 3.31533 9.36425C2.73449 8.55675 2.26699 7.74925 1.92699 6.94883C1.58699 6.14133 1.41699 5.36925 1.41699 4.63258C1.41699 4.15091 1.50199 3.6905 1.67199 3.2655C1.84199 2.83341 2.11116 2.43675 2.48658 2.08258C2.93991 1.63633 3.43574 1.41675 3.95991 1.41675C4.15824 1.41675 4.35658 1.45925 4.53366 1.54425C4.71783 1.62925 4.88074 1.75675 5.00824 1.94091L6.65158 4.25717C6.77908 4.43425 6.87116 4.59716 6.93491 4.753C6.99866 4.90175 7.03408 5.0505 7.03408 5.18508C7.03408 5.35508 6.98449 5.52508 6.88533 5.688C6.79324 5.85091 6.65866 6.02091 6.48866 6.19091L5.95033 6.7505C5.87241 6.82841 5.83699 6.9205 5.83699 7.03383C5.83699 7.0905 5.84408 7.14008 5.85824 7.19675C5.87949 7.25341 5.90074 7.29591 5.91491 7.33841C6.04241 7.57216 6.26199 7.87675 6.57366 8.24508C6.89241 8.61342 7.23241 8.98883 7.60074 9.36425C7.98324 9.73967 8.35158 10.0867 8.72699 10.4055C9.09533 10.7172 9.39991 10.9297 9.64074 11.0572C9.67616 11.0713 9.71866 11.0926 9.76824 11.1138C9.82491 11.1351 9.88158 11.1422 9.94533 11.1422C10.0657 11.1422 10.1578 11.0997 10.2357 11.0217L10.7741 10.4905C10.9512 10.3134 11.1212 10.1788 11.2841 10.0938C11.447 9.99467 11.6099 9.94508 11.787 9.94508C11.9216 9.94508 12.0632 9.97342 12.2191 10.0372C12.3749 10.1009 12.5378 10.193 12.7149 10.3134L15.0595 11.978C15.2437 12.1055 15.3712 12.2542 15.4491 12.4313C15.5199 12.6084 15.5624 12.7855 15.5624 12.9838Z" stroke="white" stroke-width="1.5" stroke-miterlimit="10"/>
</svg>
