<svg width="42" height="43" viewBox="0 0 42 43" fill="none" xmlns="http://www.w3.org/2000/svg">
<path d="M31.359 16.1547L30.373 17.7423L25.6138 14.7795L26.5997 13.1919L31.359 16.1547Z" stroke="#43BEBB" stroke-opacity="0.5" stroke-width="0.8125" stroke-miterlimit="10" stroke-linejoin="round"/>
<path d="M16.3862 14.7795L11.627 17.7419L11.6266 17.7423L11.4243 17.4165L10.6406 16.1547L15.3986 13.1927L15.4002 13.1919L16.2578 14.5727L16.3862 14.7795Z" stroke="#43BEBB" stroke-opacity="0.5" stroke-width="0.8125" stroke-miterlimit="10" stroke-linejoin="round"/>
<path d="M33.2881 29.3191H35.5842" stroke="#43BEBB" stroke-opacity="0.5" stroke-width="0.8125" stroke-miterlimit="10" stroke-linejoin="round"/>
<path d="M31.8115 27.0489L33.4353 25.4255" stroke="#43BEBB" stroke-opacity="0.5" stroke-width="0.8125" stroke-miterlimit="10" stroke-linejoin="round"/>
<path d="M31.8115 31.5892L33.4353 33.213" stroke="#43BEBB" stroke-opacity="0.5" stroke-width="0.8125" stroke-miterlimit="10" stroke-linejoin="round"/>
<path d="M37.2312 12.8725L36.3634 13.6346C36.1278 13.8418 35.7926 13.8946 35.5046 13.7695L35.3051 13.683L34.4028 13.2922C34.1887 13.1995 33.9767 13.1033 33.7658 13.0041C32.2542 12.2912 30.8295 11.4063 29.5201 10.3672C29.3377 10.2221 29.1573 10.0747 28.9794 9.92394L28.2291 9.28816L28.0633 9.1476C27.8236 8.94447 27.7221 8.6211 27.8037 8.31803L28.1023 7.20247C28.2031 6.8271 28.6572 6.68044 28.9583 6.92622L30.5248 8.20347C31.971 9.38241 33.5627 10.3712 35.2608 11.1447L37.0999 11.9828C37.4534 12.1437 37.5232 12.6158 37.2312 12.8725ZM15.071 9.37266L14.9167 9.50347L14.2183 10.095C14.053 10.2351 13.8848 10.3728 13.715 10.5077C12.4962 11.475 11.1706 12.2985 9.76337 12.9619C9.56715 13.0541 9.36972 13.1439 9.17025 13.23L8.33053 13.5936L8.14487 13.6736C7.87675 13.7898 7.56475 13.7411 7.34537 13.5481L6.53775 12.8392C6.26597 12.6007 6.33097 12.1612 6.66044 12.0108L8.37237 11.2313C9.95309 10.5114 11.4347 9.59081 12.7806 8.49353L14.239 7.30444C14.5193 7.07572 14.9418 7.21222 15.0357 7.5616L15.3136 8.59997C15.3887 8.88272 15.2945 9.18375 15.071 9.37266Z" fill="#43BEBB"/>
<path d="M19.9013 27.5247L21.0002 29.3L20.3831 30.2969L19.5897 29.8041L18.7959 29.3109L19.9013 27.5247Z" stroke="#002D4F" stroke-width="0.8125" stroke-miterlimit="10" stroke-linejoin="round"/>
<path d="M35.1546 13.5973L30.6257 20.8716C30.126 21.6756 29.4126 22.3244 28.5648 22.7453L23.5013 25.2583L22.0989 27.5248L21 25.7495L21.9141 24.2724L21.9222 18.6198C21.9238 17.6732 22.1887 16.7462 22.688 15.9418L27.2172 8.66748L28.0586 9.38045C28.2585 9.54945 28.4608 9.7152 28.6651 9.8777L26.601 13.1927L25.7417 14.5727L24.2906 16.9034C23.9648 17.4283 23.7913 18.0336 23.7909 18.6515L23.7844 23.0317L27.708 21.0845C28.2613 20.8099 28.7273 20.3862 29.0531 19.8613L30.3726 17.7419L30.5753 17.4165L33.4276 12.8356C33.664 12.9469 33.9021 13.055 34.1422 13.159L35.1546 13.5973Z" stroke="#002D4F" stroke-width="0.8125" stroke-miterlimit="10" stroke-linejoin="round"/>
<path d="M17.1536 35.4966L15.5664 34.5106L14.1807 35.8179L16.5962 37.3182L17.1536 35.4966Z" stroke="#002D4F" stroke-width="0.8125" stroke-miterlimit="10" stroke-linejoin="round"/>
<path d="M19.5896 29.8038L16.3604 35.0038" stroke="#002D4F" stroke-width="0.8125" stroke-miterlimit="10" stroke-linejoin="round"/>
<path d="M23.2041 29.3111L22.4103 29.8039L21.6165 30.297L20.9998 29.3001L19.9009 27.5248L18.4981 25.2583L13.435 22.7453C12.5872 22.3244 11.8734 21.6756 11.3741 20.8716L6.84521 13.5973L7.85718 13.159C8.09728 13.055 8.33534 12.9469 8.57178 12.8356L11.4241 17.4165L11.6264 17.7423L11.6268 17.7419L12.9463 19.8613C13.2725 20.3862 13.7381 20.8099 14.2918 21.0845L18.2149 23.0317L18.2088 18.6515C18.208 18.0336 18.035 17.4283 17.7087 16.9034L16.2576 14.5727L15.4 13.1919L15.3984 13.1927L13.3342 9.8777C13.539 9.7152 13.7413 9.54945 13.9408 9.38045L14.7825 8.66748L19.3114 15.9418C19.8111 16.7462 20.076 17.6732 20.0776 18.6198L20.0857 24.2724L20.9998 25.7495L22.0987 27.5248L23.2041 29.3111Z" stroke="#002D4F" stroke-width="0.8125" stroke-miterlimit="10" stroke-linejoin="round"/>
<path d="M11.4243 17.4165L11.627 17.7419L11.6266 17.7423L11.4243 17.4165Z" stroke="#002D4F" stroke-width="0.8125" stroke-miterlimit="10" stroke-linejoin="round"/>
<path d="M16.2577 14.5727L15.3984 13.1927L15.4001 13.1919L16.2577 14.5727Z" stroke="#002D4F" stroke-width="0.8125" stroke-miterlimit="10" stroke-linejoin="round"/>
<path d="M24.8462 35.4966L26.4338 34.5106L27.8195 35.8179L25.404 37.3182L24.8462 35.4966Z" stroke="#002D4F" stroke-width="0.8125" stroke-miterlimit="10" stroke-linejoin="round"/>
<path d="M22.4106 29.8038L25.6399 35.0038" stroke="#002D4F" stroke-width="0.8125" stroke-miterlimit="10" stroke-linejoin="round"/>
<path d="M6.35153 26.087L4.88623 27.5524L6.65292 29.319L8.11822 27.8536L6.35153 26.087Z" stroke="#43BEBB" stroke-opacity="0.5" stroke-width="0.8125" stroke-miterlimit="10" stroke-linejoin="round"/>
<path d="M9.58395 29.319L8.11865 30.7844L9.88535 32.551L11.3506 31.0856L9.58395 29.319Z" stroke="#43BEBB" stroke-opacity="0.5" stroke-width="0.8125" stroke-miterlimit="10" stroke-linejoin="round"/>
<path d="M11.3505 27.5524L9.5837 29.3192L6.35157 32.5513L4.88623 31.0859L9.88514 26.087L11.3505 27.5524Z" stroke="#43BEBB" stroke-opacity="0.5" stroke-width="0.8125" stroke-miterlimit="10" stroke-linejoin="round"/>
<path d="M37.3156 12.6877L36.3422 13.5429C36.0777 13.7757 35.7019 13.8346 35.3786 13.6944L35.1547 13.5973L34.1423 13.159C33.9022 13.055 33.6642 12.9473 33.4277 12.8356C31.7317 12.0357 30.1339 11.0432 28.6653 9.87771C28.4605 9.71521 28.2586 9.54946 28.0587 9.38046L27.217 8.66749L27.0309 8.50986C26.762 8.28196 26.6482 7.91918 26.7397 7.57914L27.0744 6.32749C27.1873 5.90621 27.6968 5.74168 28.0344 6.01752L29.7914 7.45036C31.4136 8.77311 33.1994 9.88218 35.1039 10.7499L37.1673 11.69C37.5646 11.8704 37.643 12.4001 37.3156 12.6877ZM14.969 8.50986L14.7829 8.66749L13.9412 9.38046C13.7417 9.54946 13.5394 9.71521 13.3346 9.87771C11.866 11.0432 10.2682 12.0357 8.57215 12.8356C8.33571 12.9469 8.09765 13.055 7.85756 13.159L6.84559 13.5973L6.62175 13.694C6.29837 13.8342 5.92259 13.7753 5.65812 13.5429L4.68475 12.6877C4.35731 12.4001 4.43571 11.8704 4.83262 11.6896L6.89556 10.7499C8.80046 9.88218 10.5859 8.77311 12.2081 7.45036L13.9655 6.01752C14.3031 5.74168 14.8126 5.90661 14.9255 6.32749L15.2602 7.57914C15.3517 7.91918 15.2379 8.28196 14.969 8.50986Z" stroke="#002D4F" stroke-width="0.8125" stroke-miterlimit="10" stroke-linejoin="round"/>
</svg>
