<svg width="54" height="47" viewBox="0 0 54 47" fill="none" xmlns="http://www.w3.org/2000/svg">
<path d="M8.23242 34.1937C8.23242 34.5695 8.34383 34.9367 8.55257 35.2491C8.76131 35.5615 9.05799 35.805 9.40511 35.9488C9.75222 36.0926 10.1342 36.1302 10.5027 36.0569C10.8712 35.9836 11.2097 35.8027 11.4753 35.537C11.741 35.2713 11.9219 34.9328 11.9952 34.5643C12.0685 34.1958 12.0309 33.8139 11.8871 33.4668C11.7433 33.1197 11.4999 32.823 11.1875 32.6142C10.8751 32.4055 10.5078 32.2941 10.1321 32.2941C9.62826 32.2941 9.14509 32.4943 8.78884 32.8505C8.4326 33.2068 8.23245 33.6899 8.23242 34.1937ZM11.3985 34.1937C11.3985 34.4442 11.3242 34.6891 11.1851 34.8973C11.0459 35.1056 10.8481 35.2679 10.6167 35.3638C10.3853 35.4596 10.1307 35.4847 9.885 35.4358C9.63934 35.387 9.41368 35.2664 9.23657 35.0892C9.05945 34.9121 8.93884 34.6865 8.88997 34.4408C8.84111 34.1951 8.86619 33.9405 8.96204 33.7091C9.05789 33.4777 9.22021 33.2799 9.42848 33.1407C9.63674 33.0016 9.88159 32.9273 10.1321 32.9273C10.4678 32.9277 10.7898 33.0612 11.0272 33.2986C11.2646 33.5361 11.3981 33.858 11.3985 34.1937ZM13.2981 34.1937C13.2981 34.5695 13.4096 34.9367 13.6183 35.2491C13.827 35.5615 14.1237 35.805 14.4708 35.9488C14.8179 36.0926 15.1999 36.1302 15.5684 36.0569C15.9369 35.9836 16.2754 35.8027 16.541 35.537C16.8067 35.2713 16.9876 34.9328 17.0609 34.5643C17.1342 34.1958 17.0966 33.8139 16.9528 33.4668C16.8091 33.1197 16.5656 32.823 16.2532 32.6142C15.9408 32.4055 15.5735 32.2941 15.1978 32.2941C14.694 32.2941 14.2108 32.4943 13.8546 32.8505C13.4983 33.2068 13.2982 33.6899 13.2981 34.1937ZM16.4642 34.1937C16.4642 34.4442 16.3899 34.6891 16.2508 34.8973C16.1116 35.1056 15.9138 35.2679 15.6824 35.3638C15.451 35.4596 15.1964 35.4847 14.9507 35.4358C14.7051 35.387 14.4794 35.2664 14.3023 35.0892C14.1252 34.9121 14.0046 34.6865 13.9557 34.4408C13.9068 34.1951 13.9319 33.9405 14.0278 33.7091C14.1236 33.4777 14.2859 33.2799 14.4942 33.1407C14.7025 33.0016 14.9473 32.9273 15.1978 32.9273C15.5336 32.9277 15.8555 33.0612 16.0929 33.2986C16.3303 33.5361 16.4639 33.858 16.4642 34.1937ZM24.7377 36.991C25.2502 37.87 25.9229 38.3096 26.5955 38.3096C27.2682 38.3096 27.9408 37.87 28.4533 36.991L35.0222 25.867C36.0464 24.1087 35.2153 22.7959 33.1619 22.7959H31.0282V13.1749C31.0282 11.1444 29.4405 9.81494 27.4824 9.81494H25.3925C23.4344 9.81494 21.8466 11.1444 21.8466 13.1749V22.7959H20.029C17.9757 22.7959 17.1444 24.1087 18.1696 25.867L24.7377 36.991ZM19.0223 24.3378C19.0858 24.2271 19.4065 24.0623 20.029 24.0623H23.113V13.1749C23.113 11.7365 24.2945 11.0814 25.3925 11.0814H27.4824C28.5802 11.0814 29.7617 11.7365 29.7617 13.1749V24.0623H33.1619C33.7844 24.0623 34.1052 24.2271 34.1689 24.3381C34.2244 24.4346 34.2062 24.7518 33.9318 25.223L27.3592 36.3531C27.0622 36.8626 26.7622 37.0432 26.5955 37.0432C26.4289 37.0432 26.1288 36.8626 25.8283 36.3469L19.2636 25.2291C18.9852 24.7515 18.9668 24.4346 19.0223 24.3378Z" fill="#2D4356"/>
<path d="M0.633215 42.1088C0.982931 42.1088 1.26643 41.8253 1.26643 41.4756C1.26643 41.1259 0.982931 40.8424 0.633215 40.8424C0.2835 40.8424 0 41.1259 0 41.4756C0 41.8253 0.2835 42.1088 0.633215 42.1088Z" fill="#2D4356"/>
<path d="M3.48245 40.8424H2.53263C2.36469 40.8424 2.20363 40.9091 2.08488 41.0279C1.96613 41.1466 1.89941 41.3077 1.89941 41.4756C1.89941 41.6436 1.96613 41.8046 2.08488 41.9234C2.20363 42.0421 2.36469 42.1088 2.53263 42.1088H3.48245C3.65039 42.1088 3.81145 42.0421 3.9302 41.9234C4.04895 41.8046 4.11567 41.6436 4.11567 41.4756C4.11567 41.3077 4.04895 41.1466 3.9302 41.0279C3.81145 40.9091 3.65039 40.8424 3.48245 40.8424ZM50.657 40.8424H49.7072C49.5392 40.8424 49.3782 40.9091 49.2594 41.0279C49.1407 41.1466 49.074 41.3077 49.074 41.4756C49.074 41.6436 49.1407 41.8046 49.2594 41.9234C49.3782 42.0421 49.5392 42.1088 49.7072 42.1088H50.657C50.8249 42.1088 50.986 42.0421 51.1048 41.9234C51.2235 41.8046 51.2902 41.6436 51.2902 41.4756C51.2902 41.3077 51.2235 41.1466 51.1048 41.0279C50.986 40.9091 50.8249 40.8424 50.657 40.8424Z" fill="#2D4356"/>
<path d="M52.557 42.1088C52.9068 42.1088 53.1903 41.8253 53.1903 41.4756C53.1903 41.1259 52.9068 40.8424 52.557 40.8424C52.2073 40.8424 51.9238 41.1259 51.9238 41.4756C51.9238 41.8253 52.2073 42.1088 52.557 42.1088Z" fill="#2D4356"/>
<path d="M47.7195 40.8424H45.992C46.2634 40.6057 46.481 40.3138 46.6303 39.9862C46.7797 39.6586 46.8573 39.3028 46.8579 38.9428V29.4445C46.8559 28.7734 46.5885 28.1303 46.1139 27.6557C45.6393 27.1811 44.9962 26.9136 44.325 26.9117H35.8755L35.5016 27.5449H44.325C44.8287 27.5454 45.3115 27.7457 45.6677 28.1019C46.0238 28.458 46.2241 28.9409 46.2247 29.4445V38.9428C46.2241 39.4464 46.0238 39.9293 45.6677 40.2854C45.3115 40.6415 44.8287 40.8419 44.325 40.8424H8.86496C8.36131 40.8419 7.87844 40.6415 7.52231 40.2854C7.16618 39.9293 6.96586 39.4464 6.96531 38.9428V29.4445C6.96586 28.9409 7.16618 28.458 7.52231 28.1019C7.87844 27.7457 8.36131 27.5454 8.86496 27.5449H17.6889L17.3151 26.9117H8.86496C8.1938 26.9136 7.55069 27.1811 7.0761 27.6557C6.60152 28.1303 6.33404 28.7734 6.33209 29.4445V38.9428C6.33272 39.3028 6.4103 39.6586 6.55963 39.9862C6.70897 40.3138 6.9266 40.6057 7.19795 40.8424H5.47051C5.38042 40.8306 5.28886 40.8382 5.20195 40.8647C5.11503 40.8911 5.03475 40.9358 4.96648 40.9957C4.8982 41.0556 4.8435 41.1294 4.80603 41.2122C4.76856 41.295 4.74917 41.3848 4.74917 41.4756C4.74917 41.5665 4.76856 41.6563 4.80603 41.739C4.8435 41.8218 4.8982 41.8956 4.96648 41.9555C5.03475 42.0155 5.11503 42.0601 5.20195 42.0866C5.28886 42.113 5.38042 42.1206 5.47051 42.1088H47.7195C47.8096 42.1206 47.9011 42.113 47.988 42.0866C48.0749 42.0601 48.1552 42.0155 48.2235 41.9555C48.2918 41.8956 48.3465 41.8218 48.3839 41.739C48.4214 41.6563 48.4408 41.5665 48.4408 41.4756C48.4408 41.3848 48.4214 41.295 48.3839 41.2122C48.3465 41.1294 48.2918 41.0556 48.2235 40.9957C48.1552 40.9358 48.0749 40.8911 47.988 40.8647C47.9011 40.8382 47.8096 40.8306 47.7195 40.8424ZM50.6572 1.89965C50.6572 1.71179 50.6015 1.52815 50.4971 1.37195C50.3927 1.21576 50.2444 1.09401 50.0708 1.02212C49.8973 0.950235 49.7063 0.931425 49.5221 0.968074C49.3378 1.00472 49.1686 1.09519 49.0357 1.22802C48.9029 1.36086 48.8124 1.5301 48.7758 1.71435C48.7391 1.89859 48.7579 2.08957 48.8298 2.26313C48.9017 2.43669 49.0235 2.58503 49.1797 2.6894C49.3359 2.79376 49.5195 2.84947 49.7074 2.84947C49.9592 2.84918 50.2006 2.74902 50.3787 2.57095C50.5567 2.39289 50.6569 2.15147 50.6572 1.89965ZM49.2324 1.89965C49.2324 1.80572 49.2603 1.7139 49.3125 1.6358C49.3647 1.5577 49.4388 1.49683 49.5256 1.46089C49.6124 1.42494 49.7079 1.41554 49.8 1.43386C49.8921 1.45219 49.9767 1.49742 50.0432 1.56383C50.1096 1.63025 50.1548 1.71487 50.1731 1.807C50.1915 1.89912 50.1821 1.99461 50.1461 2.08139C50.1102 2.16817 50.0493 2.24234 49.9712 2.29452C49.8931 2.34671 49.8013 2.37456 49.7074 2.37456C49.5814 2.37443 49.4607 2.32436 49.3717 2.23532C49.2826 2.14629 49.2326 2.02556 49.2324 1.89965ZM22.7957 1.89965C22.9836 1.89965 23.1672 1.84394 23.3234 1.73957C23.4796 1.6352 23.6013 1.48686 23.6732 1.31331C23.7451 1.13975 23.7639 0.94877 23.7273 0.764522C23.6906 0.580275 23.6002 0.411032 23.4673 0.278197C23.3345 0.145362 23.1652 0.0549002 22.981 0.018251C22.7968 -0.0183981 22.6058 0.000411545 22.4322 0.0723014C22.2587 0.144191 22.1103 0.265933 22.0059 0.42213C21.9016 0.578328 21.8459 0.761966 21.8459 0.949824C21.8462 1.20164 21.9463 1.44307 22.1244 1.62113C22.3025 1.7992 22.5439 1.89936 22.7957 1.89965ZM22.7957 0.474912C22.8896 0.474912 22.9814 0.502765 23.0595 0.554949C23.1376 0.607133 23.1985 0.681304 23.2345 0.768083C23.2704 0.854862 23.2798 0.950351 23.2615 1.04247C23.2432 1.1346 23.1979 1.21922 23.1315 1.28564C23.0651 1.35205 22.9805 1.39729 22.8883 1.41561C22.7962 1.43393 22.7007 1.42453 22.614 1.38858C22.5272 1.35264 22.453 1.29177 22.4008 1.21367C22.3486 1.13557 22.3208 1.04375 22.3208 0.949824C22.3209 0.823907 22.371 0.703184 22.46 0.614147C22.5491 0.525111 22.6698 0.475036 22.7957 0.474912ZM14.8805 21.2127C15.0057 21.2127 15.1282 21.1756 15.2323 21.106C15.3364 21.0364 15.4176 20.9375 15.4655 20.8218C15.5134 20.7061 15.526 20.5788 15.5016 20.456C15.4771 20.3331 15.4168 20.2203 15.3283 20.1318C15.2397 20.0432 15.1269 19.9829 15.004 19.9585C14.8812 19.934 14.7539 19.9466 14.6382 19.9945C14.5225 20.0424 14.4236 20.1236 14.354 20.2277C14.2844 20.3318 14.2473 20.4543 14.2473 20.5795C14.2475 20.7474 14.3143 20.9083 14.433 21.027C14.5517 21.1458 14.7126 21.2125 14.8805 21.2127ZM14.8805 20.2629C14.9431 20.2629 15.0043 20.2815 15.0564 20.3163C15.1085 20.351 15.149 20.4005 15.173 20.4583C15.197 20.5162 15.2032 20.5799 15.191 20.6413C15.1788 20.7027 15.1487 20.7591 15.1044 20.8034C15.0601 20.8477 15.0037 20.8778 14.9423 20.89C14.8809 20.9022 14.8172 20.896 14.7593 20.872C14.7015 20.848 14.652 20.8075 14.6173 20.7554C14.5825 20.7033 14.5639 20.6421 14.5639 20.5795C14.564 20.4956 14.5974 20.4151 14.6567 20.3557C14.7161 20.2964 14.7966 20.263 14.8805 20.2629ZM40.2091 15.8304C40.3344 15.8304 40.4568 15.7933 40.5609 15.7237C40.6651 15.6541 40.7462 15.5552 40.7941 15.4395C40.8421 15.3238 40.8546 15.1965 40.8302 15.0736C40.8057 14.9508 40.7454 14.838 40.6569 14.7494C40.5683 14.6609 40.4555 14.6006 40.3327 14.5761C40.2098 14.5517 40.0825 14.5642 39.9668 14.6122C39.8511 14.6601 39.7522 14.7412 39.6826 14.8454C39.613 14.9495 39.5759 15.0719 39.5759 15.1972C39.5761 15.3651 39.6429 15.526 39.7616 15.6447C39.8803 15.7634 40.0412 15.8302 40.2091 15.8304ZM40.2091 14.8806C40.2717 14.8806 40.333 14.8991 40.385 14.9339C40.4371 14.9687 40.4777 15.0182 40.5016 15.076C40.5256 15.1339 40.5319 15.1975 40.5196 15.2589C40.5074 15.3204 40.4773 15.3768 40.433 15.421C40.3887 15.4653 40.3323 15.4955 40.2709 15.5077C40.2095 15.5199 40.1458 15.5136 40.088 15.4897C40.0301 15.4657 39.9807 15.4251 39.9459 15.3731C39.9111 15.321 39.8925 15.2598 39.8925 15.1972C39.8926 15.1132 39.926 15.0327 39.9853 14.9734C40.0447 14.914 40.1252 14.8806 40.2091 14.8806ZM3.79923 2.84947C3.67399 2.84947 3.55157 2.88661 3.44744 2.95619C3.3433 3.02576 3.26214 3.12466 3.21422 3.24036C3.16629 3.35607 3.15375 3.48339 3.17818 3.60622C3.20262 3.72905 3.26292 3.84188 3.35148 3.93044C3.44004 4.01899 3.55287 4.0793 3.6757 4.10373C3.79853 4.12817 3.92585 4.11563 4.04155 4.0677C4.15726 4.01977 4.25615 3.93861 4.32573 3.83448C4.39531 3.73035 4.43245 3.60792 4.43245 3.48269C4.43226 3.31481 4.36548 3.15386 4.24677 3.03515C4.12806 2.91644 3.96711 2.84966 3.79923 2.84947ZM3.79923 3.79929C3.73661 3.79929 3.6754 3.78072 3.62333 3.74594C3.57127 3.71115 3.53069 3.6617 3.50672 3.60385C3.48276 3.54599 3.47649 3.48233 3.48871 3.42092C3.50092 3.3595 3.53108 3.30309 3.57536 3.25881C3.61963 3.21453 3.67605 3.18438 3.73746 3.17216C3.79888 3.15994 3.86254 3.16621 3.92039 3.19018C3.97824 3.21414 4.02769 3.25472 4.06248 3.30679C4.09727 3.35885 4.11584 3.42007 4.11584 3.48269C4.11576 3.56663 4.08237 3.64711 4.02301 3.70647C3.96366 3.76583 3.88318 3.79921 3.79923 3.79929Z" fill="#2D4356"/>
<path d="M44.6408 34.1937H37.0422C36.9583 34.1937 36.8777 34.2271 36.8184 34.2865C36.759 34.3458 36.7256 34.4264 36.7256 34.5103C36.7256 34.5943 36.759 34.6748 36.8184 34.7342C36.8777 34.7936 36.9583 34.8269 37.0422 34.8269H44.6408C44.7248 34.8269 44.8053 34.7936 44.8647 34.7342C44.9241 34.6748 44.9574 34.5943 44.9574 34.5103C44.9574 34.4264 44.9241 34.3458 44.8647 34.2865C44.8053 34.2271 44.7248 34.1937 44.6408 34.1937ZM34.5094 34.8269H35.1426C35.2266 34.8269 35.3071 34.7936 35.3665 34.7342C35.4258 34.6748 35.4592 34.5943 35.4592 34.5103C35.4592 34.4264 35.4258 34.3458 35.3665 34.2865C35.3071 34.2271 35.2266 34.1937 35.1426 34.1937H34.5094C34.4254 34.1937 34.3449 34.2271 34.2855 34.2865C34.2261 34.3458 34.1928 34.4264 34.1928 34.5103C34.1928 34.5943 34.2261 34.6748 34.2855 34.7342C34.3449 34.7936 34.4254 34.8269 34.5094 34.8269ZM37.4076 43.692H34.7773C34.6181 43.7047 34.4695 43.777 34.3612 43.8943C34.2529 44.0116 34.1928 44.1655 34.1928 44.3252C34.1928 44.4849 34.2529 44.6387 34.3612 44.7561C34.4695 44.8734 34.6181 44.9456 34.7773 44.9584H37.4076C37.5667 44.9456 37.7153 44.8734 37.8236 44.7561C37.9319 44.6387 37.9921 44.4849 37.9921 44.3252C37.9921 44.1655 37.9319 44.0116 37.8236 43.8943C37.7153 43.777 37.5667 43.7047 37.4076 43.692ZM18.4111 43.692H15.7808C15.6216 43.7047 15.4731 43.777 15.3648 43.8943C15.2564 44.0116 15.1963 44.1655 15.1963 44.3252C15.1963 44.4849 15.2564 44.6387 15.3648 44.7561C15.4731 44.8734 15.6216 44.9456 15.7808 44.9584H18.4111C18.5703 44.9456 18.7188 44.8734 18.8271 44.7561C18.9355 44.6387 18.9956 44.4849 18.9956 44.3252C18.9956 44.1655 18.9355 44.0116 18.8271 43.8943C18.7188 43.777 18.5703 43.7047 18.4111 43.692ZM32.9263 43.692H20.262C20.0941 43.692 19.933 43.7587 19.8143 43.8774C19.6955 43.9962 19.6288 44.1572 19.6288 44.3252C19.6288 44.4931 19.6955 44.6542 19.8143 44.7729C19.933 44.8917 20.0941 44.9584 20.262 44.9584H25.3087V45.5916H22.7949C22.6269 45.5916 22.4659 45.6583 22.3471 45.7771C22.2284 45.8958 22.1617 46.0569 22.1617 46.2248C22.1617 46.3928 22.2284 46.5538 22.3471 46.6726C22.4659 46.7913 22.6269 46.858 22.7949 46.858H30.7101C30.878 46.858 31.0391 46.7913 31.1578 46.6726C31.2766 46.5538 31.3433 46.3928 31.3433 46.2248C31.3433 46.0569 31.2766 45.8958 31.1578 45.7771C31.0391 45.6583 30.878 45.5916 30.7101 45.5916H27.8796V44.9584H32.9263C33.0943 44.9584 33.2553 44.8917 33.3741 44.7729C33.4928 44.6542 33.5595 44.4931 33.5595 44.3252C33.5595 44.1572 33.4928 43.9962 33.3741 43.8774C33.2553 43.7587 33.0943 43.692 32.9263 43.692Z" fill="#0BCEB2"/>
<path d="M4.61706 21.2162L5.08785 20.5973L4.79056 20.4288L4.48851 21.1222H4.47838L4.17127 20.4336L3.86891 20.6071L4.33464 21.2115V21.2213L3.60645 21.1273V21.4641L4.33971 21.3701V21.3799L3.86891 21.984L4.15133 22.1626L4.47363 21.4641H4.48313L4.78043 22.1575L5.0926 21.9793L4.61706 21.3847V21.3749L5.36488 21.4641V21.1273L4.61706 21.2261V21.2162Z" fill="#0BCEB2"/>
<path d="M17.6597 10.1526L17.3883 10.5005L17.5511 10.6031L17.7366 10.201H17.7423L17.9133 10.6003L18.0931 10.4977L17.8192 10.1551V10.1494L18.2498 10.201V10.0069L17.8192 10.0639V10.0582L18.0902 9.70174L17.9193 9.60486L17.7451 10.0041H17.7394L17.5628 9.60739L17.3883 9.70744L17.6568 10.0554V10.0611L17.2373 10.0069V10.201L17.6597 10.1469V10.1526Z" fill="#0BCEB2"/>
<path d="M37.2895 25.0332L37.0182 25.3812L37.1809 25.4837L37.3665 25.0816H37.3722L37.5431 25.4809L37.723 25.3783L37.4491 25.0357V25.03L37.8797 25.0816V24.8876L37.4491 24.9446V24.9389L37.7201 24.5824L37.5492 24.4855L37.375 24.8847H37.3693L37.1927 24.488L37.0182 24.5881L37.2867 24.936V24.9417L36.8672 24.8876V25.0816L37.2895 25.0275V25.0332Z" fill="#0BCEB2"/>
<path d="M48.3399 11.3807L48.8019 10.7734L48.5103 10.6082L48.2139 11.2882H48.2038L47.9027 10.6129L47.606 10.7832L48.0629 11.3759V11.3857L47.3486 11.2933V11.6235L48.0676 11.5314V11.5412L47.606 12.1339L47.8831 12.309L48.199 11.6235H48.2085L48.5001 12.3039L48.8063 12.1291L48.3399 11.5459V11.5361L49.0735 11.6235V11.2933L48.3399 11.3905V11.3807Z" fill="#0BCEB2"/>
<path d="M31.8832 6.33936L31.485 6.85068L31.7237 7.00171L31.9966 6.4106H32.0045L32.2562 6.99727L32.5203 6.84657L32.1179 6.34348V6.33493L32.7508 6.4106V6.12565L32.1179 6.20924V6.20101L32.5161 5.67702L32.2648 5.53455L32.0089 6.12122H32.0007L31.7408 5.53866L31.485 5.68557L31.8791 6.19689V6.20512L31.2627 6.12565V6.4106L31.8832 6.33081V6.33936Z" fill="#0BCEB2"/>
<path d="M52.3806 22.5577V22.2727L51.7477 22.3563V22.3481L52.146 21.8241L51.8946 21.6816L51.6388 22.2683H51.6306L51.3707 21.6858L51.1148 21.8327L51.509 22.344V22.3522L50.8926 22.2727V22.5577L51.5131 22.4779V22.4865L51.1148 22.9978L51.3536 23.1488L51.6265 22.5577H51.6344L51.8861 23.1444L52.1501 22.9937L51.7477 22.4906V22.482L52.3806 22.5577Z" fill="#0BCEB2"/>
</svg>
