<svg width="28" height="28" viewBox="0 0 28 28" fill="none" xmlns="http://www.w3.org/2000/svg">
<path d="M26.8387 12.7328C26.1655 11.8175 25.0829 11.2233 23.8616 11.2233C22.6299 11.2233 21.5393 11.827 20.867 12.7561C20.1951 11.827 19.1042 11.2233 17.8727 11.2233C16.9478 11.2233 16.1019 11.5642 15.4536 12.1278C15.4045 12.1705 15.3564 12.2144 15.3099 12.2597C15.1518 12.4117 15.0075 12.5777 14.8785 12.7561C14.7494 12.5777 14.6048 12.4117 14.4471 12.2597C14.4006 12.2144 14.3524 12.1705 14.3034 12.1278C13.6547 11.5642 12.8091 11.2233 11.8839 11.2233C10.6524 11.2233 9.5612 11.827 8.88958 12.7561C8.21699 11.827 7.1264 11.2233 5.89529 11.2233C4.67375 11.2233 3.59111 11.8175 2.91821 12.7328C3.84855 7.29003 8.55217 3.10065 14.3037 2.83748C14.3515 2.83525 14.3996 2.83302 14.4474 2.83174C14.5908 2.82665 14.7345 2.8241 14.8788 2.8241C15.0231 2.8241 15.1671 2.82633 15.3102 2.83174C15.3583 2.83334 15.4064 2.83525 15.4539 2.83748C21.2044 3.10065 25.9081 7.29003 26.8387 12.7328Z" fill="#43BEBB"/>
<path d="M13.9197 12.756V2.06732" stroke="white" stroke-width="0.637217" stroke-miterlimit="10" stroke-linejoin="round"/>
<path d="M23.1613 21.3445H21.3303L20.5372 19.6546L19.3581 22.1897L17.8574 18.3349L16.3781 21.3445H14.1702" stroke="#43BEBB" stroke-opacity="0.5" stroke-width="0.637217" stroke-miterlimit="10" stroke-linejoin="round"/>
<path d="M7.45142 12.7563C7.9717 6.70467 10.6831 2.06732 13.9357 2.06732C17.1884 2.06732 19.8689 6.70467 20.3888 12.7563" stroke="white" stroke-width="0.637217" stroke-miterlimit="10" stroke-linejoin="round"/>
<path d="M26.8386 12.7308C26.1112 11.7457 24.9419 11.1063 23.6229 11.1063C22.2927 11.1063 21.1145 11.7562 20.3884 12.756C19.6626 11.7562 18.4844 11.1063 17.1542 11.1063C16.155 11.1063 15.2416 11.4733 14.5413 12.0796C14.4881 12.1255 14.4361 12.173 14.3858 12.2217C14.2153 12.3855 14.0592 12.5642 13.9197 12.756C13.7801 12.5639 13.6243 12.3855 13.4536 12.2217C13.4032 12.173 13.3513 12.1258 13.2981 12.0796C12.5975 11.4733 11.6843 11.1063 10.6848 11.1063C9.35497 11.1063 8.17612 11.7562 7.45065 12.756C6.72422 11.7562 5.54632 11.1063 4.21645 11.1063C2.89709 11.1063 1.7278 11.7457 1.00073 12.7308C2.00562 6.87323 7.08584 2.36492 13.2981 2.08135C13.3497 2.07881 13.4016 2.07657 13.4536 2.07498C13.6084 2.06925 13.7636 2.06702 13.9197 2.06702C14.0758 2.06702 14.231 2.06957 14.3858 2.07498C14.4377 2.07657 14.4897 2.07881 14.5413 2.08135C20.7532 2.36492 25.8334 6.87355 26.8386 12.7308Z" stroke="#002D4F" stroke-width="0.637217" stroke-miterlimit="10" stroke-linejoin="round"/>
<path d="M14.3858 1.46612V2.0753C14.231 2.06957 14.0758 2.06734 13.9197 2.06734C13.7636 2.06734 13.6084 2.06989 13.4536 2.0753V1.46612C13.4536 1.20869 13.6623 1 13.9197 1C14.1771 1 14.3858 1.20869 14.3858 1.46612ZM14.3858 12.2217V15.2103C14.1415 15.3578 13.9108 15.5368 13.7002 15.7474C13.6448 15.8029 13.5912 15.8599 13.5409 15.9182C13.5109 15.952 13.4823 15.9867 13.4539 16.0214V12.2217C13.6244 12.3855 13.7805 12.5642 13.92 12.756C14.0593 12.5642 14.2154 12.3855 14.3858 12.2217ZM13.7002 20.8678L14.3858 21.5534V25.4041C14.3858 26.4963 13.5109 27.4031 12.4187 27.4063C11.8717 27.4079 11.3766 27.1868 11.0181 26.8283C10.6613 26.4715 10.4402 25.9783 10.4402 25.4335V25.1585C10.4402 24.9011 10.6489 24.6924 10.9063 24.6924C11.1637 24.6924 11.3724 24.9011 11.3724 25.1585V25.4124C11.3724 25.9815 11.8204 26.4613 12.3894 26.4737C12.6861 26.4804 12.9553 26.3625 13.149 26.1691C13.3373 25.9805 13.4539 25.7205 13.4539 25.4331V20.5954C13.5307 20.6891 13.6126 20.7802 13.7002 20.8678Z" stroke="#002D4F" stroke-width="0.637217" stroke-miterlimit="10" stroke-linejoin="round"/>
<path d="M25.7826 20.8678L19.7414 26.9092L15.705 22.8725L13.7003 20.8678C13.6127 20.7802 13.5308 20.689 13.454 20.5954C12.3745 19.2709 12.3742 17.3459 13.454 16.0214C13.4823 15.9867 13.511 15.9523 13.541 15.9182C13.5913 15.8599 13.6452 15.8025 13.7003 15.7474C13.9109 15.5368 14.1415 15.3578 14.3859 15.2102C14.7957 14.963 15.2449 14.8043 15.705 14.7336C15.8888 14.7049 16.0745 14.6909 16.2603 14.6909C17.1881 14.6909 18.1165 15.0433 18.8206 15.7471L19.7411 16.6679L20.6619 15.7471C22.0701 14.3392 24.3743 14.3392 25.7822 15.7471C27.1908 17.1557 27.1908 19.4599 25.7826 20.8678Z" stroke="#002D4F" stroke-width="0.637217" stroke-miterlimit="10" stroke-linejoin="round"/>
<path d="M4.40723 15.1196V16.3975" stroke="#002D4F" stroke-width="0.652511" stroke-miterlimit="10" stroke-linecap="round" stroke-linejoin="round"/>
<path d="M7.81519 15.1196V16.3975" stroke="#002D4F" stroke-width="0.652511" stroke-miterlimit="10" stroke-linecap="round" stroke-linejoin="round"/>
<path d="M2.49097 18.1396H9.73202" stroke="#002D4F" stroke-width="0.652511" stroke-miterlimit="10" stroke-linecap="round" stroke-linejoin="round"/>
<path d="M9.94507 17.8883V21.5089C9.94507 22.7867 9.30616 23.6386 7.81535 23.6386H4.4078C2.91699 23.6386 2.27808 22.7867 2.27808 21.5089V17.8883C2.27808 16.6105 2.91699 15.7586 4.4078 15.7586H7.81535C9.30616 15.7586 9.94507 16.6105 9.94507 17.8883Z" stroke="#002D4F" stroke-width="0.652511" stroke-miterlimit="10" stroke-linecap="round" stroke-linejoin="round"/>
<path d="M7.68524 20.1032H7.68907" stroke="#002D4F" stroke-width="0.652511" stroke-linecap="round" stroke-linejoin="round"/>
<path d="M7.68524 21.3811H7.68907" stroke="#002D4F" stroke-width="0.652511" stroke-linecap="round" stroke-linejoin="round"/>
<path d="M6.10956 20.1032H6.11338" stroke="#002D4F" stroke-width="0.652511" stroke-linecap="round" stroke-linejoin="round"/>
<path d="M6.10956 21.3811H6.11338" stroke="#002D4F" stroke-width="0.652511" stroke-linecap="round" stroke-linejoin="round"/>
<path d="M4.53314 20.1032H4.53697" stroke="#002D4F" stroke-width="0.652511" stroke-linecap="round" stroke-linejoin="round"/>
<path d="M4.53314 21.3811H4.53697" stroke="#002D4F" stroke-width="0.652511" stroke-linecap="round" stroke-linejoin="round"/>
</svg>
