<svg width="17" height="16" viewBox="0 0 17 16" fill="none" xmlns="http://www.w3.org/2000/svg">
<path fill-rule="evenodd" clip-rule="evenodd" d="M8.02424 1.45455C6.69474 1.45455 5.61697 2.43138 5.61697 3.63636C5.61697 4.84135 6.69474 5.81818 8.02424 5.81818C9.35374 5.81818 10.4315 4.84135 10.4315 3.63636C10.4315 2.43138 9.35374 1.45455 8.02424 1.45455ZM4.01212 3.63636C4.01212 1.62806 5.80841 0 8.02424 0C10.2401 0 12.0364 1.62806 12.0364 3.63636C12.0364 5.64467 10.2401 7.27273 8.02424 7.27273C5.80841 7.27273 4.01212 5.64467 4.01212 3.63636ZM0 15.2727C0 11.2561 3.59259 8 8.02424 8C12.4559 8 16.0485 11.2561 16.0485 15.2727C16.0485 15.6744 15.6892 16 15.2461 16C14.8029 16 14.4436 15.6744 14.4436 15.2727C14.4436 12.0594 11.5696 9.45455 8.02424 9.45455C4.47892 9.45455 1.60485 12.0594 1.60485 15.2727C1.60485 15.6744 1.24559 16 0.802424 16C0.359258 16 0 15.6744 0 15.2727Z" fill="#43BEBB"/>
</svg>
