<svg width="17" height="18" viewBox="0 0 17 18" fill="none" xmlns="http://www.w3.org/2000/svg">
<path d="M13.6776 12.9113L9.73892 16.5838C9.56667 16.7446 9.36212 16.8721 9.13698 16.9591C8.91183 17.0462 8.6705 17.0909 8.42678 17.0909C8.18306 17.0909 7.94173 17.0462 7.71658 16.9591C7.49144 16.8721 7.2869 16.7446 7.11464 16.5838L3.17499 12.9113C2.13643 11.9429 1.42918 10.7092 1.14267 9.36598C0.856155 8.02281 1.00324 6.63058 1.56533 5.36535C2.12743 4.10012 3.07928 3.01871 4.30052 2.25787C5.52176 1.49704 6.95755 1.09094 8.42632 1.09094C9.89509 1.09094 11.3309 1.49704 12.5521 2.25787C13.7734 3.01871 14.7252 4.10012 15.2873 5.36535C15.8494 6.63058 15.9965 8.02281 15.71 9.36598C15.4234 10.7092 14.7162 11.9429 13.6776 12.9113V12.9113Z" stroke="#43BEBB" stroke-width="1.3" stroke-linecap="round" stroke-linejoin="round"/>
<path d="M10.396 9.851C10.9183 9.36404 11.2117 8.70358 11.2117 8.01492C11.2117 7.32625 10.9183 6.66579 10.396 6.17883C9.87377 5.69188 9.16543 5.4183 8.42684 5.4183C7.68824 5.4183 6.9799 5.69188 6.45764 6.17883C5.93537 6.66579 5.64197 7.32625 5.64197 8.01492C5.64197 8.70358 5.93537 9.36404 6.45764 9.851C6.9799 10.338 7.68824 10.6115 8.42684 10.6115C9.16543 10.6115 9.87377 10.338 10.396 9.851Z" stroke="#43BEBB" stroke-width="1.3" stroke-linecap="round" stroke-linejoin="round"/>
</svg>
