<svg width="13" height="17" viewBox="0 0 13 17" fill="none" xmlns="http://www.w3.org/2000/svg">
<path d="M9.70933 0.772705H2.648C1.94571 0.772705 1.27218 1.02556 0.775581 1.47565C0.278985 1.92574 0 2.53619 0 3.17271V14.3727C0 15.0092 0.278985 15.6197 0.775581 16.0698C1.27218 16.5198 1.94571 16.7727 2.648 16.7727H9.70933C10.4116 16.7727 11.0852 16.5198 11.5818 16.0698C12.0783 15.6197 12.3573 15.0092 12.3573 14.3727V3.17271C12.3573 2.53619 12.0783 1.92574 11.5818 1.47565C11.0852 1.02556 10.4116 0.772705 9.70933 0.772705ZM10.592 14.3727C10.592 14.5849 10.499 14.7884 10.3335 14.9384C10.1679 15.0884 9.94343 15.1727 9.70933 15.1727H2.648C2.4139 15.1727 2.18939 15.0884 2.02386 14.9384C1.85833 14.7884 1.76533 14.5849 1.76533 14.3727V13.5727H10.592V14.3727ZM10.592 11.9727H1.76533V3.17271C1.76533 2.96053 1.85833 2.75705 2.02386 2.60702C2.18939 2.45699 2.4139 2.37271 2.648 2.37271H9.70933C9.94343 2.37271 10.1679 2.45699 10.3335 2.60702C10.499 2.75705 10.592 2.96053 10.592 3.17271V11.9727Z" fill="#43BEBB"/>
</svg>
