<svg width="16" height="16" viewBox="0 0 16 16" fill="none" xmlns="http://www.w3.org/2000/svg">
<path d="M15.3323 11.0229L13.9036 9.59422C13.4778 9.17175 12.9029 8.93357 12.3031 8.93102C11.7032 8.92847 11.1264 9.16175 10.6969 9.58058C10.4677 9.81104 10.1654 9.95443 9.84198 9.98607C9.51853 10.0177 9.19416 9.93564 8.92469 9.75397C7.8611 9.04415 6.94739 8.13221 6.23552 7.07C6.05704 6.79752 5.97793 6.47185 6.01153 6.14786C6.04512 5.82386 6.18936 5.52135 6.41995 5.29129C6.83498 4.86143 7.06525 4.28619 7.06149 3.68869C7.05773 3.09118 6.82023 2.51889 6.39982 2.09429L4.97114 0.66561C4.54341 0.239348 3.96416 0 3.3603 0C2.75644 0 2.17719 0.239348 1.74946 0.66561L1.33839 1.07733C-0.80463 3.22035 -0.644228 7.72589 3.81456 12.1821C6.50307 14.8712 9.20912 15.9973 11.4034 15.9973C12.0494 16.0188 12.6931 15.9115 13.2972 15.6818C13.9013 15.452 14.4536 15.1043 14.9219 14.6589L15.3336 14.2472C15.7607 13.8192 16.0004 13.2393 16.0001 12.6348C15.9999 12.0302 15.7597 11.4505 15.3323 11.0229ZM14.4141 13.3289L14.0023 13.7406C12.3139 15.4291 8.587 15.1206 4.73151 11.2645C0.876019 7.40833 0.566904 3.67883 2.25535 1.99039L2.66382 1.57932C2.84773 1.39607 3.09678 1.29317 3.3564 1.29317C3.61603 1.29317 3.86507 1.39607 4.04899 1.57932L5.47767 3.008C5.65824 3.18948 5.76074 3.43434 5.76329 3.69034C5.76584 3.94634 5.66823 4.19319 5.49131 4.37823C5.05249 4.81984 4.77877 5.39884 4.71599 6.01823C4.65321 6.63761 4.80519 7.25976 5.14648 7.78044C5.95533 8.99086 6.99548 10.0295 8.2071 10.8365C8.72622 11.1778 9.34673 11.3307 9.965 11.2696C10.5833 11.2085 11.1619 10.9371 11.6041 10.5008C11.7888 10.3218 12.0363 10.2224 12.2936 10.2239C12.5508 10.2255 12.7971 10.3279 12.9795 10.5092L14.4082 11.9379C14.5003 12.0286 14.5735 12.1367 14.6237 12.2559C14.6738 12.375 14.6999 12.5029 14.7005 12.6322C14.701 12.7615 14.676 12.8896 14.6269 13.0092C14.5777 13.1287 14.5054 13.2374 14.4141 13.3289Z" fill="#43BEBB"/>
</svg>
