<svg width="16" height="17" viewBox="0 0 16 17" fill="none" xmlns="http://www.w3.org/2000/svg">
<path d="M7.073 10.1915C6.88832 10.1915 6.70364 10.1278 6.56297 9.99997C6.28126 9.74465 6.28126 9.33076 6.56297 9.07544L11.238 4.83822C11.5194 4.5829 11.9768 4.5829 12.2581 4.83822C12.5398 5.09355 12.5398 5.50743 12.2581 5.76275L7.58303 9.99997C7.44236 10.1278 7.25768 10.1915 7.073 10.1915Z" fill="#43BEBB"/>
<path d="M7.07277 10.1914C6.88809 10.1914 6.70377 10.1277 6.56273 9.99984L4.20591 7.86407C3.9242 7.60875 3.9242 7.19486 4.20591 6.93954C4.48726 6.68422 4.94427 6.68422 5.22597 6.93954L7.5828 9.07531C7.86451 9.33063 7.86451 9.74451 7.5828 9.99984C7.44212 10.1277 7.25745 10.1914 7.07277 10.1914Z" fill="#43BEBB"/>
<path d="M7.93544 17C7.86041 17 7.7843 16.9892 7.70928 16.967C3.09807 15.5884 0 11.7052 0 7.30387C0 6.94295 0.323189 6.65002 0.721403 6.65002C1.11962 6.65002 1.44281 6.94295 1.44281 7.30387C1.44281 11.1393 4.14266 14.5236 8.16124 15.725C8.53961 15.8381 8.74521 16.2079 8.62041 16.5508C8.52049 16.8258 8.23843 17 7.93544 17Z" fill="#43BEBB"/>
<path d="M0.721405 7.95763C0.323189 7.95763 0 7.66471 0 7.30379V2.67819C0 2.31727 0.323189 2.02435 0.721405 2.02435C1.11962 2.02435 1.44281 2.31727 1.44281 2.67819V7.30379C1.44281 7.66503 1.11962 7.95763 0.721405 7.95763Z" fill="#43BEBB"/>
<path d="M0.720786 3.33203C0.366577 3.33203 0.0574547 3.09534 0.00695643 2.76809C-0.0478703 2.41044 0.227346 2.08025 0.622315 2.03056C3.05922 1.72358 5.41136 1.06353 7.61381 0.0687104C7.97054 -0.0921343 8.40375 0.0389606 8.58121 0.362285C8.75904 0.685609 8.61367 1.07791 8.2573 1.23908C5.91454 2.297 3.41271 2.9989 0.820701 3.32582C0.787155 3.33007 0.75361 3.33203 0.720786 3.33203Z" fill="#43BEBB"/>
<path d="M7.93534 17C7.63271 17 7.35028 16.8258 7.25036 16.5508C7.12556 16.2079 7.33116 15.8381 7.70954 15.725C11.7281 14.5239 14.428 11.1396 14.428 7.30387C14.428 6.94295 14.7512 6.65002 15.1494 6.65002C15.5476 6.65002 15.8708 6.94295 15.8708 7.30387C15.8708 11.7049 12.7727 15.5884 8.16114 16.967C8.08611 16.9895 8.01036 17 7.93534 17Z" fill="#43BEBB"/>
<path d="M15.1496 7.95757C14.7514 7.95757 14.4282 7.66465 14.4282 7.30373V2.67813C14.4282 2.31721 14.7514 2.02429 15.1496 2.02429C15.5478 2.02429 15.871 2.31721 15.871 2.67813V7.30373C15.871 7.66497 15.5478 7.95757 15.1496 7.95757Z" fill="#43BEBB"/>
<path d="M15.1505 3.33203C15.1174 3.33203 15.0838 3.33007 15.0503 3.32582C12.4583 2.9989 9.95644 2.297 7.61368 1.23908C7.25731 1.07791 7.11195 0.685609 7.28977 0.362285C7.46724 0.0389606 7.90044 -0.0921343 8.25717 0.0687104C10.4596 1.0632 12.8118 1.72358 15.2487 2.03056C15.6433 2.08025 15.9188 2.41077 15.864 2.76809C15.8142 3.09534 15.5051 3.33203 15.1505 3.33203Z" fill="#43BEBB"/>
</svg>
