<svg width="18" height="16" viewBox="0 0 18 16" fill="none" xmlns="http://www.w3.org/2000/svg">
<path d="M14.5067 3.36842H11.9467V2.52632C11.9467 1.8563 11.677 1.21372 11.1969 0.739941C10.7168 0.266165 10.0656 0 9.38667 0H7.68C7.00105 0 6.3499 0.266165 5.86981 0.739941C5.38971 1.21372 5.12 1.8563 5.12 2.52632V3.36842H2.56C1.88105 3.36842 1.2299 3.63459 0.749807 4.10836C0.269714 4.58214 0 5.22472 0 5.89474V13.4737C0 14.1437 0.269714 14.7863 0.749807 15.2601C1.2299 15.7338 1.88105 16 2.56 16H14.5067C15.1856 16 15.8368 15.7338 16.3169 15.2601C16.797 14.7863 17.0667 14.1437 17.0667 13.4737V5.89474C17.0667 5.22472 16.797 4.58214 16.3169 4.10836C15.8368 3.63459 15.1856 3.36842 14.5067 3.36842ZM6.82667 2.52632C6.82667 2.30298 6.91657 2.08878 7.0766 1.93086C7.23663 1.77293 7.45368 1.68421 7.68 1.68421H9.38667C9.61298 1.68421 9.83003 1.77293 9.99006 1.93086C10.1501 2.08878 10.24 2.30298 10.24 2.52632V3.36842H6.82667V2.52632ZM15.36 13.4737C15.36 13.697 15.2701 13.9112 15.1101 14.0691C14.95 14.2271 14.733 14.3158 14.5067 14.3158H2.56C2.33368 14.3158 2.11663 14.2271 1.9566 14.0691C1.79657 13.9112 1.70667 13.697 1.70667 13.4737V8.8421C3.87948 9.69275 6.19579 10.1299 8.53333 10.1305C10.8708 10.1291 13.187 9.69197 15.36 8.8421V13.4737ZM15.36 6.9979C13.2082 7.93076 10.8836 8.41245 8.53333 8.41245C6.18308 8.41245 3.85844 7.93076 1.70667 6.9979V5.89474C1.70667 5.6714 1.79657 5.4572 1.9566 5.29928C2.11663 5.14135 2.33368 5.05263 2.56 5.05263H14.5067C14.733 5.05263 14.95 5.14135 15.1101 5.29928C15.2701 5.4572 15.36 5.6714 15.36 5.89474V6.9979Z" fill="#43BEBB"/>
</svg>
