<svg width="31" height="32" viewBox="0 0 31 32" fill="none" xmlns="http://www.w3.org/2000/svg">
<path d="M4.28642 28.0323L2.29248 26.0383" stroke="#43BEBB" stroke-opacity="0.5" stroke-width="0.717245" stroke-miterlimit="10" stroke-linejoin="round"/>
<path d="M26.492 27.3078L22.0415 22.8577" stroke="#43BEBB" stroke-opacity="0.5" stroke-width="0.717245" stroke-miterlimit="10" stroke-linejoin="round"/>
<path d="M27.7548 11.5034L17.562 21.6962C16.6289 22.6293 15.3558 23.1421 14.0364 23.1163L11.904 23.0743C11.0035 23.0568 10.1346 23.4068 9.49769 24.0433L7.62891 22.1746C8.26546 21.5376 8.61548 20.6687 8.5979 19.7682L8.55595 17.6358C8.53012 16.3165 9.04296 15.0433 9.97609 14.1102L20.1689 3.91744L27.7548 11.5034Z" fill="#43BEBB"/>
<path d="M27.755 10.6638L16.8798 21.539C15.8842 22.5345 14.5258 23.0818 13.1182 23.0542L10.8431 23.0093C9.88231 22.9907 8.95527 23.364 8.27568 24.0432L6.28174 22.0493C6.96097 21.3697 7.3343 20.4427 7.31565 19.4819L7.27082 17.2068C7.24321 15.7992 7.79046 14.4408 8.786 13.4452L19.6612 2.57001L27.755 10.6638Z" stroke="#002D4F" stroke-width="0.717245" stroke-miterlimit="10" stroke-linejoin="round"/>
<path d="M6.28179 22.0493L8.27573 24.0433L3.40707 28.9123C2.85623 29.4628 1.96362 29.4628 1.41277 28.9123C1.13735 28.6369 1 28.2761 1 27.9153C1 27.5542 1.13735 27.1934 1.41277 26.918L6.28179 22.0493ZM28.7764 9.64209L27.755 10.6638L19.6613 2.57005L20.683 1.54869C21.4142 0.817103 22.6006 0.817103 23.3318 1.54869L28.7764 6.9933C29.508 7.72489 29.508 8.91085 28.7764 9.64209Z" stroke="#002D4F" stroke-width="0.717245" stroke-miterlimit="10" stroke-linejoin="round"/>
<path d="M18.8408 14.5342L15.791 11.4843L10.3366 16.9385L13.3864 19.9884L18.8408 14.5342Z" fill="white" stroke="#002D4F" stroke-width="0.717245" stroke-miterlimit="10" stroke-linejoin="round"/>
<path d="M20.5118 11.3889C21.3821 11.3889 22.0876 10.6834 22.0876 9.81309C22.0876 8.94281 21.3821 8.2373 20.5118 8.2373C19.6415 8.2373 18.936 8.94281 18.936 9.81309C18.936 10.6834 19.6415 11.3889 20.5118 11.3889Z" stroke="white" stroke-width="0.717245" stroke-miterlimit="10" stroke-linejoin="round"/>
<path d="M28.913 20.4366C30.142 21.6656 30.142 23.6578 28.9127 24.8868L24.0705 29.7292C22.8505 30.9493 20.877 30.9582 19.6462 29.7551C19.6376 29.7468 19.629 29.7382 19.6204 29.7296C19.0061 29.1153 18.6987 28.3098 18.6987 27.504C18.6987 26.6989 19.0061 25.8934 19.6204 25.2791L24.4625 20.437C25.6919 19.2076 27.684 19.2076 28.913 20.4366Z" stroke="#002D4F" stroke-width="0.717245" stroke-miterlimit="10" stroke-linejoin="round"/>
</svg>
