<svg width="30" height="31" viewBox="0 0 30 31" fill="none" xmlns="http://www.w3.org/2000/svg">
<path d="M14.1494 5.31572V7.73305H11.1495V10.7333H8.73146V7.73305H5.73193V5.31572H8.73146V2.31583H11.1495V5.31572H14.1494Z" fill="#43BEBB"/>
<path d="M20.8975 1C20.8975 1.60324 21.3864 2.09252 21.99 2.09252C22.5932 2.09252 23.0825 1.60361 23.0825 1H29.0855V17.0705M25.4265 28.4875C25.4265 29.3231 24.7496 30 23.9144 30C23.0789 30 22.4019 29.3231 22.4019 28.4875C22.4019 27.8865 22.7526 27.3671 23.2607 27.1239C23.2887 27.1101 23.3173 27.0974 23.3464 27.0858C23.5217 27.0146 23.7133 26.9754 23.9144 26.9754C24.1155 26.9754 24.3071 27.0146 24.4824 27.0858C24.5111 27.0974 24.5398 27.1101 24.5674 27.1235C25.0755 27.3671 25.4265 27.8861 25.4265 28.4875Z" stroke="#002D4F" stroke-width="0.63694" stroke-miterlimit="10" stroke-linejoin="round"/>
<path d="M23.9146 26.9755V25.813L6.89707 20.4905L6.79834 20.4629V19.1112" stroke="#002D4F" stroke-width="0.63694" stroke-miterlimit="10" stroke-linejoin="round"/>
<path d="M5.34619 28.4876C5.34619 29.3231 6.02312 30 6.8583 30C7.69384 30 8.37076 29.3231 8.37076 28.4876C8.37076 27.8865 8.02014 27.3671 7.51199 27.1239C7.48404 27.1101 7.45537 27.0974 7.42633 27.0858C7.25102 27.0147 7.05938 26.9755 6.8583 26.9755C6.65721 26.9755 6.46557 27.0147 6.29026 27.0858C6.26158 27.0974 6.23291 27.1101 6.20532 27.1236C5.69718 27.3671 5.34619 27.8861 5.34619 28.4876Z" stroke="#002D4F" stroke-width="0.63694" stroke-miterlimit="10" stroke-linejoin="round"/>
<path d="M6.8584 26.9755V25.813L23.8759 20.4905L23.9746 20.4629V19.1112" stroke="#002D4F" stroke-width="0.63694" stroke-miterlimit="10" stroke-linejoin="round"/>
<path d="M23.9143 28.7598C24.0647 28.7598 24.1865 28.6379 24.1865 28.4876C24.1865 28.3372 24.0647 28.2153 23.9143 28.2153C23.764 28.2153 23.6421 28.3372 23.6421 28.4876C23.6421 28.6379 23.764 28.7598 23.9143 28.7598Z" stroke="#43BEBB" stroke-opacity="0.3" stroke-width="0.63694" stroke-miterlimit="10" stroke-linejoin="round"/>
<path d="M29.0853 17.0709V19.1401H5.50836L1 16.3594L1.62321 15.4978C2.04207 14.9185 2.84058 14.7671 3.44238 15.1533L6.43065 17.0709H29.0853Z" stroke="#002D4F" stroke-width="0.63694" stroke-miterlimit="10" stroke-linejoin="round"/>
<path d="M14.1489 4.46884V7.26438H10.68V10.7332H7.88449V7.26438H4.41602V4.46884H7.88449V1H10.68V4.46884H14.1489Z" stroke="#002D4F" stroke-width="0.63694" stroke-miterlimit="10" stroke-linejoin="round"/>
<path d="M6.85865 28.7598C7.00899 28.7598 7.13087 28.6379 7.13087 28.4876C7.13087 28.3372 7.00899 28.2153 6.85865 28.2153C6.7083 28.2153 6.58643 28.3372 6.58643 28.4876C6.58643 28.6379 6.7083 28.7598 6.85865 28.7598Z" stroke="#43BEBB" stroke-opacity="0.3" stroke-width="0.63694" stroke-miterlimit="10" stroke-linejoin="round"/>
<path d="M10.7173 19.5031V16.1033C10.7173 15.5552 11.1619 15.1109 11.71 15.1109H21.486C22.0345 15.1109 22.4787 15.5552 22.4787 16.1033V19.5031" stroke="#002D4F" stroke-width="0.63694" stroke-miterlimit="10" stroke-linejoin="round"/>
<path opacity="0.3" d="M23.2655 7.31661L23.4453 7.57951L23.4453 7.57951L23.2655 7.31661ZM20.6841 7.31661L20.5044 7.57951L20.5044 7.57951L20.6841 7.31661ZM19.9673 3.42201V3.10354C19.7914 3.10354 19.6488 3.24613 19.6488 3.42201H19.9673ZM23.9827 3.42201H24.3012C24.3012 3.24613 24.1586 3.10354 23.9827 3.10354V3.42201ZM23.0858 7.0537L21.7951 7.93606L22.1546 8.46188L23.4453 7.57951L23.0858 7.0537ZM22.1546 7.93606L20.8639 7.0537L20.5044 7.57951L21.7951 8.46188L22.1546 7.93606ZM20.8639 7.0537C20.5021 6.80639 20.2858 6.3963 20.2858 5.95767H19.6488C19.6488 6.60648 19.9689 7.21341 20.5044 7.57951L20.8639 7.0537ZM20.2858 5.95767V3.42201H19.6488V5.95767H20.2858ZM19.9673 3.74048H23.9827V3.10354H19.9673V3.74048ZM23.6643 3.42201V5.95767H24.3012V3.42201H23.6643ZM23.6643 5.95767C23.6643 6.39615 23.4477 6.80631 23.0858 7.0537L23.4453 7.57951C23.9806 7.21349 24.3012 6.60663 24.3012 5.95767H23.6643ZM21.9748 8.19897C21.6611 8.25359 21.6611 8.25344 21.661 8.25329C21.661 8.25326 21.661 8.25312 21.661 8.25305C21.661 8.2529 21.6609 8.25277 21.6609 8.25268C21.6609 8.25249 21.6609 8.25242 21.6609 8.25246C21.6609 8.25254 21.661 8.25306 21.6611 8.25402C21.6614 8.25594 21.662 8.25957 21.6627 8.26482C21.6642 8.27532 21.6663 8.29218 21.6685 8.31448C21.673 8.35922 21.6776 8.42499 21.6775 8.50456C21.6773 8.66594 21.6579 8.87229 21.5876 9.07236C21.5184 9.26965 21.4023 9.45425 21.2097 9.59164C21.0173 9.72887 20.7215 9.83835 20.2587 9.83835V10.4753C20.8244 10.4753 21.2573 10.34 21.5796 10.1102C21.9016 9.88047 22.086 9.5756 22.1886 9.28343C22.2902 8.99404 22.3142 8.71093 22.3144 8.50521C22.3145 8.40123 22.3086 8.31404 22.3024 8.25171C22.2993 8.22047 22.2961 8.19527 22.2936 8.17709C22.2923 8.168 22.2912 8.16065 22.2904 8.15515C22.2899 8.1524 22.2896 8.15012 22.2893 8.14832C22.2891 8.14742 22.289 8.14663 22.2889 8.14597C22.2888 8.14564 22.2888 8.14534 22.2887 8.14507C22.2887 8.14494 22.2887 8.14476 22.2886 8.14469C22.2886 8.14452 22.2886 8.14435 21.9748 8.19897ZM21.6564 2.43506V4.76455H22.2933V2.43506H21.6564Z" fill="#43BEBB"/>
</svg>
