<svg width="38" height="38" viewBox="0 0 38 38" fill="none" xmlns="http://www.w3.org/2000/svg">
<path d="M9.96419 7.85662V5.93072C9.96419 5.46365 9.58562 5.08472 9.11819 5.08472H7.73242" stroke="#002D4F" stroke-width="0.734375" stroke-miterlimit="10" stroke-linejoin="round"/>
<path d="M20.4035 12.8244H15.0756C14.5586 12.8244 14.1397 13.2434 14.1397 13.7604V14.1922H21.3391V13.7604C21.3395 13.2434 20.9201 12.8244 20.4035 12.8244ZM6.97619 5.84087H4.88836C4.47087 5.84087 4.13232 5.50233 4.13232 5.08484C4.13232 4.66734 4.47087 4.3288 4.88836 4.3288H6.97619C7.39368 4.3288 7.73223 4.66734 7.73223 5.08484C7.73223 5.50233 7.39368 5.84087 6.97619 5.84087ZM29.5586 24.6761V28.5125C29.3816 28.471 29.1965 28.449 29.0067 28.449C28.8253 28.449 28.6487 28.4692 28.4787 28.507V24.7665C28.4787 24.0655 27.9107 23.4975 27.2097 23.4975H26.3604V22.4176H27.2997C28.547 22.4176 29.5586 23.4292 29.5586 24.6761Z" stroke="#002D4F" stroke-width="0.734375" stroke-miterlimit="10" stroke-linejoin="round"/>
<path d="M26.3608 20.7255V23.4974H21.4908C21.4405 23.0795 21.3597 22.6708 21.2521 22.2735C21.1515 21.903 21.0274 21.5425 20.8805 21.1936C20.6687 20.6876 20.4098 20.2059 20.1098 19.7539C20.0287 19.632 19.9449 19.5115 19.8579 19.394H25.0286C25.7641 19.3937 26.3608 19.99 26.3608 20.7255Z" stroke="#002D4F" stroke-width="0.734375" stroke-miterlimit="10" stroke-linejoin="round"/>
<path d="M12.6279 14.1921H21.7775C22.9272 14.1921 23.8595 15.124 23.8595 16.2741V23.8807M12.6279 7.74872V15.8511C12.5075 15.854 12.3871 15.8595 12.2681 15.8672C11.9016 15.8911 11.5411 15.9374 11.1882 16.0053C10.7689 16.0861 10.3598 16.197 9.96436 16.3354V6.41656H11.2961C12.0313 6.41656 12.6279 7.01324 12.6279 7.74872Z" stroke="#002D4F" stroke-width="0.734375" stroke-miterlimit="10" stroke-linejoin="round"/>
<path d="M33.4679 30.07C33.4679 30.3682 33.226 30.6102 32.9278 30.6102H31.4047C31.3974 30.54 31.3875 30.471 31.3746 30.4034C31.3137 30.0855 31.1906 29.7902 31.0181 29.5303H32.9278C33.226 29.5303 33.4679 29.7723 33.4679 30.07Z" stroke="#002D4F" stroke-width="0.734375" stroke-miterlimit="10" stroke-linejoin="round"/>
<path d="M29.3779 30.8602C29.3779 30.9627 29.3365 31.0556 29.2693 31.1224C29.2021 31.1896 29.1095 31.2311 29.0071 31.2311C28.9046 31.2311 28.8117 31.1896 28.7449 31.1224C28.6777 31.0552 28.6362 30.9627 28.6362 30.8602C28.6362 30.7578 28.6777 30.6649 28.7449 30.5977C28.7938 30.5489 28.8562 30.5136 28.9259 30.4978C28.952 30.492 28.9792 30.489 29.0071 30.489C29.0365 30.489 29.0647 30.4923 29.0919 30.4989C29.1602 30.5151 29.2212 30.55 29.2693 30.5977C29.27 30.5984 29.2707 30.5992 29.2715 30.5999C29.2884 30.6168 29.3034 30.6355 29.3166 30.6553C29.3405 30.6913 29.3581 30.7317 29.3684 30.7754C29.3695 30.7802 29.3706 30.785 29.3717 30.7897C29.3735 30.8 29.3754 30.8107 29.3765 30.8217C29.3772 30.8342 29.3779 30.847 29.3779 30.8602Z" stroke="#CAD8DD" stroke-width="0.734375" stroke-miterlimit="10" stroke-linejoin="round"/>
<path d="M33.4676 7.43557V9.93905H30.3609V13.0458H27.857V9.93905H24.751V7.43557H27.857V4.3288H30.3609V7.43557H33.4676Z" stroke="#002D4F" stroke-width="0.734375" stroke-miterlimit="10" stroke-linejoin="round"/>
<path d="M21.5551 25.0656V25.0822C21.5459 29.6059 17.8759 33.2712 13.3496 33.2712C8.81739 33.2712 5.14404 29.5975 5.14404 25.0656C5.14404 22.5493 6.27682 20.2974 8.06025 18.7922C8.53686 18.3902 9.05973 18.0417 9.62006 17.7553C9.81871 17.6536 10.0225 17.5596 10.2303 17.474C10.3643 17.4186 10.4998 17.3672 10.6372 17.3191C11.0099 17.1884 11.395 17.0841 11.7901 17.0081C12.1224 16.9438 12.4621 16.9001 12.8072 16.8777C12.9196 16.8704 13.0327 16.8652 13.1462 16.8623C13.2137 16.8605 13.2813 16.8597 13.3496 16.8597C16.0594 16.8597 18.4623 18.1735 19.9564 20.1993C20.0383 20.3102 20.1176 20.4233 20.1936 20.5382C20.476 20.9642 20.7198 21.4176 20.9195 21.8946C21.0579 22.2232 21.1747 22.5629 21.2695 22.9117C21.3708 23.2859 21.4468 23.6711 21.4942 24.0647C21.5346 24.393 21.5551 24.7267 21.5551 25.0656Z" fill="#43BEBB"/>
<path d="M12.8441 31.0303C16.4177 31.0303 19.3147 28.1333 19.3147 24.5597C19.3147 20.9861 16.4177 18.0891 12.8441 18.0891C9.27051 18.0891 6.37354 20.9861 6.37354 24.5597C6.37354 28.1333 9.27051 31.0303 12.8441 31.0303Z" stroke="#002D4F" stroke-width="0.734375" stroke-miterlimit="10" stroke-linejoin="round"/>
<path d="M14.4478 26.1639C14.0373 26.5748 13.47 26.8285 12.8436 26.8285C12.2171 26.8285 11.6498 26.5748 11.2393 26.1639C10.8288 25.7538 10.5747 25.1865 10.5747 24.5597C10.5747 23.9333 10.8284 23.366 11.2389 22.9554" stroke="white" stroke-width="0.734375" stroke-miterlimit="10" stroke-linejoin="round"/>
<path d="M21.5554 24.5597V24.5773C21.5458 29.3801 17.6492 33.2712 12.8438 33.2712C8.03222 33.2712 4.13232 29.3709 4.13232 24.5597C4.13232 21.8884 5.33486 19.4973 7.22808 17.8993C7.73407 17.4722 8.28925 17.1021 8.8841 16.7984C9.09486 16.6905 9.3115 16.5906 9.53218 16.4999C9.67429 16.4412 9.81822 16.3864 9.964 16.3354C10.3595 16.197 10.7685 16.0861 11.1878 16.0053C11.5407 15.9374 11.9013 15.8907 12.2677 15.8672C12.3871 15.8592 12.5071 15.854 12.6276 15.8511C12.6992 15.8492 12.7711 15.8481 12.8435 15.8481C15.7204 15.8481 18.2716 17.2431 19.8575 19.3937C19.9445 19.5116 20.0286 19.6316 20.1094 19.7536C20.4094 20.2056 20.6682 20.6873 20.8801 21.1933C21.027 21.5421 21.1511 21.9027 21.2517 22.2732C21.3593 22.6705 21.4401 23.0792 21.4904 23.497C21.5337 23.8455 21.5554 24.1998 21.5554 24.5597ZM31.4177 30.8602C31.4177 31.5259 31.1481 32.1285 30.7116 32.5647C30.2757 33.0013 29.6728 33.2708 29.0071 33.2708C28.3414 33.2708 27.7384 33.0013 27.3026 32.5647C26.8664 32.1289 26.5965 31.5263 26.5965 30.8602C26.5965 30.1942 26.866 29.5916 27.3022 29.1554H27.3026C27.6198 28.8378 28.0252 28.6086 28.4791 28.5069C28.6491 28.4691 28.8257 28.4489 29.0071 28.4489C29.1969 28.4489 29.382 28.4709 29.559 28.5124C30.0033 28.6164 30.3998 28.8433 30.7116 29.1554C30.7167 29.1605 30.7211 29.1649 30.7259 29.1701C30.8346 29.2802 30.9326 29.4007 31.0182 29.5299C31.1735 29.7642 31.2884 30.0271 31.3541 30.3091C31.3615 30.3399 31.3685 30.3711 31.3747 30.4031C31.3876 30.4703 31.3978 30.5397 31.4048 30.6098C31.4133 30.6921 31.4177 30.7758 31.4177 30.8602Z" stroke="#002D4F" stroke-width="0.734375" stroke-miterlimit="10" stroke-linejoin="round"/>
<path d="M13.2149 24.5597C13.2149 24.6621 13.1734 24.755 13.1062 24.8219C13.039 24.8891 12.9464 24.9306 12.844 24.9306C12.7416 24.9306 12.6487 24.8891 12.5818 24.8219C12.5146 24.7547 12.4731 24.6621 12.4731 24.5597C12.4731 24.4573 12.5146 24.3644 12.5818 24.2972C12.6307 24.2483 12.6931 24.2131 12.7629 24.1973C12.7889 24.1914 12.8161 24.1885 12.844 24.1885C12.8734 24.1885 12.9017 24.1918 12.9288 24.1984C12.9971 24.2145 13.0581 24.2494 13.1062 24.2972C13.1069 24.2979 13.1076 24.2986 13.1084 24.2994C13.1253 24.3163 13.1403 24.335 13.1535 24.3548C13.1774 24.3908 13.195 24.4312 13.2053 24.4749C13.2064 24.4797 13.2075 24.4844 13.2086 24.4892C13.2105 24.4995 13.2123 24.5101 13.2134 24.5211C13.2145 24.5336 13.2149 24.5465 13.2149 24.5597Z" stroke="#002D4F" stroke-width="0.734375" stroke-miterlimit="10" stroke-linejoin="round"/>
</svg>
