<svg width="48" height="48" viewBox="0 0 48 48" fill="none" xmlns="http://www.w3.org/2000/svg">
<rect x="0.25" y="0.25" width="47.5" height="47.5" rx="7.75" fill="white" stroke="#43BEBB" stroke-width="0.5"/>
<path d="M34.359 20.1547L33.373 21.7423L28.6138 18.7795L29.5997 17.1919L34.359 20.1547Z" stroke="#43BEBB" stroke-opacity="0.5" stroke-width="0.8125" stroke-miterlimit="10" stroke-linejoin="round"/>
<path d="M19.3862 18.7795L14.627 21.7419L14.6266 21.7423L14.4243 21.4165L13.6406 20.1547L18.3986 17.1927L18.4002 17.1919L19.2578 18.5727L19.3862 18.7795Z" stroke="#43BEBB" stroke-opacity="0.5" stroke-width="0.8125" stroke-miterlimit="10" stroke-linejoin="round"/>
<path d="M36.2881 33.3191H38.5842" stroke="#43BEBB" stroke-opacity="0.5" stroke-width="0.8125" stroke-miterlimit="10" stroke-linejoin="round"/>
<path d="M34.8115 31.0489L36.4353 29.4255" stroke="#43BEBB" stroke-opacity="0.5" stroke-width="0.8125" stroke-miterlimit="10" stroke-linejoin="round"/>
<path d="M34.8115 35.5892L36.4353 37.213" stroke="#43BEBB" stroke-opacity="0.5" stroke-width="0.8125" stroke-miterlimit="10" stroke-linejoin="round"/>
<path d="M40.2312 16.8725L39.3634 17.6346C39.1278 17.8418 38.7926 17.8946 38.5046 17.7695L38.3051 17.683L37.4028 17.2922C37.1887 17.1995 36.9767 17.1033 36.7658 17.0041C35.2542 16.2912 33.8295 15.4063 32.5201 14.3672C32.3377 14.2221 32.1573 14.0747 31.9794 13.9239L31.2291 13.2882L31.0633 13.1476C30.8236 12.9445 30.7221 12.6211 30.8037 12.318L31.1023 11.2025C31.2031 10.8271 31.6572 10.6804 31.9583 10.9262L33.5248 12.2035C34.971 13.3824 36.5627 14.3712 38.2608 15.1447L40.0999 15.9828C40.4534 16.1437 40.5232 16.6158 40.2312 16.8725ZM18.071 13.3727L17.9167 13.5035L17.2183 14.095C17.053 14.2351 16.8848 14.3728 16.715 14.5077C15.4962 15.475 14.1706 16.2985 12.7634 16.9619C12.5672 17.0541 12.3697 17.1439 12.1702 17.23L11.3305 17.5936L11.1449 17.6736C10.8767 17.7898 10.5647 17.7411 10.3454 17.5481L9.53775 16.8392C9.26597 16.6007 9.33097 16.1612 9.66044 16.0108L11.3724 15.2313C12.9531 14.5114 14.4347 13.5908 15.7806 12.4935L17.239 11.3044C17.5193 11.0757 17.9418 11.2122 18.0357 11.5616L18.3136 12.6C18.3887 12.8827 18.2945 13.1838 18.071 13.3727Z" fill="#43BEBB"/>
<path d="M22.9013 31.5247L24.0002 33.3L23.3831 34.2969L22.5897 33.8041L21.7959 33.3109L22.9013 31.5247Z" stroke="#002D4F" stroke-width="0.8125" stroke-miterlimit="10" stroke-linejoin="round"/>
<path d="M38.1546 17.5973L33.6257 24.8716C33.126 25.6756 32.4126 26.3244 31.5648 26.7453L26.5013 29.2583L25.0989 31.5248L24 29.7495L24.9141 28.2724L24.9222 22.6198C24.9238 21.6732 25.1887 20.7462 25.688 19.9418L30.2172 12.6675L31.0586 13.3804C31.2585 13.5494 31.4608 13.7152 31.6651 13.8777L29.601 17.1927L28.7417 18.5727L27.2906 20.9034C26.9648 21.4283 26.7913 22.0336 26.7909 22.6515L26.7844 27.0317L30.708 25.0845C31.2613 24.8099 31.7273 24.3862 32.0531 23.8613L33.3726 21.7419L33.5753 21.4165L36.4276 16.8356C36.664 16.9469 36.9021 17.055 37.1422 17.159L38.1546 17.5973Z" stroke="#002D4F" stroke-width="0.8125" stroke-miterlimit="10" stroke-linejoin="round"/>
<path d="M20.1536 39.4966L18.5664 38.5106L17.1807 39.8179L19.5962 41.3182L20.1536 39.4966Z" stroke="#002D4F" stroke-width="0.8125" stroke-miterlimit="10" stroke-linejoin="round"/>
<path d="M22.5896 33.8038L19.3604 39.0038" stroke="#002D4F" stroke-width="0.8125" stroke-miterlimit="10" stroke-linejoin="round"/>
<path d="M26.2041 33.3111L25.4103 33.8039L24.6165 34.297L23.9998 33.3001L22.9009 31.5248L21.4981 29.2583L16.435 26.7453C15.5872 26.3244 14.8734 25.6756 14.3741 24.8716L9.84521 17.5973L10.8572 17.159C11.0973 17.055 11.3353 16.9469 11.5718 16.8356L14.4241 21.4165L14.6264 21.7423L14.6268 21.7419L15.9463 23.8613C16.2725 24.3862 16.7381 24.8099 17.2918 25.0845L21.2149 27.0317L21.2088 22.6515C21.208 22.0336 21.035 21.4283 20.7087 20.9034L19.2576 18.5727L18.4 17.1919L18.3984 17.1927L16.3342 13.8777C16.539 13.7152 16.7413 13.5494 16.9408 13.3804L17.7825 12.6675L22.3114 19.9418C22.8111 20.7462 23.076 21.6732 23.0776 22.6198L23.0857 28.2724L23.9998 29.7495L25.0987 31.5248L26.2041 33.3111Z" stroke="#002D4F" stroke-width="0.8125" stroke-miterlimit="10" stroke-linejoin="round"/>
<path d="M14.4243 21.4165L14.627 21.7419L14.6266 21.7423L14.4243 21.4165Z" stroke="#002D4F" stroke-width="0.8125" stroke-miterlimit="10" stroke-linejoin="round"/>
<path d="M19.2577 18.5727L18.3984 17.1927L18.4001 17.1919L19.2577 18.5727Z" stroke="#002D4F" stroke-width="0.8125" stroke-miterlimit="10" stroke-linejoin="round"/>
<path d="M27.8462 39.4966L29.4338 38.5106L30.8195 39.8179L28.404 41.3182L27.8462 39.4966Z" stroke="#002D4F" stroke-width="0.8125" stroke-miterlimit="10" stroke-linejoin="round"/>
<path d="M25.4106 33.8038L28.6399 39.0038" stroke="#002D4F" stroke-width="0.8125" stroke-miterlimit="10" stroke-linejoin="round"/>
<path d="M9.35153 30.087L7.88623 31.5524L9.65292 33.319L11.1182 31.8536L9.35153 30.087Z" stroke="#43BEBB" stroke-opacity="0.5" stroke-width="0.8125" stroke-miterlimit="10" stroke-linejoin="round"/>
<path d="M12.584 33.319L11.1187 34.7844L12.8853 36.551L14.3506 35.0856L12.584 33.319Z" stroke="#43BEBB" stroke-opacity="0.5" stroke-width="0.8125" stroke-miterlimit="10" stroke-linejoin="round"/>
<path d="M14.3505 31.5524L12.5837 33.3192L9.35157 36.5513L7.88623 35.0859L12.8851 30.087L14.3505 31.5524Z" stroke="#43BEBB" stroke-opacity="0.5" stroke-width="0.8125" stroke-miterlimit="10" stroke-linejoin="round"/>
<path d="M40.3156 16.6877L39.3422 17.5429C39.0777 17.7757 38.7019 17.8346 38.3786 17.6944L38.1547 17.5973L37.1423 17.159C36.9022 17.055 36.6642 16.9473 36.4277 16.8356C34.7317 16.0357 33.1339 15.0432 31.6653 13.8777C31.4605 13.7152 31.2586 13.5495 31.0587 13.3805L30.217 12.6675L30.0309 12.5099C29.762 12.282 29.6482 11.9192 29.7397 11.5791L30.0744 10.3275C30.1873 9.90621 30.6968 9.74168 31.0344 10.0175L32.7914 11.4504C34.4136 12.7731 36.1994 13.8822 38.1039 14.7499L40.1673 15.69C40.5646 15.8704 40.643 16.4001 40.3156 16.6877ZM17.969 12.5099L17.7829 12.6675L16.9412 13.3805C16.7417 13.5495 16.5394 13.7152 16.3346 13.8777C14.866 15.0432 13.2682 16.0357 11.5722 16.8356C11.3357 16.9469 11.0977 17.055 10.8576 17.159L9.84559 17.5973L9.62175 17.694C9.29837 17.8342 8.92259 17.7753 8.65812 17.5429L7.68475 16.6877C7.35731 16.4001 7.43571 15.8704 7.83262 15.6896L9.89556 14.7499C11.8005 13.8822 13.5859 12.7731 15.2081 11.4504L16.9655 10.0175C17.3031 9.74168 17.8126 9.90661 17.9255 10.3275L18.2602 11.5791C18.3517 11.9192 18.2379 12.282 17.969 12.5099Z" stroke="#002D4F" stroke-width="0.8125" stroke-miterlimit="10" stroke-linejoin="round"/>
</svg>
