<svg width="31" height="31" viewBox="0 0 31 31" fill="none" xmlns="http://www.w3.org/2000/svg">
<path d="M23.2197 11.4422L22.485 12.6253L18.9385 10.4175L19.6732 9.23438L23.2197 11.4422Z" stroke="#43BEBB" stroke-opacity="0.5" stroke-width="0.605469" stroke-miterlimit="10" stroke-linejoin="round"/>
<path d="M12.0618 10.4175L8.51531 12.625L8.51501 12.6253L8.36425 12.3825L7.78027 11.4422L11.3259 9.23498L11.3271 9.23438L11.9662 10.2634L12.0618 10.4175Z" stroke="#43BEBB" stroke-opacity="0.5" stroke-width="0.605469" stroke-miterlimit="10" stroke-linejoin="round"/>
<path d="M24.6572 21.2523H26.3683" stroke="#43BEBB" stroke-opacity="0.5" stroke-width="0.605469" stroke-miterlimit="10" stroke-linejoin="round"/>
<path d="M23.5566 19.5606L24.7667 18.3508" stroke="#43BEBB" stroke-opacity="0.5" stroke-width="0.605469" stroke-miterlimit="10" stroke-linejoin="round"/>
<path d="M23.5566 22.944L24.7667 24.154" stroke="#43BEBB" stroke-opacity="0.5" stroke-width="0.605469" stroke-miterlimit="10" stroke-linejoin="round"/>
<path d="M27.5946 8.9963L26.9479 9.56423C26.7723 9.71862 26.5226 9.75798 26.3079 9.66474L26.1593 9.60026L25.4869 9.30902C25.3274 9.24 25.1694 9.16825 25.0122 9.09439C23.8858 8.56309 22.8241 7.90373 21.8484 7.12934C21.7124 7.02126 21.578 6.91137 21.4454 6.79905L20.8863 6.32527L20.7628 6.22053C20.5841 6.06916 20.5085 5.82818 20.5693 5.60234L20.7918 4.77104C20.8669 4.49131 21.2054 4.38202 21.4297 4.56518L22.597 5.51697C23.6748 6.39551 24.8609 7.13236 26.1263 7.70877L27.4968 8.33331C27.7602 8.45319 27.8122 8.80497 27.5946 8.9963ZM11.081 6.38824L10.966 6.48572L10.4456 6.92651C10.3224 7.03095 10.197 7.13358 10.0705 7.23408C9.16228 7.95489 8.17446 8.56854 7.12579 9.0629C6.97957 9.13162 6.83244 9.19853 6.68379 9.26271L6.05804 9.53365L5.91969 9.59329C5.71989 9.67987 5.48739 9.64355 5.32391 9.49975L4.72208 8.97148C4.51955 8.79377 4.56798 8.46621 4.8135 8.3542L6.08922 7.77325C7.26716 7.23681 8.37124 6.55081 9.37419 5.73313L10.461 4.84702C10.6699 4.67658 10.9847 4.7783 11.0547 5.03865L11.2617 5.81244C11.3177 6.02315 11.2475 6.24747 11.081 6.38824Z" fill="#43BEBB"/>
<path d="M14.6812 19.915L15.5001 21.238L15.0402 21.9809L14.449 21.6137L13.8574 21.2462L14.6812 19.915Z" stroke="#002D4F" stroke-width="0.605469" stroke-miterlimit="10" stroke-linejoin="round"/>
<path d="M26.0479 9.53648L22.673 14.9572C22.3006 15.5563 21.769 16.0398 21.1372 16.3534L17.3639 18.2262L16.3189 19.9151L15.5 18.5922L16.1812 17.4914L16.1872 13.2792C16.1884 12.5738 16.3858 11.883 16.7579 11.2836L20.133 5.86279L20.76 6.39409C20.909 6.52003 21.0597 6.64354 21.212 6.76464L19.6738 9.23495L19.0335 10.2633L17.9521 12.0001C17.7094 12.3913 17.5801 12.8423 17.5798 13.3028L17.5749 16.5669L20.4987 15.1159C20.9111 14.9112 21.2583 14.5955 21.5011 14.2043L22.4844 12.625L22.6354 12.3825L24.7609 8.96885C24.9371 9.0518 25.1145 9.13232 25.2935 9.20982L26.0479 9.53648Z" stroke="#002D4F" stroke-width="0.605469" stroke-miterlimit="10" stroke-linejoin="round"/>
<path d="M12.6334 25.8557L11.4506 25.121L10.418 26.0952L12.218 27.2132L12.6334 25.8557Z" stroke="#002D4F" stroke-width="0.605469" stroke-miterlimit="10" stroke-linejoin="round"/>
<path d="M14.4484 21.6134L12.042 25.4884" stroke="#002D4F" stroke-width="0.605469" stroke-miterlimit="10" stroke-linejoin="round"/>
<path d="M17.1427 21.2462L16.5511 21.6135L15.9596 21.981L15.5 21.2381L14.6811 19.9151L13.6358 18.2262L9.8628 16.3534C9.231 16.0398 8.69909 15.5563 8.32703 14.9572L4.95215 9.53647L5.70626 9.20982C5.88518 9.13232 6.06258 9.0518 6.23877 8.96885L8.36427 12.3825L8.51503 12.6253L8.51533 12.625L9.49861 14.2043C9.74171 14.5955 10.0886 14.9112 10.5013 15.1159L13.4248 16.5669L13.4202 13.3028C13.4196 12.8423 13.2907 12.3913 13.0476 12.0001L11.9662 10.2633L11.3271 9.23435L11.3259 9.23495L9.78773 6.76464C9.9403 6.64354 10.0911 6.52003 10.2397 6.39409L10.867 5.86279L14.2419 11.2836C14.6142 11.883 14.8116 12.5738 14.8128 13.2792L14.8189 17.4914L15.5 18.5922L16.3189 19.9151L17.1427 21.2462Z" stroke="#002D4F" stroke-width="0.605469" stroke-miterlimit="10" stroke-linejoin="round"/>
<path d="M8.36426 12.3825L8.51532 12.625L8.51502 12.6253L8.36426 12.3825Z" stroke="#002D4F" stroke-width="0.605469" stroke-miterlimit="10" stroke-linejoin="round"/>
<path d="M11.9665 10.2634L11.3262 9.23498L11.3274 9.23438L11.9665 10.2634Z" stroke="#002D4F" stroke-width="0.605469" stroke-miterlimit="10" stroke-linejoin="round"/>
<path d="M18.3662 25.8557L19.5493 25.121L20.5819 26.0952L18.7819 27.2132L18.3662 25.8557Z" stroke="#002D4F" stroke-width="0.605469" stroke-miterlimit="10" stroke-linejoin="round"/>
<path d="M16.5508 21.6134L18.9572 25.4884" stroke="#002D4F" stroke-width="0.605469" stroke-miterlimit="10" stroke-linejoin="round"/>
<path d="M4.58412 18.8437L3.49219 19.9357L4.80871 21.2521L5.90064 20.1602L4.58412 18.8437Z" stroke="#43BEBB" stroke-opacity="0.5" stroke-width="0.605469" stroke-miterlimit="10" stroke-linejoin="round"/>
<path d="M6.99232 21.2521L5.90039 22.3441L7.21692 23.6606L8.30885 22.5686L6.99232 21.2521Z" stroke="#43BEBB" stroke-opacity="0.5" stroke-width="0.605469" stroke-miterlimit="10" stroke-linejoin="round"/>
<path d="M8.3093 19.9357L6.99271 21.2522L4.58415 23.6608L3.49219 22.5688L7.21733 18.8437L8.3093 19.9357Z" stroke="#43BEBB" stroke-opacity="0.5" stroke-width="0.605469" stroke-miterlimit="10" stroke-linejoin="round"/>
<path d="M27.6579 8.85859L26.9326 9.49584C26.7355 9.66931 26.4554 9.71321 26.2145 9.60876L26.0477 9.53641L25.2933 9.20976C25.1143 9.13226 24.9369 9.05203 24.7607 8.96878C23.4968 8.3727 22.3062 7.63312 21.2118 6.76457C21.0592 6.64348 20.9087 6.51996 20.7598 6.39403L20.1325 5.86273L19.9939 5.74527C19.7935 5.57543 19.7087 5.30509 19.7768 5.0517L20.0263 4.11898C20.1104 3.80504 20.4901 3.68243 20.7416 3.88799L22.051 4.95573C23.2598 5.94144 24.5906 6.7679 26.0098 7.41454L27.5474 8.11507C27.8435 8.24948 27.9019 8.64425 27.6579 8.85859ZM11.0054 5.74527L10.8667 5.86273L10.2395 6.39403C10.0908 6.51996 9.94008 6.64348 9.7875 6.76457C8.69311 7.63312 7.50246 8.3727 6.23854 8.96878C6.06235 9.05173 5.88495 9.13226 5.70603 9.20976L4.95192 9.53641L4.78512 9.60846C4.54414 9.7129 4.26411 9.66901 4.06703 9.49584L3.34168 8.85859C3.09768 8.64425 3.1561 8.24948 3.45187 8.11477L4.98916 7.41454C6.40868 6.7679 7.7392 5.94144 8.94802 4.95573L10.2576 3.88799C10.5092 3.68243 10.8888 3.80534 10.973 4.11898L11.2225 5.0517C11.2906 5.30509 11.2058 5.57543 11.0054 5.74527Z" stroke="#002D4F" stroke-width="0.605469" stroke-miterlimit="10" stroke-linejoin="round"/>
</svg>
