<svg width="32" height="32" viewBox="0 0 32 32" fill="none" xmlns="http://www.w3.org/2000/svg">
<path d="M30.752 14.51C29.9768 13.456 28.7301 12.7718 27.3239 12.7718C25.9056 12.7718 24.6498 13.467 23.8757 14.5368C23.102 13.467 21.8458 12.7718 20.4278 12.7718C19.3628 12.7718 18.3888 13.1644 17.6422 13.8133C17.5857 13.8625 17.5303 13.9131 17.4767 13.9652C17.2948 14.1402 17.1286 14.3314 16.98 14.5368C16.8314 14.3314 16.6648 14.1402 16.4832 13.9652C16.4297 13.9131 16.3743 13.8625 16.3178 13.8133C15.5708 13.1644 14.5972 12.7718 13.5318 12.7718C12.1138 12.7718 10.8573 13.467 10.0839 14.5368C9.30944 13.467 8.05364 12.7718 6.63605 12.7718C5.22947 12.7718 3.98284 13.456 3.20801 14.51C4.27927 8.24277 9.69539 3.41879 16.3182 3.11575C16.3732 3.11318 16.4286 3.11061 16.4836 3.10915C16.6487 3.10328 16.8142 3.10034 16.9804 3.10034C17.1465 3.10034 17.3124 3.10291 17.4771 3.10915C17.5325 3.11098 17.5879 3.11318 17.6426 3.11575C24.2642 3.41879 29.6803 8.24277 30.752 14.51Z" fill="#43BEBB"/>
<path d="M15.8765 14.5368V2.229" stroke="white" stroke-width="0.733742" stroke-miterlimit="10" stroke-linejoin="round"/>
<path d="M26.5181 24.4262H24.4097L23.4966 22.4803L22.1388 25.3995L20.4108 20.9608L18.7075 24.4262H16.165" stroke="#43BEBB" stroke-opacity="0.5" stroke-width="0.733742" stroke-miterlimit="10" stroke-linejoin="round"/>
<path d="M8.42822 14.5372C9.02732 7.56881 12.1494 2.229 15.8948 2.229C19.6402 2.229 22.7267 7.56881 23.3254 14.5372" stroke="white" stroke-width="0.733742" stroke-miterlimit="10" stroke-linejoin="round"/>
<path d="M30.7523 14.5078C29.9147 13.3735 28.5683 12.6372 27.0494 12.6372C25.5178 12.6372 24.1611 13.3856 23.325 14.5368C22.4892 13.3856 21.1325 12.6372 19.6009 12.6372C18.4504 12.6372 17.3985 13.0598 16.5921 13.758C16.5309 13.8108 16.4711 13.8655 16.4131 13.9216C16.2168 14.1102 16.0371 14.316 15.8764 14.5368C15.7157 14.3156 15.5363 14.1102 15.3396 13.9216C15.2817 13.8655 15.2219 13.8112 15.1606 13.758C14.3539 13.0598 13.3024 12.6372 12.1515 12.6372C10.6202 12.6372 9.26279 13.3856 8.42743 14.5368C7.59096 13.3856 6.23464 12.6372 4.70332 12.6372C3.18411 12.6372 1.83769 13.3735 1.00049 14.5078C2.1576 7.76292 8.00736 2.57169 15.1606 2.24518C15.22 2.24224 15.2798 2.23967 15.3396 2.23784C15.5179 2.23124 15.6966 2.22867 15.8764 2.22867C16.0561 2.22867 16.2348 2.2316 16.4131 2.23784C16.4729 2.23967 16.5327 2.24224 16.5921 2.24518C23.745 2.57169 29.5948 7.76329 30.7523 14.5078Z" stroke="#002D4F" stroke-width="0.733742" stroke-miterlimit="10" stroke-linejoin="round"/>
<path d="M16.413 1.53673V2.23819C16.2347 2.23159 16.056 2.22902 15.8762 2.22902C15.6965 2.22902 15.5178 2.23195 15.3395 2.23819V1.53673C15.3395 1.2403 15.5798 1 15.8762 1C16.1727 1 16.413 1.2403 16.413 1.53673ZM16.413 13.9216V17.3628C16.1316 17.5327 15.866 17.7389 15.6235 17.9814C15.5596 18.0452 15.498 18.1109 15.44 18.178C15.4055 18.2169 15.3725 18.2569 15.3399 18.2969V13.9216C15.5361 14.1101 15.7159 14.316 15.8766 14.5368C16.0369 14.316 16.2167 14.1101 16.413 13.9216ZM15.6235 23.8774L16.413 24.6669V29.1009C16.413 30.3585 15.4055 31.4026 14.1479 31.4063C13.518 31.4081 12.9479 31.1535 12.5351 30.7408C12.1242 30.3299 11.8696 29.762 11.8696 29.1346V28.818C11.8696 28.5216 12.1099 28.2813 12.4064 28.2813C12.7028 28.2813 12.9431 28.5216 12.9431 28.818V29.1104C12.9431 29.7656 13.4589 30.3181 14.1141 30.3325C14.4557 30.3402 14.7657 30.2044 14.9888 29.9817C15.2056 29.7645 15.3399 29.4652 15.3399 29.1343V23.5637C15.4283 23.6715 15.5226 23.7765 15.6235 23.8774Z" stroke="#002D4F" stroke-width="0.733742" stroke-miterlimit="10" stroke-linejoin="round"/>
<path d="M29.5362 23.8774L22.5799 30.834L17.932 26.1857L15.6237 23.8774C15.5228 23.7765 15.4285 23.6715 15.3401 23.5637C14.0971 22.0386 14.0967 19.822 15.3401 18.2969C15.3727 18.2569 15.4057 18.2173 15.4402 18.178C15.4982 18.1109 15.5602 18.0448 15.6237 17.9814C15.8662 17.7389 16.1318 17.5327 16.4132 17.3628C16.885 17.0781 17.4023 16.8954 17.932 16.814C18.1437 16.781 18.3576 16.7648 18.5715 16.7648C19.6398 16.7648 20.7089 17.1706 21.5197 17.981L22.5795 19.0413L23.6398 17.981C25.2614 16.3598 27.9146 16.3598 29.5358 17.981C31.1577 19.6029 31.1577 22.2562 29.5362 23.8774Z" stroke="#002D4F" stroke-width="0.733742" stroke-miterlimit="10" stroke-linejoin="round"/>
<path d="M4.92383 17.2584V18.7298" stroke="#002D4F" stroke-width="0.751352" stroke-miterlimit="10" stroke-linecap="round" stroke-linejoin="round"/>
<path d="M8.84766 17.2584V18.7298" stroke="#002D4F" stroke-width="0.751352" stroke-miterlimit="10" stroke-linecap="round" stroke-linejoin="round"/>
<path d="M2.7168 20.7358H11.0547" stroke="#002D4F" stroke-width="0.751352" stroke-miterlimit="10" stroke-linecap="round" stroke-linejoin="round"/>
<path d="M11.3001 20.4464V24.6154C11.3001 26.0868 10.5644 27.0677 8.84774 27.0677H4.92401C3.20738 27.0677 2.47168 26.0868 2.47168 24.6154V20.4464C2.47168 18.975 3.20738 17.9941 4.92401 17.9941H8.84774C10.5644 17.9941 11.3001 18.975 11.3001 20.4464Z" stroke="#002D4F" stroke-width="0.751352" stroke-miterlimit="10" stroke-linecap="round" stroke-linejoin="round"/>
<path d="M8.69762 22.9968H8.70202" stroke="#002D4F" stroke-width="0.751352" stroke-linecap="round" stroke-linejoin="round"/>
<path d="M8.69762 24.4683H8.70202" stroke="#002D4F" stroke-width="0.751352" stroke-linecap="round" stroke-linejoin="round"/>
<path d="M6.88365 22.9968H6.88806" stroke="#002D4F" stroke-width="0.751352" stroke-linecap="round" stroke-linejoin="round"/>
<path d="M6.88365 24.4683H6.88806" stroke="#002D4F" stroke-width="0.751352" stroke-linecap="round" stroke-linejoin="round"/>
<path d="M5.06822 22.9968H5.07263" stroke="#002D4F" stroke-width="0.751352" stroke-linecap="round" stroke-linejoin="round"/>
<path d="M5.06822 24.4683H5.07263" stroke="#002D4F" stroke-width="0.751352" stroke-linecap="round" stroke-linejoin="round"/>
</svg>
