<svg width="38" height="37" viewBox="0 0 38 37" fill="none" xmlns="http://www.w3.org/2000/svg">
    <path d="M28.1982 13.5266L27.3316 14.922L23.1487 12.318L24.0153 10.9226L28.1982 13.5266Z" stroke="#43BEBB" stroke-opacity="0.5" stroke-width="0.714111" stroke-miterlimit="10" stroke-linejoin="round"/>
    <path d="M15.0386 12.318L10.8557 14.9216L10.8553 14.922L10.6775 14.6356L9.98877 13.5266L14.1706 10.9233L14.172 10.9226L14.9258 12.1362L15.0386 12.318Z" stroke="#43BEBB" stroke-opacity="0.5" stroke-width="0.714111" stroke-miterlimit="10" stroke-linejoin="round"/>
    <path d="M29.894 25.0969H31.9121" stroke="#43BEBB" stroke-opacity="0.5" stroke-width="0.714111" stroke-miterlimit="10" stroke-linejoin="round"/>
    <path d="M28.5962 23.1016L30.0233 21.6748" stroke="#43BEBB" stroke-opacity="0.5" stroke-width="0.714111" stroke-miterlimit="10" stroke-linejoin="round"/>
    <path d="M28.5962 27.0922L30.0233 28.5193" stroke="#43BEBB" stroke-opacity="0.5" stroke-width="0.714111" stroke-miterlimit="10" stroke-linejoin="round"/>
    <path d="M33.3593 10.6418L32.5966 11.3117C32.3896 11.4937 32.095 11.5402 31.8418 11.4302L31.6665 11.3541L30.8735 11.0107C30.6853 10.9292 30.4989 10.8446 30.3136 10.7575C28.985 10.1309 27.7328 9.3532 26.582 8.43985C26.4217 8.31238 26.2632 8.18277 26.1068 8.0503L25.4473 7.49151L25.3016 7.36797C25.091 7.18944 25.0017 6.90523 25.0735 6.63886L25.3359 5.65839C25.4245 5.32847 25.8237 5.19957 26.0882 5.41559L27.465 6.53817C28.7362 7.57435 30.1351 8.44342 31.6276 9.12326L33.244 9.85986C33.5546 10.0013 33.616 10.4162 33.3593 10.6418ZM13.8826 7.56578L13.747 7.68075L13.1332 8.20063C12.9879 8.32381 12.84 8.44485 12.6908 8.56339C11.6196 9.41354 10.4546 10.1373 9.21771 10.7204C9.04525 10.8014 8.87173 10.8803 8.69641 10.956L7.95838 11.2756L7.7952 11.3459C7.55955 11.448 7.28533 11.4052 7.09252 11.2356L6.38269 10.6125C6.14382 10.4029 6.20095 10.0166 6.49052 9.8845L7.99515 9.19931C9.38446 8.56661 10.6866 7.75752 11.8696 6.79311L13.1514 5.74801C13.3978 5.54699 13.7691 5.66696 13.8516 5.97403L14.0958 6.88666C14.1619 7.13517 14.079 7.39975 13.8826 7.56578Z" fill="#43BEBB"/>
    <path d="M18.128 23.5198L19.0939 25.0801L18.5515 25.9563L17.8542 25.5232L17.1565 25.0897L18.128 23.5198Z" stroke="#002D4F" stroke-width="0.714111" stroke-miterlimit="10" stroke-linejoin="round"/>
    <path d="M31.5343 11.2789L27.5538 17.6724C27.1146 18.379 26.4877 18.9492 25.7425 19.3191L21.2921 21.5278L20.0596 23.5199L19.0938 21.9595L19.8971 20.6613L19.9043 15.6932C19.9057 14.8613 20.1385 14.0465 20.5773 13.3395L24.5581 6.94604L25.2976 7.57268C25.4733 7.72121 25.6511 7.86689 25.8307 8.00971L24.0165 10.9233L23.2613 12.1362L21.9859 14.1846C21.6995 14.646 21.5471 15.178 21.5467 15.721L21.541 19.5708L24.9895 17.8595C25.4758 17.6181 25.8853 17.2457 26.1717 16.7844L27.3314 14.9216L27.5096 14.6356L30.0164 10.6094C30.2242 10.7073 30.4335 10.8022 30.6445 10.8937L31.5343 11.2789Z" stroke="#002D4F" stroke-width="0.714111" stroke-miterlimit="10" stroke-linejoin="round"/>
    <path d="M15.7133 30.5264L14.3183 29.6598L13.1003 30.8088L15.2234 32.1274L15.7133 30.5264Z" stroke="#002D4F" stroke-width="0.714111" stroke-miterlimit="10" stroke-linejoin="round"/>
    <path d="M17.8541 25.5228L15.0159 30.0931" stroke="#002D4F" stroke-width="0.714111" stroke-miterlimit="10" stroke-linejoin="round"/>
    <path d="M21.031 25.0898L20.3333 25.5229L19.6356 25.9564L19.0936 25.0802L18.1278 23.5199L16.8949 21.5278L12.4449 19.3191C11.6997 18.9492 11.0724 18.379 10.6335 17.6724L6.65308 11.2789L7.5425 10.8937C7.75352 10.8022 7.96276 10.7073 8.17056 10.6094L10.6775 14.6356L10.8553 14.922L10.8556 14.9216L12.0153 16.7844C12.3021 17.2457 12.7112 17.6181 13.1979 17.8595L16.646 19.5708L16.6406 15.721C16.6399 15.178 16.4878 14.646 16.2011 14.1846L14.9257 12.1362L14.172 10.9226L14.1705 10.9233L12.3563 8.00971C12.5363 7.86689 12.7141 7.72121 12.8894 7.57268L13.6292 6.94604L17.6097 13.3395C18.0489 14.0465 18.2817 14.8613 18.2831 15.6932L18.2902 20.6613L19.0936 21.9595L20.0594 23.5199L21.031 25.0898Z" stroke="#002D4F" stroke-width="0.714111" stroke-miterlimit="10" stroke-linejoin="round"/>
    <path d="M10.6775 14.6356L10.8557 14.9216L10.8553 14.922L10.6775 14.6356Z" stroke="#002D4F" stroke-width="0.714111" stroke-miterlimit="10" stroke-linejoin="round"/>
    <path d="M14.9256 12.1362L14.1704 10.9233L14.1718 10.9226L14.9256 12.1362Z" stroke="#002D4F" stroke-width="0.714111" stroke-miterlimit="10" stroke-linejoin="round"/>
    <path d="M22.4741 30.5264L23.8695 29.6598L25.0874 30.8088L22.9644 32.1274L22.4741 30.5264Z" stroke="#002D4F" stroke-width="0.714111" stroke-miterlimit="10" stroke-linejoin="round"/>
    <path d="M20.3335 25.5228L23.1717 30.0931" stroke="#002D4F" stroke-width="0.714111" stroke-miterlimit="10" stroke-linejoin="round"/>
    <path d="M6.21926 22.2562L4.9314 23.5441L6.48415 25.0968L7.77201 23.8089L6.21926 22.2562Z" stroke="#43BEBB" stroke-opacity="0.5" stroke-width="0.714111" stroke-miterlimit="10" stroke-linejoin="round"/>
    <path d="M9.06032 25.0969L7.77246 26.3848L9.32522 27.9375L10.6131 26.6496L9.06032 25.0969Z" stroke="#43BEBB" stroke-opacity="0.5" stroke-width="0.714111" stroke-miterlimit="10" stroke-linejoin="round"/>
    <path d="M10.6129 23.544L9.06003 25.0968L6.2193 27.9376L4.9314 26.6497L9.32497 22.2561L10.6129 23.544Z" stroke="#43BEBB" stroke-opacity="0.5" stroke-width="0.714111" stroke-miterlimit="10" stroke-linejoin="round"/>
    <path d="M33.4337 10.4795L32.5782 11.2311C32.3457 11.4357 32.0154 11.4874 31.7312 11.3643L31.5345 11.2789L30.6447 10.8937C30.4337 10.8022 30.2245 10.7076 30.0166 10.6094C28.5259 9.9064 27.1216 9.03411 25.8309 8.00972C25.6509 7.86689 25.4735 7.72122 25.2978 7.57268L24.558 6.94605L24.3945 6.80751C24.1581 6.6072 24.0581 6.28835 24.1384 5.98949L24.4327 4.88941C24.5319 4.51914 24.9797 4.37453 25.2764 4.61697L26.8206 5.87631C28.2464 7.03888 29.816 8.01364 31.4899 8.77631L33.3033 9.60254C33.6525 9.76107 33.7215 10.2267 33.4337 10.4795ZM13.7931 6.80751L13.6296 6.94605L12.8898 7.57268C12.7144 7.72122 12.5366 7.86689 12.3567 8.00972C11.0659 9.03411 9.66162 9.9064 8.17091 10.6094C7.96311 10.7073 7.75387 10.8022 7.54285 10.8937L6.65343 11.2789L6.45669 11.3639C6.17247 11.4871 5.8422 11.4353 5.60975 11.2311L4.75425 10.4795C4.46646 10.2267 4.53537 9.76107 4.88422 9.60218L6.69734 8.77631C8.37158 8.01364 9.94084 7.03888 11.3666 5.87631L12.9112 4.61697C13.2079 4.37453 13.6556 4.5195 13.7549 4.88941L14.0491 5.98949C14.1295 6.28835 14.0295 6.6072 13.7931 6.80751Z" stroke="#002D4F" stroke-width="0.714111" stroke-miterlimit="10" stroke-linejoin="round"/>
</svg>
