<svg width="31" height="32" viewBox="0 0 31 32" fill="none" xmlns="http://www.w3.org/2000/svg">
    <g opacity="0.8">
        <path d="M30.4407 14.3687C29.6736 13.3257 28.44 12.6486 27.0485 12.6486C25.645 12.6486 24.4024 13.3366 23.6364 14.3952C22.8707 13.3366 21.6277 12.6486 20.2246 12.6486C19.1707 12.6486 18.2068 13.0371 17.468 13.6793C17.4121 13.7279 17.3573 13.778 17.3043 13.8296C17.1242 14.0027 16.9598 14.1919 16.8128 14.3952C16.6657 14.1919 16.5009 14.0027 16.3212 13.8296C16.2682 13.778 16.2134 13.7279 16.1575 13.6793C15.4183 13.0371 14.4549 12.6486 13.4006 12.6486C11.9975 12.6486 10.7541 13.3366 9.9888 14.3952C9.22244 13.3366 7.97977 12.6486 6.57701 12.6486C5.18513 12.6486 3.95154 13.3257 3.18481 14.3687C4.24487 8.16696 9.60435 3.39342 16.1578 3.09356C16.2123 3.09101 16.2671 3.08847 16.3216 3.08702C16.4849 3.08121 16.6487 3.07831 16.8131 3.07831C16.9776 3.07831 17.1417 3.08085 17.3047 3.08702C17.3595 3.08884 17.4143 3.09101 17.4684 3.09356C24.0208 3.39342 29.3803 8.16696 30.4407 14.3687Z" fill="#43BEBB"/>
        <path d="M15.7207 14.3953V2.21619" stroke="white" stroke-width="0.726069" stroke-miterlimit="10" stroke-linejoin="round"/>
        <path d="M26.2507 24.1811H24.1643L23.2607 22.2556L21.9171 25.1442L20.2073 20.7519L18.5217 24.1811H16.0059" stroke="#43BEBB" stroke-opacity="0.5" stroke-width="0.726069" stroke-miterlimit="10" stroke-linejoin="round"/>
        <path d="M8.35034 14.3956C8.94318 7.50015 12.0326 2.21619 15.7388 2.21619C19.445 2.21619 22.4992 7.50015 23.0917 14.3956" stroke="white" stroke-width="0.726069" stroke-miterlimit="10" stroke-linejoin="round"/>
        <path d="M30.4406 14.3665C29.6118 13.244 28.2795 12.5153 26.7765 12.5153C25.2609 12.5153 23.9184 13.2559 23.091 14.3951C22.264 13.2559 20.9215 12.5153 19.4058 12.5153C18.2674 12.5153 17.2265 12.9336 16.4286 13.6244C16.368 13.6767 16.3088 13.7308 16.2514 13.7863C16.0572 13.9729 15.8793 14.1766 15.7203 14.3951C15.5613 14.1762 15.3838 13.9729 15.1892 13.7863C15.1318 13.7308 15.0727 13.6771 15.012 13.6244C14.2137 12.9336 13.1733 12.5153 12.0344 12.5153C10.5191 12.5153 9.1759 13.2559 8.34927 14.3951C7.52155 13.2559 6.17941 12.5153 4.66411 12.5153C3.16078 12.5153 1.82844 13.244 1 14.3665C2.14501 7.69207 7.93359 2.55514 15.012 2.23203C15.0708 2.22913 15.13 2.22659 15.1892 2.22477C15.3656 2.21824 15.5424 2.2157 15.7203 2.2157C15.8982 2.2157 16.075 2.2186 16.2514 2.22477C16.3106 2.22659 16.3698 2.22913 16.4286 2.23203C23.5067 2.55514 29.2953 7.69244 30.4406 14.3665Z" stroke="#002D4F" stroke-width="0.726069" stroke-miterlimit="10" stroke-linejoin="round"/>
        <path d="M16.2514 1.53112V2.22524C16.075 2.21871 15.8982 2.21617 15.7203 2.21617C15.5424 2.21617 15.3656 2.21907 15.1892 2.22524V1.53112C15.1892 1.23779 15.427 1 15.7203 1C16.0136 1 16.2514 1.23779 16.2514 1.53112ZM16.2514 13.7864V17.1917C15.973 17.3598 15.7101 17.5638 15.4702 17.8038C15.407 17.8669 15.346 17.9319 15.2887 17.9984C15.2545 18.0368 15.2219 18.0764 15.1896 18.116V13.7864C15.3838 13.973 15.5617 14.1767 15.7207 14.3952C15.8793 14.1767 16.0572 13.973 16.2514 13.7864ZM15.4702 23.6381L16.2514 24.4194V28.807C16.2514 30.0515 15.2545 31.0847 14.0101 31.0883C13.3867 31.0901 12.8226 30.8382 12.4142 30.4297C12.0076 30.0232 11.7556 29.4612 11.7556 28.8404V28.5271C11.7556 28.2338 11.9934 27.996 12.2867 27.996C12.5801 27.996 12.8179 28.2338 12.8179 28.5271V28.8164C12.8179 29.4648 13.3283 30.0115 13.9767 30.0257C14.3146 30.0333 14.6214 29.899 14.8421 29.6786C15.0567 29.4637 15.1896 29.1675 15.1896 28.84V23.3277C15.277 23.4344 15.3703 23.5383 15.4702 23.6381Z" stroke="#002D4F" stroke-width="0.726069" stroke-miterlimit="10" stroke-linejoin="round"/>
        <path d="M29.2373 23.6382L22.3538 30.522L17.7545 25.9224L15.4703 23.6382C15.3705 23.5383 15.2772 23.4345 15.1897 23.3278C13.9597 21.8187 13.9594 19.6252 15.1897 18.1161C15.222 18.0765 15.2547 18.0373 15.2888 17.9984C15.3462 17.932 15.4075 17.8667 15.4703 17.8039C15.7103 17.5639 15.9731 17.3599 16.2516 17.1918C16.7184 16.9101 17.2303 16.7293 17.7545 16.6487C17.964 16.616 18.1757 16.6 18.3873 16.6C19.4445 16.6 20.5023 17.0016 21.3046 17.8035L22.3535 18.8527L23.4026 17.8035C25.0072 16.1992 27.6327 16.1992 29.2369 17.8035C30.8419 19.4085 30.8419 22.0339 29.2373 23.6382Z" stroke="#002D4F" stroke-width="0.726069" stroke-miterlimit="10" stroke-linejoin="round"/>
        <path d="M10.7402 20.9401V23.5848H7.45803V26.8666H4.81296V23.5848H1.53149V20.9401H4.81296V17.6579H7.45803V20.9401H10.7402Z" stroke="#002D4F" stroke-width="0.726069" stroke-miterlimit="10" stroke-linejoin="round"/>
    </g>
</svg>
