<svg width="16" height="17" viewBox="0 0 16 17" fill="none" xmlns="http://www.w3.org/2000/svg">
<path fill-rule="evenodd" clip-rule="evenodd" d="M0 8.12122C0 3.70294 3.58172 0.121216 8 0.121216C12.4183 0.121216 16 3.70294 16 8.12122C16 12.5395 12.4183 16.1212 8 16.1212C3.58172 16.1212 0 12.5395 0 8.12122ZM8 1.57576C4.38504 1.57576 1.45455 4.50626 1.45455 8.12122C1.45455 11.7362 4.38504 14.6667 8 14.6667C11.615 14.6667 14.5455 11.7362 14.5455 8.12122C14.5455 4.50626 11.615 1.57576 8 1.57576ZM8.00309 3.03031C8.40475 3.03035 8.73033 3.35599 8.73029 3.75765L8.72988 7.8232L11.6003 10.6936C11.8843 10.9776 11.8843 11.4381 11.6003 11.7221C11.3162 12.0061 10.8558 12.0061 10.5717 11.7221L7.48832 8.63868C7.35191 8.50227 7.27529 8.31725 7.27531 8.12434L7.27575 3.75751C7.27579 3.35585 7.60143 3.03027 8.00309 3.03031Z" fill="#43BEBB"/>
</svg>
