<svg width="17" height="17" viewBox="0 0 17 17" fill="none" xmlns="http://www.w3.org/2000/svg">
<path fill-rule="evenodd" clip-rule="evenodd" d="M8.02424 1.57576C6.69474 1.57576 5.61697 2.55259 5.61697 3.75758C5.61697 4.96256 6.69474 5.9394 8.02424 5.9394C9.35374 5.9394 10.4315 4.96256 10.4315 3.75758C10.4315 2.55259 9.35374 1.57576 8.02424 1.57576ZM4.01212 3.75758C4.01212 1.74927 5.80841 0.121216 8.02424 0.121216C10.2401 0.121216 12.0364 1.74927 12.0364 3.75758C12.0364 5.76589 10.2401 7.39394 8.02424 7.39394C5.80841 7.39394 4.01212 5.76589 4.01212 3.75758ZM0 15.3939C0 11.3773 3.59259 8.12122 8.02424 8.12122C12.4559 8.12122 16.0485 11.3773 16.0485 15.3939C16.0485 15.7956 15.6892 16.1212 15.2461 16.1212C14.8029 16.1212 14.4436 15.7956 14.4436 15.3939C14.4436 12.5257 12.1537 10.1422 9.14045 9.66341L10.396 13.3619C10.4741 13.5919 10.4216 13.8421 10.2557 14.0301L8.65083 15.8483C8.49855 16.0208 8.26801 16.1212 8.02424 16.1212C7.78048 16.1212 7.54993 16.0208 7.39766 15.8483L5.79281 14.0301C5.6269 13.8421 5.57435 13.5919 5.65245 13.3619L6.90804 9.66341C3.89479 10.1422 1.60485 12.5257 1.60485 15.3939C1.60485 15.7956 1.24559 16.1212 0.802424 16.1212C0.359258 16.1212 0 15.7956 0 15.3939ZM8.02424 11.3215L7.31118 13.4219L8.02424 14.2297L8.7373 13.4219L8.02424 11.3215Z" fill="#43BEBB"/>
</svg>
