<svg width="16" height="19" viewBox="0 0 16 19" fill="none" xmlns="http://www.w3.org/2000/svg">
<path d="M7.875 7.48485C8.35825 7.48485 8.75 7.85116 8.75 8.30303V10.7576C8.75 11.2094 8.35825 11.5758 7.875 11.5758H5.25C4.76675 11.5758 4.375 11.2094 4.375 10.7576C4.375 10.3057 4.76675 9.9394 5.25 9.9394H7V8.30303C7 7.85116 7.39175 7.48485 7.875 7.48485Z" fill="#43BEBB"/>
<path fill-rule="evenodd" clip-rule="evenodd" d="M6.125 0.121216C5.64175 0.121216 5.25 0.487528 5.25 0.939398C5.25 1.39127 5.64175 1.75758 6.125 1.75758H7V3.43888C3.06254 3.84588 0 6.96731 0 10.7576C0 14.8244 3.52576 18.1212 7.875 18.1212C12.2242 18.1212 15.75 14.8244 15.75 10.7576C15.75 8.91453 15.0259 7.22963 13.8291 5.93807L14.6187 5.19976C14.9604 4.88024 14.9604 4.36219 14.6187 4.04267C14.277 3.72315 13.723 3.72315 13.3813 4.04267L12.543 4.82649C11.4579 4.07848 10.16 3.58463 8.75 3.43888V1.75758H9.625C10.1082 1.75758 10.5 1.39127 10.5 0.939398C10.5 0.487528 10.1082 0.121216 9.625 0.121216H6.125ZM1.75 10.7576C1.75 7.59449 4.49226 5.03031 7.875 5.03031C11.2577 5.03031 14 7.59449 14 10.7576C14 13.9207 11.2577 16.4849 7.875 16.4849C4.49226 16.4849 1.75 13.9207 1.75 10.7576Z" fill="#43BEBB"/>
</svg>
