<svg width="40" height="40" viewBox="0 0 40 40" fill="none" xmlns="http://www.w3.org/2000/svg">
<g clip-path="url(#clip0_6_8001)">
<path d="M12.6191 18.6754H27.381C27.5072 18.6754 27.6284 18.6253 27.7177 18.536C27.807 18.4467 27.8571 18.3255 27.8571 18.1993V11.5326C27.8571 11.4063 27.807 11.2852 27.7177 11.1959C27.6284 11.1066 27.5072 11.0564 27.381 11.0564H12.6191C12.4928 11.0564 12.3716 11.1066 12.2823 11.1959C12.193 11.2852 12.1429 11.4063 12.1429 11.5326V18.1993C12.1429 18.3255 12.193 18.4467 12.2823 18.536C12.3716 18.6253 12.4928 18.6754 12.6191 18.6754ZM13.0952 12.0088H26.9048V17.7231H13.0952V12.0088ZM14.7619 21.5326H12.381C12.2547 21.5326 12.1335 21.5828 12.0442 21.6721C11.9549 21.7614 11.9048 21.8825 11.9048 22.0088C11.9048 22.1351 11.9549 22.2562 12.0442 22.3455C12.1335 22.4348 12.2547 22.485 12.381 22.485H14.7619C14.8882 22.485 15.0093 22.4348 15.0986 22.3455C15.1879 22.2562 15.2381 22.1351 15.2381 22.0088C15.2381 21.8825 15.1879 21.7614 15.0986 21.6721C15.0093 21.5828 14.8882 21.5326 14.7619 21.5326Z" fill="#2D4356"/>
<path d="M14.2857 23.4374H12.8572C12.6046 23.4376 12.3626 23.5381 12.184 23.7166C12.0055 23.8952 11.905 24.1373 11.9048 24.3898V25.3421C11.905 25.5946 12.0055 25.8367 12.184 26.0153C12.3626 26.1938 12.6046 26.2943 12.8572 26.2945H14.2857C14.5382 26.2943 14.7803 26.1938 14.9589 26.0153C15.1374 25.8367 15.2378 25.5946 15.2381 25.3421V24.3898C15.2378 24.1373 15.1374 23.8952 14.9589 23.7166C14.7803 23.5381 14.5382 23.4376 14.2857 23.4374ZM12.8572 25.3421V24.3898H14.2857L14.2863 25.3421H12.8572Z" fill="#0BCEB2"/>
<path d="M14.2857 27.2469H12.8572C12.6046 27.2472 12.3626 27.3476 12.184 27.5261C12.0055 27.7047 11.905 27.9468 11.9048 28.1993V29.1516C11.905 29.4042 12.0055 29.6462 12.184 29.8248C12.3626 30.0033 12.6046 30.1038 12.8572 30.104H14.2857C14.5382 30.1038 14.7803 30.0033 14.9589 29.8248C15.1374 29.6462 15.2378 29.4042 15.2381 29.1516V28.1993C15.2378 27.9468 15.1374 27.7047 14.9589 27.5261C14.7803 27.3476 14.5382 27.2472 14.2857 27.2469ZM12.8572 29.1516V28.1993H14.2857L14.2863 29.1516H12.8572Z" fill="#2D4356"/>
<path d="M14.2857 31.0564H12.8572C12.6046 31.0567 12.3626 31.1571 12.184 31.3356C12.0055 31.5142 11.905 31.7563 11.9048 32.0088V32.9612C11.905 33.2137 12.0055 33.4557 12.184 33.6343C12.3626 33.8128 12.6046 33.9133 12.8572 33.9135H14.2857C14.5382 33.9133 14.7803 33.8128 14.9589 33.6343C15.1374 33.4557 15.2378 33.2137 15.2381 32.9612V32.0088C15.2378 31.7563 15.1374 31.5142 14.9589 31.3356C14.7803 31.1571 14.5382 31.0567 14.2857 31.0564ZM12.8572 32.9612V32.0088H14.2857L14.2863 32.9612H12.8572Z" fill="#0BCEB2"/>
<path d="M18.5714 23.4374H17.1429C16.8904 23.4376 16.6483 23.5381 16.4697 23.7166C16.2912 23.8952 16.1907 24.1373 16.1905 24.3898V25.3421C16.1907 25.5946 16.2912 25.8367 16.4697 26.0153C16.6483 26.1938 16.8904 26.2943 17.1429 26.2945H18.5714C18.8239 26.2943 19.066 26.1938 19.2446 26.0153C19.4231 25.8367 19.5235 25.5946 19.5238 25.3421V24.3898C19.5235 24.1373 19.4231 23.8952 19.2446 23.7166C19.066 23.5381 18.8239 23.4376 18.5714 23.4374ZM17.1429 25.3421V24.3898H18.5714L18.572 25.3421H17.1429Z" fill="#2D4356"/>
<path d="M18.5714 27.2469H17.1429C16.8904 27.2472 16.6483 27.3476 16.4697 27.5261C16.2912 27.7047 16.1907 27.9468 16.1905 28.1993V29.1516C16.1907 29.4042 16.2912 29.6462 16.4697 29.8248C16.6483 30.0033 16.8904 30.1038 17.1429 30.104H18.5714C18.8239 30.1038 19.066 30.0033 19.2446 29.8248C19.4231 29.6462 19.5235 29.4042 19.5238 29.1516V28.1993C19.5235 27.9468 19.4231 27.7047 19.2446 27.5261C19.066 27.3476 18.8239 27.2472 18.5714 27.2469ZM17.1429 29.1516V28.1993H18.5714L18.572 29.1516H17.1429Z" fill="#0BCEB2"/>
<path d="M18.5714 31.0564H17.1429C16.8904 31.0567 16.6483 31.1571 16.4697 31.3356C16.2912 31.5142 16.1907 31.7563 16.1905 32.0088V32.9612C16.1907 33.2137 16.2912 33.4557 16.4697 33.6343C16.6483 33.8128 16.8904 33.9133 17.1429 33.9135H18.5714C18.8239 33.9133 19.066 33.8128 19.2446 33.6343C19.4231 33.4557 19.5235 33.2137 19.5238 32.9612V32.0088C19.5235 31.7563 19.4231 31.5142 19.2446 31.3356C19.066 31.1571 18.8239 31.0567 18.5714 31.0564ZM17.1429 32.9612V32.0088H18.5714L18.572 32.9612H17.1429Z" fill="#2D4356"/>
<path d="M22.857 23.4374H21.4285C21.176 23.4376 20.9339 23.5381 20.7553 23.7166C20.5768 23.8952 20.4763 24.1373 20.4761 24.3898V25.3421C20.4763 25.5946 20.5768 25.8367 20.7553 26.0153C20.9339 26.1938 21.176 26.2943 21.4285 26.2945H22.857C23.1095 26.2943 23.3516 26.1938 23.5302 26.0153C23.7087 25.8367 23.8091 25.5946 23.8094 25.3421V24.3898C23.8091 24.1373 23.7087 23.8952 23.5302 23.7166C23.3516 23.5381 23.1095 23.4376 22.857 23.4374ZM21.4285 25.3421V24.3898H22.857L22.8576 25.3421H21.4285Z" fill="#0BCEB2"/>
<path d="M22.857 27.2468H21.4285C21.176 27.2471 20.9339 27.3475 20.7553 27.5261C20.5768 27.7046 20.4763 27.9467 20.4761 28.1992V29.1516C20.4763 29.4041 20.5768 29.6462 20.7553 29.8247C20.9339 30.0033 21.176 30.1037 21.4285 30.104H22.857C23.1095 30.1037 23.3516 30.0033 23.5302 29.8247C23.7087 29.6462 23.8091 29.4041 23.8094 29.1516V28.1992C23.8091 27.9467 23.7087 27.7046 23.5302 27.5261C23.3516 27.3475 23.1095 27.2471 22.857 27.2468ZM21.4285 29.1516V28.1992H22.857L22.8576 29.1516H21.4285Z" fill="#2D4356"/>
<path d="M22.857 31.0564H21.4285C21.176 31.0567 20.9339 31.1571 20.7553 31.3356C20.5768 31.5142 20.4763 31.7563 20.4761 32.0088V32.9612C20.4763 33.2137 20.5768 33.4557 20.7553 33.6343C20.9339 33.8128 21.176 33.9133 21.4285 33.9135H22.857C23.1095 33.9133 23.3516 33.8128 23.5302 33.6343C23.7087 33.4557 23.8091 33.2137 23.8094 32.9612V32.0088C23.8091 31.7563 23.7087 31.5142 23.5302 31.3356C23.3516 31.1571 23.1095 31.0567 22.857 31.0564ZM21.4285 32.9612V32.0088H22.857L22.8576 32.9612H21.4285Z" fill="#0BCEB2"/>
<path d="M27.3808 23.4374H25.7141C25.4616 23.4376 25.2195 23.5381 25.041 23.7166C24.8624 23.8952 24.762 24.1373 24.7617 24.3898V25.3421C24.762 25.5946 24.8624 25.8367 25.041 26.0153C25.2195 26.1938 25.4616 26.2943 25.7141 26.2945H27.3808C27.6333 26.2943 27.8754 26.1938 28.0539 26.0153C28.2324 25.8367 28.3329 25.5946 28.3331 25.3421V24.3898C28.3329 24.1373 28.2324 23.8952 28.0539 23.7166C27.8754 23.5381 27.6333 23.4376 27.3808 23.4374ZM25.7141 25.3421V24.3898H27.3808L27.3813 25.3421H25.7141Z" fill="#2D4356"/>
<path d="M20.2381 10.104H26.9048C27.1573 10.1037 27.3993 10.0033 27.5779 9.82477C27.7564 9.64622 27.8569 9.40415 27.8571 9.15165V8.19927C27.8569 7.94677 27.7564 7.7047 27.5779 7.52615C27.3993 7.34761 27.1573 7.24718 26.9048 7.24689H20.2381C19.9856 7.24718 19.7435 7.34761 19.565 7.52615C19.3864 7.7047 19.286 7.94677 19.2857 8.19927V9.15165C19.286 9.40415 19.3864 9.64622 19.565 9.82477C19.7435 10.0033 19.9856 10.1037 20.2381 10.104ZM20.2381 8.19927H26.9048L26.9053 9.15165H20.2381V8.19927ZM19.0476 21.5326H16.6667C16.5404 21.5326 16.4193 21.5828 16.3299 21.6721C16.2406 21.7614 16.1905 21.8825 16.1905 22.0088C16.1905 22.1351 16.2406 22.2562 16.3299 22.3455C16.4193 22.4348 16.5404 22.485 16.6667 22.485H19.0476C19.1739 22.485 19.295 22.4348 19.3843 22.3455C19.4736 22.2562 19.5238 22.1351 19.5238 22.0088C19.5238 21.8825 19.4736 21.7614 19.3843 21.6721C19.295 21.5828 19.1739 21.5326 19.0476 21.5326ZM23.3333 21.5326H20.9524C20.8261 21.5326 20.705 21.5828 20.6157 21.6721C20.5264 21.7614 20.4762 21.8825 20.4762 22.0088C20.4762 22.1351 20.5264 22.2562 20.6157 22.3455C20.705 22.4348 20.8261 22.485 20.9524 22.485H23.3333C23.4596 22.485 23.5807 22.4348 23.6701 22.3455C23.7594 22.2562 23.8095 22.1351 23.8095 22.0088C23.8095 21.8825 23.7594 21.7614 23.6701 21.6721C23.5807 21.5828 23.4596 21.5326 23.3333 21.5326Z" fill="#0BCEB2"/>
<path d="M27.6192 22.485C27.7455 22.485 27.8666 22.4348 27.9559 22.3455C28.0452 22.2562 28.0954 22.1351 28.0954 22.0088C28.0954 21.8825 28.0452 21.7614 27.9559 21.6721C27.8666 21.5828 27.7455 21.5326 27.6192 21.5326H25.0001C24.8738 21.5326 24.7527 21.5828 24.6634 21.6721C24.5741 21.7614 24.5239 21.8825 24.5239 22.0088C24.5239 22.1351 24.5741 22.2562 24.6634 22.3455C24.7527 22.4348 24.8738 22.485 25.0001 22.485H27.6192Z" fill="#2D4356"/>
<path d="M25 19.6279C24.8737 19.6279 24.7526 19.678 24.6633 19.7673C24.574 19.8566 24.5238 19.9778 24.5238 20.104C24.5238 20.2303 24.574 20.3515 24.6633 20.4408C24.7526 20.5301 24.8737 20.5802 25 20.5802H27.6191C27.7453 20.5802 27.8665 20.5301 27.9558 20.4408C28.0451 20.3515 28.0952 20.2303 28.0952 20.104C28.0952 19.9778 28.0451 19.8566 27.9558 19.7673C27.8665 19.678 27.7453 19.6279 27.6191 19.6279H25ZM12.8572 9.15166H15.4762C15.6025 9.15166 15.7236 9.10149 15.8129 9.01219C15.9022 8.92289 15.9524 8.80176 15.9524 8.67547C15.9524 8.54918 15.9022 8.42806 15.8129 8.33875C15.7236 8.24945 15.6025 8.19928 15.4762 8.19928H12.8572C12.7309 8.19928 12.6097 8.24945 12.5204 8.33875C12.4311 8.42806 12.381 8.54918 12.381 8.67547C12.381 8.80176 12.4311 8.92289 12.5204 9.01219C12.6097 9.10149 12.7309 9.15166 12.8572 9.15166ZM14.7619 19.6279H12.381C12.2547 19.6279 12.1335 19.678 12.0442 19.7673C11.9549 19.8566 11.9048 19.9778 11.9048 20.104C11.9048 20.2303 11.9549 20.3515 12.0442 20.4408C12.1335 20.5301 12.2547 20.5802 12.381 20.5802H14.7619C14.8882 20.5802 15.0093 20.5301 15.0986 20.4408C15.1879 20.3515 15.2381 20.2303 15.2381 20.104C15.2381 19.9778 15.1879 19.8566 15.0986 19.7673C15.0093 19.678 14.8882 19.6279 14.7619 19.6279Z" fill="#0BCEB2"/>
<path d="M27.1427 27.2468H25.7141C25.4616 27.2471 25.2195 27.3475 25.041 27.5261C24.8624 27.7046 24.762 27.9467 24.7617 28.1992V32.9611C24.762 33.2136 24.8624 33.4557 25.041 33.6342C25.2195 33.8128 25.4616 33.9132 25.7141 33.9135H27.1427C27.3952 33.9132 27.6373 33.8128 27.8158 33.6342C27.9944 33.4557 28.0948 33.2136 28.0951 32.9611V28.1992C28.0948 27.9467 27.9944 27.7046 27.8158 27.5261C27.6373 27.3475 27.3952 27.2471 27.1427 27.2468ZM25.7141 32.9611V28.1992H27.1427L27.1433 32.9611H25.7141Z" fill="#2D4356"/>
<path d="M0.47619 35.8183C0.739183 35.8183 0.952381 35.6051 0.952381 35.3422C0.952381 35.0792 0.739183 34.866 0.47619 34.866C0.213198 34.866 0 35.0792 0 35.3422C0 35.6051 0.213198 35.8183 0.47619 35.8183Z" fill="#2D4356"/>
<path d="M2.61919 34.866H1.9049C1.77861 34.866 1.65749 34.9161 1.56818 35.0054C1.47888 35.0947 1.42871 35.2159 1.42871 35.3422C1.42871 35.4685 1.47888 35.5896 1.56818 35.6789C1.65749 35.7682 1.77861 35.8183 1.9049 35.8183H2.61919C2.74548 35.8183 2.8666 35.7682 2.9559 35.6789C3.04521 35.5896 3.09538 35.4685 3.09538 35.3422C3.09538 35.2159 3.04521 35.0947 2.9559 35.0054C2.8666 34.9161 2.74548 34.866 2.61919 34.866ZM38.0954 34.866H37.3811C37.2548 34.866 37.1337 34.9161 37.0444 35.0054C36.9551 35.0947 36.9049 35.2159 36.9049 35.3422C36.9049 35.4685 36.9551 35.5896 37.0444 35.6789C37.1337 35.7682 37.2548 35.8183 37.3811 35.8183H38.0954C38.2217 35.8183 38.3428 35.7682 38.4321 35.6789C38.5214 35.5896 38.5716 35.4685 38.5716 35.3422C38.5716 35.2159 38.5214 35.0947 38.4321 35.0054C38.3428 34.9161 38.2217 34.866 38.0954 34.866Z" fill="#2D4356"/>
<path d="M39.524 35.8183C39.787 35.8183 40.0002 35.6051 40.0002 35.3422C40.0002 35.0792 39.787 34.866 39.524 34.866C39.261 34.866 39.0479 35.0792 39.0479 35.3422C39.0479 35.6051 39.261 35.8183 39.524 35.8183Z" fill="#2D4356"/>
<path d="M28.132 36.7706H26.154C26.0343 36.7802 25.9226 36.8346 25.8411 36.9228C25.7597 37.011 25.7144 37.1267 25.7144 37.2468C25.7144 37.3669 25.7597 37.4826 25.8411 37.5708C25.9226 37.6591 26.0343 37.7134 26.154 37.723H28.132C28.2517 37.7134 28.3634 37.6591 28.4449 37.5708C28.5263 37.4826 28.5716 37.3669 28.5716 37.2468C28.5716 37.1267 28.5263 37.011 28.4449 36.9228C28.3634 36.8346 28.2517 36.7802 28.132 36.7706ZM13.8463 36.7706H11.8683C11.7486 36.7802 11.6369 36.8346 11.5554 36.9228C11.4739 37.011 11.4287 37.1267 11.4287 37.2468C11.4287 37.3669 11.4739 37.4826 11.5554 37.5708C11.6369 37.6591 11.7486 37.7134 11.8683 37.723H13.8463C13.966 37.7134 14.0777 37.6591 14.1592 37.5708C14.2406 37.4826 14.2859 37.3669 14.2859 37.2468C14.2859 37.1267 14.2406 37.011 14.1592 36.9228C14.0777 36.8346 13.966 36.7802 13.8463 36.7706ZM24.7621 36.7706H15.2382C15.1119 36.7706 14.9908 36.8208 14.9015 36.9101C14.8122 36.9994 14.7621 37.1205 14.7621 37.2468C14.7621 37.3731 14.8122 37.4942 14.9015 37.5835C14.9908 37.6728 15.1119 37.723 15.2382 37.723H19.0335V38.1992H17.143C17.0167 38.1992 16.8956 38.2494 16.8063 38.3387C16.717 38.428 16.6668 38.5491 16.6668 38.6754C16.6668 38.8017 16.717 38.9228 16.8063 39.0121C16.8956 39.1014 17.0167 39.1516 17.143 39.1516H23.0954C23.2217 39.1516 23.3428 39.1014 23.4321 39.0121C23.5214 38.9228 23.5716 38.8017 23.5716 38.6754C23.5716 38.5491 23.5214 38.428 23.4321 38.3387C23.3428 38.2494 23.2217 38.1992 23.0954 38.1992H20.9668V37.723H24.7621C24.8883 37.723 25.0095 37.6728 25.0988 37.5835C25.1881 37.4942 25.2382 37.3731 25.2382 37.2468C25.2382 37.1205 25.1881 36.9994 25.0988 36.9101C25.0095 36.8208 24.8883 36.7706 24.7621 36.7706Z" fill="#0BCEB2"/>
<path d="M35.8863 34.8659H29.7425C29.9112 34.5768 30.0002 34.2482 30.0003 33.9135V7.24684C29.9997 6.74185 29.7988 6.2577 29.4417 5.90061C29.0846 5.54353 28.6005 5.34266 28.0955 5.34208H11.905C11.4 5.34266 10.9159 5.54353 10.5588 5.90061C10.2017 6.2577 10.0008 6.74185 10.0003 7.24684V33.9135C10.0004 34.2482 10.0893 34.5768 10.258 34.8659H4.11424C4.04649 34.857 3.97764 34.8627 3.91227 34.8826C3.84691 34.9025 3.78654 34.9361 3.7352 34.9812C3.68385 35.0262 3.64272 35.0818 3.61454 35.144C3.58635 35.2062 3.57178 35.2738 3.57178 35.3421C3.57178 35.4104 3.58635 35.4779 3.61454 35.5402C3.64272 35.6024 3.68385 35.6579 3.7352 35.703C3.78654 35.7481 3.84691 35.7817 3.91227 35.8015C3.97764 35.8214 4.04649 35.8271 4.11424 35.8183H35.8863C35.954 35.8271 36.0229 35.8214 36.0882 35.8015C36.1536 35.7817 36.214 35.7481 36.2653 35.703C36.3167 35.6579 36.3578 35.6024 36.386 35.5402C36.4142 35.4779 36.4287 35.4104 36.4287 35.3421C36.4287 35.2738 36.4142 35.2062 36.386 35.144C36.3578 35.0818 36.3167 35.0262 36.2653 34.9812C36.214 34.9361 36.1536 34.9025 36.0882 34.8826C36.0229 34.8627 35.954 34.857 35.8863 34.8659ZM11.905 34.8659C11.6525 34.8656 11.4104 34.7652 11.2319 34.5866C11.0533 34.4081 10.9529 34.166 10.9526 33.9135V7.24684C10.9529 6.99435 11.0534 6.75227 11.2319 6.57373C11.4105 6.39518 11.6525 6.29475 11.905 6.29446H28.0955C28.348 6.29475 28.5901 6.39518 28.7686 6.57373C28.9472 6.75227 29.0476 6.99435 29.0479 7.24684V33.9135C29.0476 34.166 28.9472 34.4081 28.7686 34.5866C28.5901 34.7652 28.348 34.8656 28.0955 34.8659H11.905Z" fill="#2D4356"/>
</g>
<defs>
<clipPath id="clip0_6_8001">
<rect width="40" height="40" fill="white"/>
</clipPath>
</defs>
</svg>
