<svg width="43" height="23" viewBox="0 0 43 23" fill="none" xmlns="http://www.w3.org/2000/svg">
<path d="M21.4666 9.19995C20.4557 9.19995 19.4675 9.49971 18.627 10.0613C17.7865 10.6229 17.1314 11.4212 16.7445 12.3551C16.3577 13.2891 16.2565 14.3167 16.4537 15.3082C16.6509 16.2997 17.1377 17.2104 17.8525 17.9252C18.5673 18.64 19.478 19.1268 20.4695 19.324C21.4609 19.5212 22.4886 19.42 23.4225 19.0331C24.3565 18.6463 25.1547 17.9912 25.7163 17.1506C26.2779 16.3101 26.5777 15.3219 26.5777 14.3111C26.5776 12.9555 26.0391 11.6555 25.0806 10.697C24.1221 9.73853 22.8221 9.20002 21.4666 9.19995ZM21.4666 18.4C20.6579 18.4 19.8673 18.1601 19.1949 17.7109C18.5225 17.2616 17.9984 16.623 17.6889 15.8758C17.3795 15.1287 17.2985 14.3065 17.4563 13.5134C17.614 12.7202 18.0035 11.9916 18.5753 11.4198C19.1471 10.8479 19.8757 10.4585 20.6689 10.3007C21.462 10.143 22.2842 10.2239 23.0313 10.5334C23.7785 10.8429 24.4171 11.367 24.8664 12.0394C25.3157 12.7118 25.5555 13.5024 25.5555 14.3111C25.5542 15.3951 25.123 16.4344 24.3565 17.201C23.59 17.9675 22.5506 18.3987 21.4666 18.4Z" fill="#43BEBB"/>
<path d="M9.96924 7.46803C10.0871 7.53497 10.2267 7.55241 10.3574 7.51652C10.4881 7.48062 10.5992 7.39433 10.6663 7.27659C11.6744 5.46591 13.1278 3.94243 14.8891 2.85035C16.6504 1.75827 18.6612 1.13373 20.7313 1.03582C22.8013 0.937918 24.8622 1.3699 26.7186 2.29087C28.5751 3.21185 30.1659 4.59135 31.3403 6.29881L30.9792 6.09342C30.8614 6.02637 30.7218 6.00887 30.5911 6.04477C30.4603 6.08067 30.3492 6.16702 30.2822 6.28483C30.2151 6.40265 30.1976 6.54227 30.2335 6.67299C30.2694 6.80371 30.3558 6.91481 30.4736 6.98186L32.4581 8.11091C32.5364 8.15541 32.625 8.17847 32.715 8.17775C32.805 8.17702 32.8933 8.15254 32.9708 8.10678C33.0483 8.06101 33.1124 7.99559 33.1565 7.91713C33.2006 7.83867 33.2232 7.74994 33.2221 7.65993L33.1919 5.34858C33.1901 5.21302 33.1346 5.08372 33.0374 4.98912C32.9403 4.89452 32.8096 4.84237 32.6741 4.84414C32.5385 4.84591 32.4092 4.90145 32.3146 4.99856C32.22 5.09566 32.1679 5.22637 32.1696 5.36192L32.1739 5.69759C30.8982 3.85184 29.1733 2.36154 27.1619 1.36732C25.1505 0.373093 22.9189 -0.0922681 20.6778 0.0151435C18.4367 0.122555 16.2598 0.799197 14.3528 1.98122C12.4457 3.16325 10.8712 4.81168 9.77783 6.77098C9.71079 6.8888 9.69329 7.02842 9.72919 7.15914C9.76508 7.28986 9.85143 7.40097 9.96924 7.46803Z" fill="#002D4F"/>
<path d="M21.4458 3.06667C20.2961 3.06415 19.1635 3.34454 18.1478 3.88312C18.0886 3.9148 18.0363 3.95782 17.9937 4.00972C17.9512 4.06163 17.9193 4.12141 17.8998 4.18565C17.8804 4.24989 17.8738 4.31734 17.8804 4.38413C17.887 4.45092 17.9068 4.51575 17.9384 4.57492C17.9701 4.63409 18.0131 4.68645 18.065 4.729C18.1169 4.77154 18.1767 4.80345 18.241 4.82289C18.3052 4.84234 18.3726 4.84894 18.4394 4.84232C18.5062 4.8357 18.5711 4.81599 18.6302 4.78431C19.5015 4.32592 20.4715 4.08721 21.456 4.0889C22.4404 4.0906 23.4096 4.33266 24.2793 4.79405C24.3383 4.82633 24.4032 4.84663 24.4701 4.85377C24.5371 4.86092 24.6047 4.85477 24.6693 4.83569C24.7339 4.8166 24.794 4.78495 24.8463 4.74255C24.8986 4.70016 24.942 4.64785 24.974 4.58864C25.006 4.52942 25.026 4.46447 25.0328 4.3975C25.0397 4.33053 25.0332 4.26288 25.0139 4.19841C24.9945 4.13395 24.9626 4.07394 24.9199 4.02185C24.8773 3.96976 24.8248 3.9266 24.7654 3.89485C23.7444 3.34844 22.6038 3.06388 21.4458 3.06667Z" fill="#002D4F"/>
<path d="M16.6004 5.87787C16.8827 5.87787 17.1115 5.64904 17.1115 5.36676C17.1115 5.08448 16.8827 4.85565 16.6004 4.85565C16.3181 4.85565 16.0893 5.08448 16.0893 5.36676C16.0893 5.64904 16.3181 5.87787 16.6004 5.87787Z" fill="#43BEBB"/>
<path d="M26.333 5.88569C26.6153 5.88569 26.8441 5.65685 26.8441 5.37458C26.8441 5.0923 26.6153 4.86346 26.333 4.86346C26.0507 4.86346 25.8219 5.0923 25.8219 5.37458C25.8219 5.65685 26.0507 5.88569 26.333 5.88569Z" fill="#43BEBB"/>
<path d="M0.51102 19.4223C0.793299 19.4223 1.02213 19.1935 1.02213 18.9112C1.02213 18.6289 0.793299 18.4001 0.51102 18.4001C0.228741 18.4001 -9.15527e-05 18.6289 -9.15527e-05 18.9112C-9.15527e-05 19.1935 0.228741 19.4223 0.51102 19.4223Z" fill="#002D4F"/>
<path d="M2.81098 18.4H2.04431C1.90876 18.4 1.77876 18.4539 1.6829 18.5497C1.58705 18.6456 1.5332 18.7756 1.5332 18.9111C1.5332 19.0467 1.58705 19.1767 1.6829 19.2725C1.77876 19.3684 1.90876 19.4222 2.04431 19.4222H2.81098C2.94654 19.4222 3.07654 19.3684 3.17239 19.2725C3.26824 19.1767 3.32209 19.0467 3.32209 18.9111C3.32209 18.7756 3.26824 18.6456 3.17239 18.5497C3.07654 18.4539 2.94654 18.4 2.81098 18.4ZM40.8888 18.4H40.1221C39.9865 18.4 39.8565 18.4539 39.7607 18.5497C39.6648 18.6456 39.611 18.7756 39.611 18.9111C39.611 19.0467 39.6648 19.1767 39.7607 19.2725C39.8565 19.3684 39.9865 19.4222 40.1221 19.4222H40.8888C41.0243 19.4222 41.1543 19.3684 41.2502 19.2725C41.346 19.1767 41.3999 19.0467 41.3999 18.9111C41.3999 18.7756 41.346 18.6456 41.2502 18.5497C41.1543 18.4539 41.0243 18.4 40.8888 18.4Z" fill="#002D4F"/>
<path d="M42.4222 19.4222C42.7045 19.4222 42.9334 19.1934 42.9334 18.9111C42.9334 18.6289 42.7045 18.4 42.4222 18.4C42.14 18.4 41.9111 18.6289 41.9111 18.9111C41.9111 19.1934 42.14 19.4222 42.4222 19.4222Z" fill="#002D4F"/>
<path d="M30.1949 20.4445H28.0718C27.9433 20.4548 27.8234 20.5131 27.736 20.6078C27.6486 20.7026 27.6 20.8267 27.6 20.9556C27.6 21.0845 27.6486 21.2087 27.736 21.3034C27.8234 21.3981 27.9433 21.4564 28.0718 21.4667H30.1949C30.3234 21.4564 30.4433 21.3981 30.5307 21.3034C30.6182 21.2087 30.6667 21.0845 30.6667 20.9556C30.6667 20.8267 30.6182 20.7026 30.5307 20.6078C30.4433 20.5131 30.3234 20.4548 30.1949 20.4445ZM14.8616 20.4445H12.7385C12.61 20.4548 12.4901 20.5131 12.4027 20.6078C12.3152 20.7026 12.2667 20.8267 12.2667 20.9556C12.2667 21.0845 12.3152 21.2087 12.4027 21.3034C12.4901 21.3981 12.61 21.4564 12.7385 21.4667H14.8616C14.9901 21.4564 15.11 21.3981 15.1974 21.3034C15.2848 21.2087 15.3334 21.0845 15.3334 20.9556C15.3334 20.8267 15.2848 20.7026 15.1974 20.6078C15.11 20.5131 14.9901 20.4548 14.8616 20.4445ZM26.5778 20.4445H16.3556C16.22 20.4445 16.09 20.4984 15.9942 20.5942C15.8983 20.6901 15.8445 20.8201 15.8445 20.9556C15.8445 21.0912 15.8983 21.2212 15.9942 21.317C16.09 21.4129 16.22 21.4667 16.3556 21.4667H20.4291V21.9779H18.4C18.2645 21.9779 18.1345 22.0317 18.0386 22.1276C17.9428 22.2234 17.8889 22.3534 17.8889 22.489C17.8889 22.6245 17.9428 22.7545 18.0386 22.8504C18.1345 22.9462 18.2645 23.0001 18.4 23.0001H24.7889C24.9245 23.0001 25.0545 22.9462 25.1503 22.8504C25.2462 22.7545 25.3 22.6245 25.3 22.489C25.3 22.3534 25.2462 22.2234 25.1503 22.1276C25.0545 22.0317 24.9245 21.9779 24.7889 21.9779H22.5043V21.4667H26.5778C26.7134 21.4667 26.8434 21.4129 26.9392 21.317C27.0351 21.2212 27.0889 21.0912 27.0889 20.9556C27.0889 20.8201 27.0351 20.6901 26.9392 20.5942C26.8434 20.4984 26.7134 20.4445 26.5778 20.4445Z" fill="#43BEBB"/>
<path d="M38.5177 18.4H35.7682C36.6287 17.7577 37.2651 16.8608 37.587 15.8365C37.909 14.8121 37.9002 13.7124 37.5618 12.6934C37.2235 11.6743 36.5728 10.7877 35.7021 10.1594C34.8314 9.53104 33.7849 9.19287 32.7111 9.19287C31.6374 9.19287 30.5909 9.53104 29.7202 10.1594C28.8495 10.7877 28.1988 11.6743 27.8605 12.6934C27.5221 13.7124 27.5133 14.8121 27.8352 15.8365C28.1572 16.8608 28.7936 17.7577 29.6541 18.4H13.2793C14.1398 17.7577 14.7762 16.8608 15.0981 15.8365C15.4201 14.8121 15.4113 13.7124 15.0729 12.6934C14.7346 11.6743 14.0839 10.7877 13.2132 10.1594C12.3425 9.53104 11.296 9.19287 10.2222 9.19287C9.14849 9.19287 8.10202 9.53104 7.23131 10.1594C6.36061 10.7877 5.70992 11.6743 5.37157 12.6934C5.03321 13.7124 5.02439 14.8121 5.34635 15.8365C5.66831 16.8608 6.3047 17.7577 7.1652 18.4H4.41573C4.34302 18.3905 4.26912 18.3966 4.19896 18.4179C4.12881 18.4393 4.06401 18.4753 4.0089 18.5237C3.95379 18.5721 3.90964 18.6317 3.87939 18.6985C3.84914 18.7653 3.8335 18.8378 3.8335 18.9111C3.8335 18.9844 3.84914 19.0569 3.87939 19.1237C3.90964 19.1905 3.95379 19.2501 4.0089 19.2985C4.06401 19.3468 4.12881 19.3829 4.19896 19.4042C4.26912 19.4256 4.34302 19.4317 4.41573 19.4222H38.5177C38.5905 19.4317 38.6644 19.4256 38.7345 19.4042C38.8047 19.3829 38.8695 19.3468 38.9246 19.2985C38.9797 19.2501 39.0238 19.1905 39.0541 19.1237C39.0843 19.0569 39.1 18.9844 39.1 18.9111C39.1 18.8378 39.0843 18.7653 39.0541 18.6985C39.0238 18.6317 38.9797 18.5721 38.9246 18.5237C38.8695 18.4753 38.8047 18.4393 38.7345 18.4179C38.6644 18.3966 38.5905 18.3905 38.5177 18.4ZM6.1334 14.3111C6.1334 13.5024 6.37321 12.7118 6.8225 12.0394C7.2718 11.367 7.91039 10.8429 8.65754 10.5334C9.40469 10.224 10.2268 10.143 11.02 10.3008C11.8132 10.4585 12.5417 10.848 13.1136 11.4198C13.6854 11.9916 14.0748 12.7202 14.2326 13.5134C14.3904 14.3065 14.3094 15.1287 13.9999 15.8758C13.6905 16.623 13.1664 17.2616 12.494 17.7109C11.8215 18.1602 11.031 18.4 10.2223 18.4C9.13823 18.3987 8.09892 17.9675 7.33237 17.201C6.56583 16.4345 6.13464 15.3951 6.1334 14.3111ZM28.6223 14.3111C28.6223 13.5024 28.8621 12.7118 29.3114 12.0394C29.7607 11.367 30.3993 10.8429 31.1464 10.5334C31.8936 10.224 32.7157 10.143 33.5089 10.3008C34.3021 10.4585 35.0306 10.848 35.6025 11.4198C36.1743 11.9916 36.5637 12.7202 36.7215 13.5134C36.8793 14.3065 36.7983 15.1287 36.4888 15.8758C36.1794 16.623 35.6553 17.2616 34.9829 17.7109C34.3104 18.1602 33.5199 18.4 32.7112 18.4C31.6271 18.3987 30.5878 17.9675 29.8213 17.201C29.0547 16.4345 28.6235 15.3951 28.6223 14.3111Z" fill="#002D4F"/>
</svg>
