<svg width="31" height="31" viewBox="0 0 31 31" fill="none" xmlns="http://www.w3.org/2000/svg">
<path d="M23.2193 11.4422L22.4846 12.6253L18.9381 10.4175L19.6728 9.23438L23.2193 11.4422Z" stroke="#43BEBB" stroke-opacity="0.5" stroke-width="0.605469" stroke-miterlimit="10" stroke-linejoin="round"/>
<path d="M12.0618 10.4175L8.51531 12.625L8.51501 12.6253L8.36425 12.3825L7.78027 11.4422L11.3259 9.23498L11.3271 9.23438L11.9662 10.2634L12.0618 10.4175Z" stroke="#43BEBB" stroke-opacity="0.5" stroke-width="0.605469" stroke-miterlimit="10" stroke-linejoin="round"/>
<path d="M24.6571 21.2523H26.3682" stroke="#43BEBB" stroke-opacity="0.5" stroke-width="0.605469" stroke-miterlimit="10" stroke-linejoin="round"/>
<path d="M23.5566 19.5606L24.7667 18.3508" stroke="#43BEBB" stroke-opacity="0.5" stroke-width="0.605469" stroke-miterlimit="10" stroke-linejoin="round"/>
<path d="M23.5566 22.944L24.7667 24.154" stroke="#43BEBB" stroke-opacity="0.5" stroke-width="0.605469" stroke-miterlimit="10" stroke-linejoin="round"/>
<path d="M27.5951 8.9963L26.9484 9.56423C26.7728 9.71862 26.5231 9.75798 26.3084 9.66474L26.1598 9.60026L25.4874 9.30902C25.3279 9.24 25.1698 9.16825 25.0127 9.09439C23.8863 8.56309 22.8246 7.90373 21.8489 7.12934C21.7129 7.02126 21.5785 6.91137 21.4459 6.79905L20.8868 6.32527L20.7632 6.22053C20.5846 6.06916 20.5089 5.82818 20.5698 5.60234L20.7923 4.77104C20.8674 4.49131 21.2058 4.38202 21.4302 4.56518L22.5975 5.51697C23.6752 6.39551 24.8614 7.13236 26.1268 7.70877L27.4973 8.33331C27.7606 8.45319 27.8127 8.80497 27.5951 8.9963ZM11.0815 6.38824L10.9665 6.48572L10.4461 6.92651C10.3228 7.03095 10.1975 7.13358 10.071 7.23408C9.16277 7.95489 8.17495 8.56854 7.12627 9.0629C6.98005 9.13162 6.83293 9.19853 6.68428 9.26271L6.05853 9.53365L5.92018 9.59329C5.72038 9.67987 5.48788 9.64355 5.3244 9.49975L4.72256 8.97148C4.52003 8.79377 4.56847 8.46621 4.81399 8.3542L6.08971 7.77325C7.26765 7.23681 8.37172 6.55081 9.37468 5.73313L10.4615 4.84702C10.6704 4.67658 10.9852 4.7783 11.0552 5.03865L11.2622 5.81244C11.3182 6.02315 11.248 6.24747 11.0815 6.38824Z" fill="#43BEBB"/>
<path d="M14.6811 19.915L15.5 21.238L15.0401 21.9809L14.4489 21.6137L13.8574 21.2462L14.6811 19.915Z" stroke="#002D4F" stroke-width="0.605469" stroke-miterlimit="10" stroke-linejoin="round"/>
<path d="M26.0479 9.53648L22.673 14.9572C22.3006 15.5563 21.769 16.0398 21.1372 16.3534L17.3639 18.2262L16.3189 19.9151L15.5 18.5922L16.1812 17.4914L16.1872 13.2792C16.1884 12.5738 16.3858 11.883 16.7579 11.2836L20.133 5.86279L20.76 6.39409C20.909 6.52003 21.0597 6.64354 21.212 6.76464L19.6738 9.23495L19.0335 10.2633L17.9521 12.0001C17.7094 12.3913 17.5801 12.8423 17.5798 13.3028L17.5749 16.5669L20.4987 15.1159C20.9111 14.9112 21.2583 14.5955 21.5011 14.2043L22.4844 12.625L22.6354 12.3825L24.7609 8.96885C24.9371 9.0518 25.1145 9.13232 25.2935 9.20982L26.0479 9.53648Z" stroke="#002D4F" stroke-width="0.605469" stroke-miterlimit="10" stroke-linejoin="round"/>
<path d="M12.6338 25.8556L11.4511 25.1209L10.4184 26.0951L12.2185 27.2131L12.6338 25.8556Z" stroke="#002D4F" stroke-width="0.605469" stroke-miterlimit="10" stroke-linejoin="round"/>
<path d="M14.4489 21.6134L12.0424 25.4884" stroke="#002D4F" stroke-width="0.605469" stroke-miterlimit="10" stroke-linejoin="round"/>
<path d="M17.1427 21.2462L16.5511 21.6135L15.9596 21.981L15.5 21.2381L14.6811 19.9151L13.6358 18.2262L9.8628 16.3534C9.231 16.0398 8.69909 15.5563 8.32703 14.9572L4.95215 9.53647L5.70626 9.20982C5.88518 9.13232 6.06258 9.0518 6.23877 8.96885L8.36427 12.3825L8.51503 12.6253L8.51533 12.625L9.49861 14.2043C9.74171 14.5955 10.0886 14.9112 10.5013 15.1159L13.4248 16.5669L13.4202 13.3028C13.4196 12.8423 13.2907 12.3913 13.0476 12.0001L11.9662 10.2633L11.3271 9.23435L11.3259 9.23495L9.78773 6.76464C9.9403 6.64354 10.0911 6.52003 10.2397 6.39409L10.867 5.86279L14.2419 11.2836C14.6142 11.883 14.8116 12.5738 14.8128 13.2792L14.8189 17.4914L15.5 18.5922L16.3189 19.9151L17.1427 21.2462Z" stroke="#002D4F" stroke-width="0.605469" stroke-miterlimit="10" stroke-linejoin="round"/>
<path d="M8.3642 12.3825L8.51526 12.625L8.51496 12.6253L8.3642 12.3825Z" stroke="#002D4F" stroke-width="0.605469" stroke-miterlimit="10" stroke-linejoin="round"/>
<path d="M11.966 10.2634L11.3257 9.23498L11.327 9.23438L11.966 10.2634Z" stroke="#002D4F" stroke-width="0.605469" stroke-miterlimit="10" stroke-linejoin="round"/>
<path d="M18.3662 25.8557L19.5493 25.121L20.5819 26.0952L18.7819 27.2132L18.3662 25.8557Z" stroke="#002D4F" stroke-width="0.605469" stroke-miterlimit="10" stroke-linejoin="round"/>
<path d="M16.5513 21.6134L18.9577 25.4884" stroke="#002D4F" stroke-width="0.605469" stroke-miterlimit="10" stroke-linejoin="round"/>
<path d="M4.58415 18.8437L3.49222 19.9357L4.80874 21.2521L5.90067 20.1602L4.58415 18.8437Z" stroke="#43BEBB" stroke-opacity="0.5" stroke-width="0.605469" stroke-miterlimit="10" stroke-linejoin="round"/>
<path d="M6.99281 21.2521L5.90088 22.3441L7.2174 23.6606L8.30933 22.5686L6.99281 21.2521Z" stroke="#43BEBB" stroke-opacity="0.5" stroke-width="0.605469" stroke-miterlimit="10" stroke-linejoin="round"/>
<path d="M8.30933 19.9357L6.99274 21.2522L4.58418 23.6608L3.49222 22.5688L7.21736 18.8437L8.30933 19.9357Z" stroke="#43BEBB" stroke-opacity="0.5" stroke-width="0.605469" stroke-miterlimit="10" stroke-linejoin="round"/>
<path d="M27.6584 8.85859L26.933 9.49584C26.736 9.66931 26.4559 9.71321 26.215 9.60876L26.0482 9.53641L25.2937 9.20976C25.1148 9.13226 24.9374 9.05203 24.7612 8.96878C23.4973 8.3727 22.3067 7.63312 21.2123 6.76457C21.0597 6.64348 20.9092 6.51996 20.7603 6.39403L20.133 5.86273L19.9944 5.74527C19.794 5.57543 19.7092 5.30509 19.7773 5.0517L20.0268 4.11898C20.1109 3.80504 20.4906 3.68243 20.7421 3.88799L22.0515 4.95573C23.2603 5.94144 24.5911 6.7679 26.0103 7.41454L27.5479 8.11507C27.844 8.24948 27.9024 8.64425 27.6584 8.85859ZM11.0059 5.74527L10.8672 5.86273L10.24 6.39403C10.0913 6.51996 9.94057 6.64348 9.78799 6.76457C8.6936 7.63312 7.50295 8.3727 6.23903 8.96878C6.06284 9.05173 5.88544 9.13226 5.70652 9.20976L4.95241 9.53641L4.78561 9.60846C4.54463 9.7129 4.2646 9.66901 4.06752 9.49584L3.34217 8.85859C3.09816 8.64425 3.15659 8.24948 3.45236 8.11477L4.98965 7.41454C6.40917 6.7679 7.73969 5.94144 8.9485 4.95573L10.2581 3.88799C10.5097 3.68243 10.8893 3.80534 10.9735 4.11898L11.2229 5.0517C11.2911 5.30509 11.2063 5.57543 11.0059 5.74527Z" stroke="#002D4F" stroke-width="0.605469" stroke-miterlimit="10" stroke-linejoin="round"/>
</svg>
