<svg width="41" height="35" viewBox="0 0 41 35" fill="none" xmlns="http://www.w3.org/2000/svg">
<mask id="path-1-outside-1_6_8057" maskUnits="userSpaceOnUse" x="0" y="0" width="41" height="35" fill="black">
<rect fill="white" width="41" height="35"/>
<path d="M13.6302 7.04221C13.5769 6.89314 13.5496 6.73606 13.5493 6.57776V6.11263H12.6197C12.4964 6.11264 12.3782 6.16161 12.291 6.24877C12.2039 6.33594 12.1549 6.45415 12.1549 6.57742V27.9576C12.1549 28.0809 12.2039 28.1991 12.291 28.2863C12.3782 28.3735 12.4964 28.4224 12.6197 28.4224H23.0824C23.1996 28.4224 23.3125 28.3781 23.3985 28.2984L28.7386 23.3435C28.7855 23.2999 28.8229 23.2472 28.8485 23.1886C28.874 23.13 28.8872 23.0667 28.8872 23.0027V6.57742C28.8872 6.45415 28.8383 6.33594 28.7511 6.24877C28.6639 6.16161 28.5457 6.11264 28.4225 6.11263H27.4929V6.57776C27.4926 6.73606 27.4652 6.89314 27.4119 7.04221H27.9577V22.6126L23.301 22.6127C23.181 22.6117 23.0656 22.6585 22.9801 22.7427C22.8946 22.8269 22.846 22.9416 22.845 23.0615V27.4929H13.0845V7.04221H13.6302ZM23.757 23.5104L27.1921 23.5103L23.757 26.6976V23.5104Z"/>
<path d="M14.9436 7.04221H26.0985C26.2218 7.0422 26.34 6.99323 26.4272 6.90607C26.5143 6.8189 26.5633 6.70069 26.5633 6.57742V4.26075C26.5625 3.89144 26.4153 3.53753 26.1539 3.27665C25.8925 3.01578 25.5383 2.86925 25.1689 2.86922H22.8593C22.7395 2.33856 22.4428 1.86443 22.0178 1.52474C21.5929 1.18505 21.0651 1 20.5211 1C19.9771 1 19.4492 1.18505 19.0243 1.52474C18.5994 1.86443 18.3026 2.33856 18.1828 2.86922H15.8732C15.5039 2.86925 15.1497 3.01578 14.8883 3.27665C14.6269 3.53753 14.4796 3.89144 14.4788 4.26075V6.57742C14.4788 6.70069 14.5278 6.8189 14.615 6.90607C14.7021 6.99323 14.8204 7.0422 14.9436 7.04221ZM15.4084 4.26075C15.4089 4.1379 15.4582 4.02027 15.5453 3.93367C15.6324 3.84707 15.7503 3.79857 15.8732 3.7988H18.5923C18.7132 3.79881 18.8294 3.75168 18.9161 3.66741C19.0028 3.58315 19.0533 3.46839 19.0568 3.34751C19.069 2.96727 19.2286 2.60667 19.5018 2.34199C19.7751 2.07731 20.1406 1.92932 20.5211 1.92932C20.9015 1.92932 21.267 2.07731 21.5403 2.34199C21.8136 2.60667 21.9732 2.96727 21.9853 3.34751C21.9888 3.46839 22.0393 3.58315 22.126 3.66741C22.2128 3.75168 22.329 3.79881 22.4499 3.7988H25.1689C25.2918 3.79857 25.4097 3.84707 25.4969 3.93367C25.584 4.02027 25.6332 4.1379 25.6337 4.26075V6.11263H15.4084V4.26075Z"/>
<path d="M17.2676 10.0633C17.2676 10.1866 17.3165 10.3048 17.4037 10.392C17.4909 10.4791 17.6091 10.5281 17.7323 10.5281H26.5633C26.6866 10.5281 26.8048 10.4791 26.892 10.392C26.9791 10.3048 27.0281 10.1866 27.0281 10.0633C27.0281 9.94006 26.9791 9.82184 26.892 9.73467C26.8048 9.64751 26.6866 9.59854 26.5633 9.59854H17.7323C17.6091 9.59855 17.4909 9.64752 17.4037 9.73468C17.3165 9.82185 17.2676 9.94006 17.2676 10.0633Z"/>
<path d="M20.5211 3.78776C20.7778 3.78776 20.9859 3.57967 20.9859 3.32297C20.9859 3.06628 20.7778 2.85819 20.5211 2.85819C20.2644 2.85819 20.0563 3.06628 20.0563 3.32297C20.0563 3.57967 20.2644 3.78776 20.5211 3.78776Z"/>
<path d="M14.5362 11.0664C14.6138 11.1549 14.7222 11.2107 14.8393 11.2224C14.9565 11.2341 15.0737 11.201 15.1673 11.1296L16.3874 10.2001C16.436 10.1631 16.4767 10.1169 16.5074 10.0641C16.5381 10.0114 16.5582 9.95311 16.5663 9.89263C16.5745 9.83214 16.5707 9.77064 16.5551 9.71163C16.5395 9.65263 16.5124 9.59727 16.4755 9.54872C16.4385 9.50017 16.3923 9.45938 16.3395 9.42868C16.2868 9.39798 16.2285 9.37797 16.168 9.3698C16.1075 9.36162 16.046 9.36543 15.987 9.38103C15.928 9.39662 15.8727 9.42368 15.8241 9.46066L14.949 10.1273L14.8285 9.98968C14.7472 9.89698 14.6324 9.84038 14.5094 9.83231C14.3864 9.82425 14.2652 9.86538 14.1725 9.94667C14.0798 10.028 14.0232 10.1427 14.0152 10.2658C14.0071 10.3888 14.0482 10.51 14.1295 10.6027L14.5362 11.0664Z"/>
<path d="M26.5635 12.1549H17.7323C17.609 12.1549 17.4908 12.2038 17.4036 12.291C17.3165 12.3782 17.2675 12.4964 17.2675 12.6196C17.2675 12.7429 17.3165 12.8611 17.4036 12.9483C17.4908 13.0355 17.609 13.0844 17.7323 13.0844H26.5635C26.6868 13.0844 26.805 13.0355 26.8921 12.9483C26.9793 12.8611 27.0283 12.7429 27.0283 12.6196C27.0283 12.4964 26.9793 12.3782 26.8921 12.291C26.805 12.2038 26.6868 12.1549 26.5635 12.1549ZM14.5362 13.3918C14.6138 13.4803 14.7222 13.5361 14.8393 13.5478C14.9565 13.5596 15.0737 13.5264 15.1673 13.455L16.3874 12.5255C16.4855 12.4508 16.5498 12.3402 16.5663 12.218C16.5828 12.0959 16.5502 11.9722 16.4755 11.8741C16.4008 11.7761 16.2902 11.7117 16.168 11.6952C16.0459 11.6787 15.9222 11.7114 15.8241 11.7861L14.949 12.4527L14.8285 12.3151C14.7472 12.2224 14.6324 12.1658 14.5094 12.1577C14.3864 12.1497 14.2652 12.1908 14.1725 12.2721C14.0798 12.3534 14.0232 12.4682 14.0152 12.5912C14.0071 12.7142 14.0482 12.8354 14.1295 12.9281L14.5362 13.3918Z"/>
<path d="M26.5635 14.4788H17.7323C17.609 14.4788 17.4908 14.5278 17.4036 14.6149C17.3165 14.7021 17.2675 14.8203 17.2675 14.9436C17.2675 15.0669 17.3165 15.1851 17.4036 15.2722C17.4908 15.3594 17.609 15.4084 17.7323 15.4084H26.5635C26.6868 15.4084 26.805 15.3594 26.8921 15.2722C26.9793 15.1851 27.0283 15.0669 27.0283 14.9436C27.0283 14.8203 26.9793 14.7021 26.8921 14.6149C26.805 14.5278 26.6868 14.4788 26.5635 14.4788ZM14.5362 15.7172C14.6138 15.8058 14.7222 15.8615 14.8393 15.8732C14.9565 15.885 15.0737 15.8518 15.1673 15.7805L16.3874 14.8509C16.436 14.8139 16.4767 14.7677 16.5074 14.715C16.5381 14.6622 16.5582 14.6039 16.5663 14.5434C16.5745 14.483 16.5707 14.4215 16.5551 14.3625C16.5395 14.3035 16.5124 14.2481 16.4755 14.1995C16.4385 14.151 16.3923 14.1102 16.3395 14.0795C16.2868 14.0488 16.2285 14.0288 16.168 14.0206C16.1075 14.0124 16.046 14.0163 15.987 14.0319C15.928 14.0474 15.8727 14.0745 15.8241 14.1115L14.949 14.7781L14.8285 14.6405C14.7472 14.5478 14.6324 14.4912 14.5094 14.4831C14.3864 14.4751 14.2652 14.5162 14.1725 14.5975C14.0798 14.6788 14.0232 14.7936 14.0152 14.9166C14.0071 15.0396 14.0482 15.1608 14.1295 15.2535L14.5362 15.7172Z"/>
<path d="M26.5635 16.8027H17.7323C17.609 16.8027 17.4908 16.8517 17.4036 16.9389C17.3165 17.026 17.2675 17.1443 17.2675 17.2675C17.2675 17.3908 17.3165 17.509 17.4036 17.5962C17.4908 17.6833 17.609 17.7323 17.7323 17.7323H26.5635C26.6868 17.7323 26.805 17.6833 26.8921 17.5962C26.9793 17.509 27.0283 17.3908 27.0283 17.2675C27.0283 17.1443 26.9793 17.026 26.8921 16.9389C26.805 16.8517 26.6868 16.8027 26.5635 16.8027ZM14.5362 18.0427C14.6138 18.1312 14.7222 18.1869 14.8393 18.1986C14.9565 18.2104 15.0737 18.1772 15.1673 18.1059L16.3874 17.1763C16.436 17.1393 16.4767 17.0931 16.5074 17.0404C16.5381 16.9876 16.5582 16.9293 16.5663 16.8689C16.5745 16.8084 16.5707 16.7469 16.5551 16.6879C16.5395 16.6289 16.5124 16.5735 16.4755 16.525C16.4385 16.4764 16.3923 16.4356 16.3395 16.4049C16.2868 16.3742 16.2285 16.3542 16.168 16.346C16.1075 16.3379 16.046 16.3417 15.987 16.3573C15.928 16.3729 15.8727 16.3999 15.8241 16.4369L14.949 17.1036L14.8285 16.9659C14.7472 16.8732 14.6324 16.8166 14.5094 16.8086C14.3864 16.8005 14.2652 16.8416 14.1725 16.9229C14.0798 17.0042 14.0232 17.119 14.0152 17.242C14.0071 17.365 14.0482 17.4862 14.1295 17.5789L14.5362 18.0427Z"/>
<path d="M26.5633 19.1267H17.7323C17.6091 19.1267 17.4908 19.1756 17.4037 19.2628C17.3165 19.35 17.2675 19.4682 17.2675 19.5915C17.2675 19.7147 17.3165 19.8329 17.4037 19.9201C17.4908 20.0073 17.6091 20.0562 17.7323 20.0562H26.5633C26.6866 20.0562 26.8048 20.0073 26.892 19.9201C26.9791 19.8329 27.0281 19.7147 27.0281 19.5915C27.0281 19.4682 26.9791 19.35 26.892 19.2628C26.8048 19.1756 26.6866 19.1267 26.5633 19.1267ZM15.8242 18.7622L14.9491 19.4289L14.8286 19.2913C14.7473 19.1986 14.6325 19.142 14.5095 19.134C14.3865 19.1259 14.2653 19.167 14.1726 19.2483C14.0799 19.3296 14.0233 19.4444 14.0152 19.5674C14.0071 19.6904 14.0483 19.8116 14.1296 19.9043L14.5363 20.368C14.6139 20.4565 14.7222 20.5122 14.8394 20.5239C14.9565 20.5357 15.0737 20.5025 15.1674 20.4312L16.3875 19.5016C16.4855 19.4269 16.5499 19.3163 16.5664 19.1942C16.5829 19.072 16.5502 18.9483 16.4755 18.8503C16.4008 18.7522 16.2902 18.6878 16.1681 18.6713C16.0459 18.6548 15.9222 18.6875 15.8242 18.7622ZM14.4788 24.7041H16.8028C16.926 24.7041 17.0443 24.6552 17.1314 24.568C17.2186 24.4808 17.2676 24.3626 17.2676 24.2393C17.2676 24.1161 17.2186 23.9978 17.1314 23.9107C17.0443 23.8235 16.926 23.7745 16.8028 23.7745H14.4788C14.3556 23.7745 14.2373 23.8235 14.1502 23.9107C14.063 23.9978 14.014 24.1161 14.014 24.2393C14.014 24.3626 14.063 24.4808 14.1502 24.568C14.2373 24.6552 14.3556 24.7041 14.4788 24.7041Z"/>
<path d="M1.46479 30.7464C1.72148 30.7464 1.92957 30.5383 1.92957 30.2816C1.92957 30.0249 1.72148 29.8168 1.46479 29.8168C1.20809 29.8168 1 30.0249 1 30.2816C1 30.5383 1.20809 30.7464 1.46479 30.7464Z"/>
<path d="M3.55633 29.8168H2.85915C2.73588 29.8168 2.61766 29.8658 2.5305 29.9529C2.44333 30.0401 2.39436 30.1583 2.39436 30.2816C2.39436 30.4048 2.44333 30.5231 2.5305 30.6102C2.61766 30.6974 2.73588 30.7464 2.85915 30.7464H3.55633C3.6796 30.7464 3.79782 30.6974 3.88498 30.6102C3.97215 30.5231 4.02112 30.4048 4.02112 30.2816C4.02112 30.1583 3.97215 30.0401 3.88498 29.9529C3.79782 29.8658 3.6796 29.8168 3.55633 29.8168ZM38.183 29.8168H37.4858C37.3625 29.8168 37.2443 29.8658 37.1572 29.9529C37.07 30.0401 37.021 30.1583 37.021 30.2816C37.021 30.4048 37.07 30.5231 37.1572 30.6102C37.2443 30.6974 37.3625 30.7464 37.4858 30.7464H38.183C38.3063 30.7464 38.4245 30.6974 38.5117 30.6102C38.5988 30.5231 38.6478 30.4048 38.6478 30.2816C38.6478 30.1583 38.5988 30.0401 38.5117 29.9529C38.4245 29.8658 38.3063 29.8168 38.183 29.8168Z"/>
<path d="M39.5774 30.7464C39.834 30.7464 40.0421 30.5383 40.0421 30.2816C40.0421 30.0249 39.834 29.8168 39.5774 29.8168C39.3207 29.8168 39.1126 30.0249 39.1126 30.2816C39.1126 30.5383 39.3207 30.7464 39.5774 30.7464Z"/>
<path d="M28.4582 31.6759H26.5276C26.4107 31.6853 26.3017 31.7383 26.2222 31.8245C26.1427 31.9106 26.0985 32.0235 26.0985 32.1407C26.0985 32.2579 26.1427 32.3709 26.2222 32.457C26.3017 32.5431 26.4107 32.5962 26.5276 32.6055H28.4582C28.5751 32.5962 28.6841 32.5431 28.7636 32.457C28.8431 32.3709 28.8873 32.2579 28.8873 32.1407C28.8873 32.0235 28.8431 31.9106 28.7636 31.8245C28.6841 31.7383 28.5751 31.6853 28.4582 31.6759ZM14.5146 31.6759H12.5839C12.4671 31.6853 12.3581 31.7383 12.2786 31.8245C12.199 31.9106 12.1549 32.0235 12.1549 32.1407C12.1549 32.2579 12.199 32.3709 12.2786 32.457C12.3581 32.5431 12.4671 32.5962 12.5839 32.6055H14.5146C14.6314 32.5962 14.7405 32.5431 14.82 32.457C14.8995 32.3709 14.9436 32.2579 14.9436 32.1407C14.9436 32.0235 14.8995 31.9106 14.82 31.8245C14.7405 31.7383 14.6314 31.6853 14.5146 31.6759ZM25.169 31.6759H15.8732C15.7499 31.6759 15.6317 31.7249 15.5445 31.8121C15.4574 31.8992 15.4084 32.0175 15.4084 32.1407C15.4084 32.264 15.4574 32.3822 15.5445 32.4694C15.6317 32.5565 15.7499 32.6055 15.8732 32.6055H19.5776V33.0703H17.7324C17.6091 33.0703 17.4909 33.1193 17.4037 33.2064C17.3165 33.2936 17.2676 33.4118 17.2676 33.5351C17.2676 33.6584 17.3165 33.7766 17.4037 33.8637C17.4909 33.9509 17.6091 33.9999 17.7324 33.9999H23.5422C23.6655 33.9999 23.7837 33.9509 23.8708 33.8637C23.958 33.7766 24.007 33.6584 24.007 33.5351C24.007 33.4118 23.958 33.2936 23.8708 33.2064C23.7837 33.1193 23.6655 33.0703 23.5422 33.0703H21.4646V32.6055H25.169C25.2922 32.6055 25.4104 32.5565 25.4976 32.4694C25.5848 32.3822 25.6337 32.264 25.6337 32.1407C25.6337 32.0175 25.5848 31.8992 25.4976 31.8121C25.4104 31.7249 25.2922 31.6759 25.169 31.6759Z"/>
<path d="M36.0267 29.8168H31.1256C31.1807 29.6679 31.2096 29.5107 31.2112 29.352V5.64785C31.2108 5.27816 31.0638 4.92373 30.8024 4.66233C30.541 4.40092 30.1865 4.25389 29.8168 4.25348H27.4925L27.4929 4.26109V5.18306H29.8168C29.9401 5.1832 30.0582 5.23221 30.1453 5.31935C30.2325 5.40648 30.2815 5.52462 30.2816 5.64785V29.352C30.2815 29.4752 30.2325 29.5934 30.1453 29.6805C30.0582 29.7676 29.9401 29.8166 29.8168 29.8168H11.2254C11.1021 29.8166 10.984 29.7676 10.8969 29.6805C10.8097 29.5934 10.7607 29.4752 10.7606 29.352V5.64785C10.7607 5.52462 10.8097 5.40648 10.8969 5.31935C10.984 5.23221 11.1021 5.1832 11.2254 5.18306H13.5493V4.26109L13.5497 4.25348H11.2254C10.8557 4.25389 10.5012 4.40092 10.2398 4.66233C9.97843 4.92373 9.83139 5.27816 9.83099 5.64785V29.352C9.83256 29.5107 9.86153 29.6679 9.91663 29.8168H5.01549C4.94936 29.8082 4.88216 29.8137 4.81836 29.8331C4.75456 29.8525 4.69564 29.8853 4.64552 29.9293C4.59541 29.9733 4.55526 30.0275 4.52775 30.0882C4.50025 30.149 4.48602 30.2149 4.48602 30.2816C4.48602 30.3483 4.50025 30.4142 4.52775 30.4749C4.55526 30.5357 4.59541 30.5899 4.64552 30.6338C4.69564 30.6778 4.75456 30.7106 4.81836 30.73C4.88216 30.7494 4.94936 30.755 5.01549 30.7464H36.0267C36.0928 30.755 36.16 30.7494 36.2238 30.73C36.2876 30.7106 36.3466 30.6778 36.3967 30.6338C36.4468 30.5899 36.4869 30.5357 36.5144 30.4749C36.542 30.4142 36.5562 30.3483 36.5562 30.2816C36.5562 30.2149 36.542 30.149 36.5144 30.0882C36.4869 30.0275 36.4468 29.9733 36.3967 29.9293C36.3466 29.8853 36.2876 29.8525 36.2238 29.8331C36.16 29.8137 36.0928 29.8082 36.0267 29.8168Z"/>
</mask>
<path d="M13.6302 7.04221C13.5769 6.89314 13.5496 6.73606 13.5493 6.57776V6.11263H12.6197C12.4964 6.11264 12.3782 6.16161 12.291 6.24877C12.2039 6.33594 12.1549 6.45415 12.1549 6.57742V27.9576C12.1549 28.0809 12.2039 28.1991 12.291 28.2863C12.3782 28.3735 12.4964 28.4224 12.6197 28.4224H23.0824C23.1996 28.4224 23.3125 28.3781 23.3985 28.2984L28.7386 23.3435C28.7855 23.2999 28.8229 23.2472 28.8485 23.1886C28.874 23.13 28.8872 23.0667 28.8872 23.0027V6.57742C28.8872 6.45415 28.8383 6.33594 28.7511 6.24877C28.6639 6.16161 28.5457 6.11264 28.4225 6.11263H27.4929V6.57776C27.4926 6.73606 27.4652 6.89314 27.4119 7.04221H27.9577V22.6126L23.301 22.6127C23.181 22.6117 23.0656 22.6585 22.9801 22.7427C22.8946 22.8269 22.846 22.9416 22.845 23.0615V27.4929H13.0845V7.04221H13.6302ZM23.757 23.5104L27.1921 23.5103L23.757 26.6976V23.5104Z" fill="white"/>
<path d="M14.9436 7.04221H26.0985C26.2218 7.0422 26.34 6.99323 26.4272 6.90607C26.5143 6.8189 26.5633 6.70069 26.5633 6.57742V4.26075C26.5625 3.89144 26.4153 3.53753 26.1539 3.27665C25.8925 3.01578 25.5383 2.86925 25.1689 2.86922H22.8593C22.7395 2.33856 22.4428 1.86443 22.0178 1.52474C21.5929 1.18505 21.0651 1 20.5211 1C19.9771 1 19.4492 1.18505 19.0243 1.52474C18.5994 1.86443 18.3026 2.33856 18.1828 2.86922H15.8732C15.5039 2.86925 15.1497 3.01578 14.8883 3.27665C14.6269 3.53753 14.4796 3.89144 14.4788 4.26075V6.57742C14.4788 6.70069 14.5278 6.8189 14.615 6.90607C14.7021 6.99323 14.8204 7.0422 14.9436 7.04221ZM15.4084 4.26075C15.4089 4.1379 15.4582 4.02027 15.5453 3.93367C15.6324 3.84707 15.7503 3.79857 15.8732 3.7988H18.5923C18.7132 3.79881 18.8294 3.75168 18.9161 3.66741C19.0028 3.58315 19.0533 3.46839 19.0568 3.34751C19.069 2.96727 19.2286 2.60667 19.5018 2.34199C19.7751 2.07731 20.1406 1.92932 20.5211 1.92932C20.9015 1.92932 21.267 2.07731 21.5403 2.34199C21.8136 2.60667 21.9732 2.96727 21.9853 3.34751C21.9888 3.46839 22.0393 3.58315 22.126 3.66741C22.2128 3.75168 22.329 3.79881 22.4499 3.7988H25.1689C25.2918 3.79857 25.4097 3.84707 25.4969 3.93367C25.584 4.02027 25.6332 4.1379 25.6337 4.26075V6.11263H15.4084V4.26075Z" fill="white"/>
<path d="M17.2676 10.0633C17.2676 10.1866 17.3165 10.3048 17.4037 10.392C17.4909 10.4791 17.6091 10.5281 17.7323 10.5281H26.5633C26.6866 10.5281 26.8048 10.4791 26.892 10.392C26.9791 10.3048 27.0281 10.1866 27.0281 10.0633C27.0281 9.94006 26.9791 9.82184 26.892 9.73467C26.8048 9.64751 26.6866 9.59854 26.5633 9.59854H17.7323C17.6091 9.59855 17.4909 9.64752 17.4037 9.73468C17.3165 9.82185 17.2676 9.94006 17.2676 10.0633Z" fill="white"/>
<path d="M20.5211 3.78776C20.7778 3.78776 20.9859 3.57967 20.9859 3.32297C20.9859 3.06628 20.7778 2.85819 20.5211 2.85819C20.2644 2.85819 20.0563 3.06628 20.0563 3.32297C20.0563 3.57967 20.2644 3.78776 20.5211 3.78776Z" fill="white"/>
<path d="M14.5362 11.0664C14.6138 11.1549 14.7222 11.2107 14.8393 11.2224C14.9565 11.2341 15.0737 11.201 15.1673 11.1296L16.3874 10.2001C16.436 10.1631 16.4767 10.1169 16.5074 10.0641C16.5381 10.0114 16.5582 9.95311 16.5663 9.89263C16.5745 9.83214 16.5707 9.77064 16.5551 9.71163C16.5395 9.65263 16.5124 9.59727 16.4755 9.54872C16.4385 9.50017 16.3923 9.45938 16.3395 9.42868C16.2868 9.39798 16.2285 9.37797 16.168 9.3698C16.1075 9.36162 16.046 9.36543 15.987 9.38103C15.928 9.39662 15.8727 9.42368 15.8241 9.46066L14.949 10.1273L14.8285 9.98968C14.7472 9.89698 14.6324 9.84038 14.5094 9.83231C14.3864 9.82425 14.2652 9.86538 14.1725 9.94667C14.0798 10.028 14.0232 10.1427 14.0152 10.2658C14.0071 10.3888 14.0482 10.51 14.1295 10.6027L14.5362 11.0664Z" fill="white"/>
<path d="M26.5635 12.1549H17.7323C17.609 12.1549 17.4908 12.2038 17.4036 12.291C17.3165 12.3782 17.2675 12.4964 17.2675 12.6196C17.2675 12.7429 17.3165 12.8611 17.4036 12.9483C17.4908 13.0355 17.609 13.0844 17.7323 13.0844H26.5635C26.6868 13.0844 26.805 13.0355 26.8921 12.9483C26.9793 12.8611 27.0283 12.7429 27.0283 12.6196C27.0283 12.4964 26.9793 12.3782 26.8921 12.291C26.805 12.2038 26.6868 12.1549 26.5635 12.1549ZM14.5362 13.3918C14.6138 13.4803 14.7222 13.5361 14.8393 13.5478C14.9565 13.5596 15.0737 13.5264 15.1673 13.455L16.3874 12.5255C16.4855 12.4508 16.5498 12.3402 16.5663 12.218C16.5828 12.0959 16.5502 11.9722 16.4755 11.8741C16.4008 11.7761 16.2902 11.7117 16.168 11.6952C16.0459 11.6787 15.9222 11.7114 15.8241 11.7861L14.949 12.4527L14.8285 12.3151C14.7472 12.2224 14.6324 12.1658 14.5094 12.1577C14.3864 12.1497 14.2652 12.1908 14.1725 12.2721C14.0798 12.3534 14.0232 12.4682 14.0152 12.5912C14.0071 12.7142 14.0482 12.8354 14.1295 12.9281L14.5362 13.3918Z" fill="white"/>
<path d="M26.5635 14.4788H17.7323C17.609 14.4788 17.4908 14.5278 17.4036 14.6149C17.3165 14.7021 17.2675 14.8203 17.2675 14.9436C17.2675 15.0669 17.3165 15.1851 17.4036 15.2722C17.4908 15.3594 17.609 15.4084 17.7323 15.4084H26.5635C26.6868 15.4084 26.805 15.3594 26.8921 15.2722C26.9793 15.1851 27.0283 15.0669 27.0283 14.9436C27.0283 14.8203 26.9793 14.7021 26.8921 14.6149C26.805 14.5278 26.6868 14.4788 26.5635 14.4788ZM14.5362 15.7172C14.6138 15.8058 14.7222 15.8615 14.8393 15.8732C14.9565 15.885 15.0737 15.8518 15.1673 15.7805L16.3874 14.8509C16.436 14.8139 16.4767 14.7677 16.5074 14.715C16.5381 14.6622 16.5582 14.6039 16.5663 14.5434C16.5745 14.483 16.5707 14.4215 16.5551 14.3625C16.5395 14.3035 16.5124 14.2481 16.4755 14.1995C16.4385 14.151 16.3923 14.1102 16.3395 14.0795C16.2868 14.0488 16.2285 14.0288 16.168 14.0206C16.1075 14.0124 16.046 14.0163 15.987 14.0319C15.928 14.0474 15.8727 14.0745 15.8241 14.1115L14.949 14.7781L14.8285 14.6405C14.7472 14.5478 14.6324 14.4912 14.5094 14.4831C14.3864 14.4751 14.2652 14.5162 14.1725 14.5975C14.0798 14.6788 14.0232 14.7936 14.0152 14.9166C14.0071 15.0396 14.0482 15.1608 14.1295 15.2535L14.5362 15.7172Z" fill="white"/>
<path d="M26.5635 16.8027H17.7323C17.609 16.8027 17.4908 16.8517 17.4036 16.9389C17.3165 17.026 17.2675 17.1443 17.2675 17.2675C17.2675 17.3908 17.3165 17.509 17.4036 17.5962C17.4908 17.6833 17.609 17.7323 17.7323 17.7323H26.5635C26.6868 17.7323 26.805 17.6833 26.8921 17.5962C26.9793 17.509 27.0283 17.3908 27.0283 17.2675C27.0283 17.1443 26.9793 17.026 26.8921 16.9389C26.805 16.8517 26.6868 16.8027 26.5635 16.8027ZM14.5362 18.0427C14.6138 18.1312 14.7222 18.1869 14.8393 18.1986C14.9565 18.2104 15.0737 18.1772 15.1673 18.1059L16.3874 17.1763C16.436 17.1393 16.4767 17.0931 16.5074 17.0404C16.5381 16.9876 16.5582 16.9293 16.5663 16.8689C16.5745 16.8084 16.5707 16.7469 16.5551 16.6879C16.5395 16.6289 16.5124 16.5735 16.4755 16.525C16.4385 16.4764 16.3923 16.4356 16.3395 16.4049C16.2868 16.3742 16.2285 16.3542 16.168 16.346C16.1075 16.3379 16.046 16.3417 15.987 16.3573C15.928 16.3729 15.8727 16.3999 15.8241 16.4369L14.949 17.1036L14.8285 16.9659C14.7472 16.8732 14.6324 16.8166 14.5094 16.8086C14.3864 16.8005 14.2652 16.8416 14.1725 16.9229C14.0798 17.0042 14.0232 17.119 14.0152 17.242C14.0071 17.365 14.0482 17.4862 14.1295 17.5789L14.5362 18.0427Z" fill="white"/>
<path d="M26.5633 19.1267H17.7323C17.6091 19.1267 17.4908 19.1756 17.4037 19.2628C17.3165 19.35 17.2675 19.4682 17.2675 19.5915C17.2675 19.7147 17.3165 19.8329 17.4037 19.9201C17.4908 20.0073 17.6091 20.0562 17.7323 20.0562H26.5633C26.6866 20.0562 26.8048 20.0073 26.892 19.9201C26.9791 19.8329 27.0281 19.7147 27.0281 19.5915C27.0281 19.4682 26.9791 19.35 26.892 19.2628C26.8048 19.1756 26.6866 19.1267 26.5633 19.1267ZM15.8242 18.7622L14.9491 19.4289L14.8286 19.2913C14.7473 19.1986 14.6325 19.142 14.5095 19.134C14.3865 19.1259 14.2653 19.167 14.1726 19.2483C14.0799 19.3296 14.0233 19.4444 14.0152 19.5674C14.0071 19.6904 14.0483 19.8116 14.1296 19.9043L14.5363 20.368C14.6139 20.4565 14.7222 20.5122 14.8394 20.5239C14.9565 20.5357 15.0737 20.5025 15.1674 20.4312L16.3875 19.5016C16.4855 19.4269 16.5499 19.3163 16.5664 19.1942C16.5829 19.072 16.5502 18.9483 16.4755 18.8503C16.4008 18.7522 16.2902 18.6878 16.1681 18.6713C16.0459 18.6548 15.9222 18.6875 15.8242 18.7622ZM14.4788 24.7041H16.8028C16.926 24.7041 17.0443 24.6552 17.1314 24.568C17.2186 24.4808 17.2676 24.3626 17.2676 24.2393C17.2676 24.1161 17.2186 23.9978 17.1314 23.9107C17.0443 23.8235 16.926 23.7745 16.8028 23.7745H14.4788C14.3556 23.7745 14.2373 23.8235 14.1502 23.9107C14.063 23.9978 14.014 24.1161 14.014 24.2393C14.014 24.3626 14.063 24.4808 14.1502 24.568C14.2373 24.6552 14.3556 24.7041 14.4788 24.7041Z" fill="white"/>
<path d="M1.46479 30.7464C1.72148 30.7464 1.92957 30.5383 1.92957 30.2816C1.92957 30.0249 1.72148 29.8168 1.46479 29.8168C1.20809 29.8168 1 30.0249 1 30.2816C1 30.5383 1.20809 30.7464 1.46479 30.7464Z" fill="white"/>
<path d="M3.55633 29.8168H2.85915C2.73588 29.8168 2.61766 29.8658 2.5305 29.9529C2.44333 30.0401 2.39436 30.1583 2.39436 30.2816C2.39436 30.4048 2.44333 30.5231 2.5305 30.6102C2.61766 30.6974 2.73588 30.7464 2.85915 30.7464H3.55633C3.6796 30.7464 3.79782 30.6974 3.88498 30.6102C3.97215 30.5231 4.02112 30.4048 4.02112 30.2816C4.02112 30.1583 3.97215 30.0401 3.88498 29.9529C3.79782 29.8658 3.6796 29.8168 3.55633 29.8168ZM38.183 29.8168H37.4858C37.3625 29.8168 37.2443 29.8658 37.1572 29.9529C37.07 30.0401 37.021 30.1583 37.021 30.2816C37.021 30.4048 37.07 30.5231 37.1572 30.6102C37.2443 30.6974 37.3625 30.7464 37.4858 30.7464H38.183C38.3063 30.7464 38.4245 30.6974 38.5117 30.6102C38.5988 30.5231 38.6478 30.4048 38.6478 30.2816C38.6478 30.1583 38.5988 30.0401 38.5117 29.9529C38.4245 29.8658 38.3063 29.8168 38.183 29.8168Z" fill="white"/>
<path d="M39.5774 30.7464C39.834 30.7464 40.0421 30.5383 40.0421 30.2816C40.0421 30.0249 39.834 29.8168 39.5774 29.8168C39.3207 29.8168 39.1126 30.0249 39.1126 30.2816C39.1126 30.5383 39.3207 30.7464 39.5774 30.7464Z" fill="white"/>
<path d="M28.4582 31.6759H26.5276C26.4107 31.6853 26.3017 31.7383 26.2222 31.8245C26.1427 31.9106 26.0985 32.0235 26.0985 32.1407C26.0985 32.2579 26.1427 32.3709 26.2222 32.457C26.3017 32.5431 26.4107 32.5962 26.5276 32.6055H28.4582C28.5751 32.5962 28.6841 32.5431 28.7636 32.457C28.8431 32.3709 28.8873 32.2579 28.8873 32.1407C28.8873 32.0235 28.8431 31.9106 28.7636 31.8245C28.6841 31.7383 28.5751 31.6853 28.4582 31.6759ZM14.5146 31.6759H12.5839C12.4671 31.6853 12.3581 31.7383 12.2786 31.8245C12.199 31.9106 12.1549 32.0235 12.1549 32.1407C12.1549 32.2579 12.199 32.3709 12.2786 32.457C12.3581 32.5431 12.4671 32.5962 12.5839 32.6055H14.5146C14.6314 32.5962 14.7405 32.5431 14.82 32.457C14.8995 32.3709 14.9436 32.2579 14.9436 32.1407C14.9436 32.0235 14.8995 31.9106 14.82 31.8245C14.7405 31.7383 14.6314 31.6853 14.5146 31.6759ZM25.169 31.6759H15.8732C15.7499 31.6759 15.6317 31.7249 15.5445 31.8121C15.4574 31.8992 15.4084 32.0175 15.4084 32.1407C15.4084 32.264 15.4574 32.3822 15.5445 32.4694C15.6317 32.5565 15.7499 32.6055 15.8732 32.6055H19.5776V33.0703H17.7324C17.6091 33.0703 17.4909 33.1193 17.4037 33.2064C17.3165 33.2936 17.2676 33.4118 17.2676 33.5351C17.2676 33.6584 17.3165 33.7766 17.4037 33.8637C17.4909 33.9509 17.6091 33.9999 17.7324 33.9999H23.5422C23.6655 33.9999 23.7837 33.9509 23.8708 33.8637C23.958 33.7766 24.007 33.6584 24.007 33.5351C24.007 33.4118 23.958 33.2936 23.8708 33.2064C23.7837 33.1193 23.6655 33.0703 23.5422 33.0703H21.4646V32.6055H25.169C25.2922 32.6055 25.4104 32.5565 25.4976 32.4694C25.5848 32.3822 25.6337 32.264 25.6337 32.1407C25.6337 32.0175 25.5848 31.8992 25.4976 31.8121C25.4104 31.7249 25.2922 31.6759 25.169 31.6759Z" fill="white"/>
<path d="M36.0267 29.8168H31.1256C31.1807 29.6679 31.2096 29.5107 31.2112 29.352V5.64785C31.2108 5.27816 31.0638 4.92373 30.8024 4.66233C30.541 4.40092 30.1865 4.25389 29.8168 4.25348H27.4925L27.4929 4.26109V5.18306H29.8168C29.9401 5.1832 30.0582 5.23221 30.1453 5.31935C30.2325 5.40648 30.2815 5.52462 30.2816 5.64785V29.352C30.2815 29.4752 30.2325 29.5934 30.1453 29.6805C30.0582 29.7676 29.9401 29.8166 29.8168 29.8168H11.2254C11.1021 29.8166 10.984 29.7676 10.8969 29.6805C10.8097 29.5934 10.7607 29.4752 10.7606 29.352V5.64785C10.7607 5.52462 10.8097 5.40648 10.8969 5.31935C10.984 5.23221 11.1021 5.1832 11.2254 5.18306H13.5493V4.26109L13.5497 4.25348H11.2254C10.8557 4.25389 10.5012 4.40092 10.2398 4.66233C9.97843 4.92373 9.83139 5.27816 9.83099 5.64785V29.352C9.83256 29.5107 9.86153 29.6679 9.91663 29.8168H5.01549C4.94936 29.8082 4.88216 29.8137 4.81836 29.8331C4.75456 29.8525 4.69564 29.8853 4.64552 29.9293C4.59541 29.9733 4.55526 30.0275 4.52775 30.0882C4.50025 30.149 4.48602 30.2149 4.48602 30.2816C4.48602 30.3483 4.50025 30.4142 4.52775 30.4749C4.55526 30.5357 4.59541 30.5899 4.64552 30.6338C4.69564 30.6778 4.75456 30.7106 4.81836 30.73C4.88216 30.7494 4.94936 30.755 5.01549 30.7464H36.0267C36.0928 30.755 36.16 30.7494 36.2238 30.73C36.2876 30.7106 36.3466 30.6778 36.3967 30.6338C36.4468 30.5899 36.4869 30.5357 36.5144 30.4749C36.542 30.4142 36.5562 30.3483 36.5562 30.2816C36.5562 30.2149 36.542 30.149 36.5144 30.0882C36.4869 30.0275 36.4468 29.9733 36.3967 29.9293C36.3466 29.8853 36.2876 29.8525 36.2238 29.8331C36.16 29.8137 36.0928 29.8082 36.0267 29.8168Z" fill="white"/>
<path d="M13.6302 7.04221V7.14221H13.7721L13.7244 7.00857L13.6302 7.04221ZM13.5493 6.57776H13.4493L13.4493 6.57795L13.5493 6.57776ZM13.5493 6.11263H13.6493V6.01263H13.5493V6.11263ZM12.6197 6.11263V6.01263H12.6197L12.6197 6.11263ZM12.1549 6.57742L12.0549 6.57742V6.57742H12.1549ZM12.1549 27.9576H12.0549V27.9576L12.1549 27.9576ZM12.6197 28.4224L12.6197 28.5224H12.6197V28.4224ZM23.0824 28.4224V28.5224H23.0824L23.0824 28.4224ZM23.3985 28.2984L23.4665 28.3717L23.4665 28.3717L23.3985 28.2984ZM28.7386 23.3435L28.8066 23.4168L28.8066 23.4168L28.7386 23.3435ZM28.8872 23.0027H28.7872V23.0027L28.8872 23.0027ZM28.8872 6.57742H28.9872V6.57742L28.8872 6.57742ZM28.4225 6.11263L28.4225 6.01263H28.4225V6.11263ZM27.4929 6.11263V6.01263H27.3929V6.11263H27.4929ZM27.4929 6.57776L27.5929 6.57795V6.57776H27.4929ZM27.4119 7.04221L27.3178 7.00857L27.27 7.14221H27.4119V7.04221ZM27.9577 7.04221H28.0577V6.94221H27.9577V7.04221ZM27.9577 22.6126L27.9577 22.7126L28.0577 22.7126V22.6126H27.9577ZM23.301 22.6127L23.3002 22.7127H23.301L23.301 22.6127ZM22.845 23.0615L22.745 23.0607V23.0615H22.845ZM22.845 27.4929V27.5929H22.945V27.4929H22.845ZM13.0845 27.4929H12.9845V27.5929H13.0845V27.4929ZM13.0845 7.04221V6.94221H12.9845V7.04221H13.0845ZM23.757 23.5104L23.757 23.4104L23.657 23.4104V23.5104H23.757ZM27.1921 23.5103L27.2601 23.5836L27.4469 23.4103L27.1921 23.4103L27.1921 23.5103ZM23.757 26.6976H23.657V26.9268L23.825 26.7709L23.757 26.6976ZM14.9436 7.04221L14.9436 7.14221H14.9436V7.04221ZM26.0985 7.04221V7.14221H26.0985L26.0985 7.04221ZM26.5633 6.57742L26.6633 6.57743V6.57742H26.5633ZM26.5633 4.26075H26.6633V4.26053L26.5633 4.26075ZM25.1689 2.86922L25.169 2.76922H25.1689V2.86922ZM22.8593 2.86922L22.7618 2.89124L22.7794 2.96922H22.8593V2.86922ZM20.5211 1V1.1V1ZM18.1828 2.86922V2.96922H18.2628L18.2804 2.89124L18.1828 2.86922ZM15.8732 2.86922V2.76922H15.8732L15.8732 2.86922ZM14.4788 4.26075L14.3788 4.26053V4.26075H14.4788ZM14.4788 6.57742H14.3788V6.57743L14.4788 6.57742ZM15.4084 4.26075L15.3084 4.26032V4.26075H15.4084ZM15.8732 3.7988L15.873 3.8988H15.8732V3.7988ZM18.5923 3.7988L18.5923 3.6988H18.5923V3.7988ZM19.0568 3.34751L18.9569 3.34432L18.9568 3.34462L19.0568 3.34751ZM21.9853 3.34751L22.0853 3.34462L22.0853 3.34432L21.9853 3.34751ZM22.4499 3.7988V3.6988H22.4499L22.4499 3.7988ZM25.1689 3.7988V3.8988L25.1691 3.8988L25.1689 3.7988ZM25.6337 4.26075H25.7337L25.7337 4.26032L25.6337 4.26075ZM25.6337 6.11263V6.21263H25.7337V6.11263H25.6337ZM15.4084 6.11263H15.3084V6.21263H15.4084V6.11263ZM17.2676 10.0633L17.1676 10.0633V10.0633L17.2676 10.0633ZM17.7323 10.5281L17.7323 10.6281H17.7323V10.5281ZM17.7323 9.59854V9.49854H17.7323L17.7323 9.59854ZM14.5362 11.0664L14.461 11.1324L14.461 11.1324L14.5362 11.0664ZM15.1673 11.1296L15.2279 11.2092L15.1673 11.1296ZM16.3874 10.2001L16.3268 10.1205L16.3268 10.1205L16.3874 10.2001ZM15.8241 9.46066L15.8847 9.54021H15.8847L15.8241 9.46066ZM14.949 10.1273L14.8738 10.1932L14.9353 10.2635L15.0096 10.2069L14.949 10.1273ZM14.8285 9.98968L14.9038 9.92381L14.9037 9.92374L14.8285 9.98968ZM14.1295 10.6027L14.2047 10.5367H14.2047L14.1295 10.6027ZM14.5362 13.3918L14.461 13.4578L14.461 13.4578L14.5362 13.3918ZM15.1673 13.455L15.2279 13.5346L15.1673 13.455ZM16.3874 12.5255L16.3268 12.4459L16.3268 12.4459L16.3874 12.5255ZM15.8241 11.7861L15.8847 11.8656H15.8847L15.8241 11.7861ZM14.949 12.4527L14.8738 12.5186L14.9353 12.5889L15.0096 12.5323L14.949 12.4527ZM14.8285 12.3151L14.9038 12.2492L14.9037 12.2492L14.8285 12.3151ZM14.1295 12.9281L14.2047 12.8621H14.2047L14.1295 12.9281ZM14.5362 15.7172L14.461 15.7832L14.461 15.7832L14.5362 15.7172ZM15.1673 15.7805L15.2279 15.86L15.1673 15.7805ZM16.3874 14.8509L16.3268 14.7713L16.3268 14.7713L16.3874 14.8509ZM15.8241 14.1115L15.8847 14.191H15.8847L15.8241 14.1115ZM14.949 14.7781L14.8738 14.844L14.9353 14.9143L15.0096 14.8577L14.949 14.7781ZM14.8285 14.6405L14.9038 14.5746L14.9037 14.5746L14.8285 14.6405ZM14.1295 15.2535L14.2047 15.1876L14.2047 15.1876L14.1295 15.2535ZM14.5362 18.0427L14.461 18.1086L14.461 18.1086L14.5362 18.0427ZM15.1673 18.1059L15.2279 18.1854L15.1673 18.1059ZM16.3874 17.1763L16.3268 17.0967L16.3268 17.0968L16.3874 17.1763ZM15.8241 16.4369L15.8847 16.5164H15.8847L15.8241 16.4369ZM14.949 17.1036L14.8738 17.1694L14.9353 17.2397L15.0096 17.1831L14.949 17.1036ZM14.8285 16.9659L14.9038 16.9L14.9037 16.9L14.8285 16.9659ZM14.1295 17.5789L14.2047 17.513H14.2047L14.1295 17.5789ZM15.8242 18.7622L15.8848 18.8417L15.8848 18.8417L15.8242 18.7622ZM14.9491 19.4289L14.8739 19.4948L14.9354 19.565L15.0097 19.5084L14.9491 19.4289ZM14.8286 19.2913L14.9038 19.2254L14.9037 19.2254L14.8286 19.2913ZM14.1296 19.9043L14.0544 19.9702L14.0544 19.9702L14.1296 19.9043ZM14.5363 20.368L14.4611 20.4339L14.4611 20.4339L14.5363 20.368ZM15.1674 20.4312L15.228 20.5107L15.1674 20.4312ZM16.3875 19.5016L16.3269 19.422L16.3269 19.4221L16.3875 19.5016ZM2.39436 30.2816H2.29436H2.39436ZM28.4582 31.6759L28.4662 31.5759H28.4582V31.6759ZM26.5276 31.6759V31.5756L26.5196 31.5763L26.5276 31.6759ZM26.5276 32.6055L26.5195 32.7055H26.5276V32.6055ZM28.4582 32.6055V32.7058L28.4662 32.7052L28.4582 32.6055ZM14.5146 31.6759L14.5226 31.5759H14.5146V31.6759ZM12.5839 31.6759V31.5756L12.5759 31.5763L12.5839 31.6759ZM12.5839 32.6055L12.5759 32.7055H12.5839V32.6055ZM14.5146 32.6055V32.7058L14.5226 32.7052L14.5146 32.6055ZM14.9436 32.1407H15.0436H14.9436ZM19.5776 32.6055H19.6776V32.5055H19.5776V32.6055ZM19.5776 33.0703V33.1703H19.6776V33.0703H19.5776ZM21.4646 33.0703H21.3646V33.1703H21.4646V33.0703ZM21.4646 32.6055V32.5055H21.3646V32.6055H21.4646ZM36.0267 29.8168V29.9176L36.0397 29.9159L36.0267 29.8168ZM31.1256 29.8168L31.0318 29.7821L30.9819 29.9168H31.1256V29.8168ZM31.2112 29.352L31.3112 29.353V29.352H31.2112ZM31.2112 5.64785H31.3112V5.64774L31.2112 5.64785ZM29.8168 4.25348L29.817 4.15348H29.8168V4.25348ZM27.4925 4.25348V4.15348H27.3874L27.3927 4.25852L27.4925 4.25348ZM27.4929 4.26109H27.593L27.5928 4.25605L27.4929 4.26109ZM27.4929 5.18306H27.3929V5.28306H27.4929V5.18306ZM29.8168 5.18306L29.817 5.08306H29.8168V5.18306ZM30.2816 5.64785H30.3816V5.64773L30.2816 5.64785ZM30.2816 29.352L30.3816 29.3521V29.352H30.2816ZM29.8168 29.8168V29.9168H29.817L29.8168 29.8168ZM11.2254 29.8168L11.2252 29.9168H11.2254V29.8168ZM10.7606 29.352H10.6606V29.3521L10.7606 29.352ZM10.7606 5.64785L10.6606 5.64773V5.64785H10.7606ZM11.2254 5.18306V5.08306H11.2252L11.2254 5.18306ZM13.5493 5.18306V5.28306H13.6493V5.18306H13.5493ZM13.5493 4.26109L13.4493 4.25604V4.26109H13.5493ZM13.5497 4.25348L13.6495 4.25852L13.6548 4.15348H13.5497V4.25348ZM11.2254 4.25348V4.15348L11.2252 4.15348L11.2254 4.25348ZM9.83099 5.64785L9.73099 5.64774V5.64785H9.83099ZM9.83099 29.352H9.73098L9.73099 29.353L9.83099 29.352ZM9.91663 29.8168V29.9168H10.0603L10.0104 29.7821L9.91663 29.8168ZM5.01549 29.8168L5.00242 29.9168H5.01549V29.8168ZM5.01549 30.7464V30.6455L5.00253 30.6472L5.01549 30.7464ZM36.0267 30.7464L36.0398 30.6464H36.0267V30.7464ZM13.7244 7.00857C13.6749 6.87023 13.6495 6.72446 13.6493 6.57757L13.4493 6.57795C13.4496 6.74765 13.4789 6.91604 13.536 7.07585L13.7244 7.00857ZM13.6493 6.57776V6.11263H13.4493V6.57776H13.6493ZM13.5493 6.01263H12.6197V6.21263H13.5493V6.01263ZM12.6197 6.01263C12.4699 6.01264 12.3262 6.07215 12.2203 6.17806L12.3617 6.31948C12.4302 6.25107 12.5229 6.21264 12.6197 6.21263L12.6197 6.01263ZM12.2203 6.17806C12.1144 6.28398 12.0549 6.42763 12.0549 6.57742L12.2549 6.57743C12.2549 6.48068 12.2933 6.38789 12.3617 6.31948L12.2203 6.17806ZM12.0549 6.57742V27.9576H12.2549V6.57742H12.0549ZM12.0549 27.9576C12.0549 28.1074 12.1144 28.2511 12.2203 28.357L12.3617 28.2156C12.2933 28.1472 12.2549 28.0544 12.2549 27.9576L12.0549 27.9576ZM12.2203 28.357C12.3262 28.4629 12.4699 28.5224 12.6197 28.5224L12.6197 28.3224C12.5229 28.3224 12.4302 28.284 12.3617 28.2156L12.2203 28.357ZM12.6197 28.5224H23.0824V28.3224H12.6197V28.5224ZM23.0824 28.5224C23.2249 28.5224 23.362 28.4686 23.4665 28.3717L23.3305 28.2251C23.2631 28.2876 23.1744 28.3224 23.0824 28.3224L23.0824 28.5224ZM23.4665 28.3717L28.8066 23.4168L28.6706 23.2702L23.3305 28.2251L23.4665 28.3717ZM28.8066 23.4168C28.8636 23.3639 28.909 23.2998 28.9401 23.2286L28.7568 23.1486C28.7367 23.1946 28.7074 23.236 28.6706 23.2702L28.8066 23.4168ZM28.9401 23.2286C28.9712 23.1573 28.9872 23.0804 28.9872 23.0027L28.7872 23.0027C28.7872 23.0529 28.7769 23.1026 28.7568 23.1486L28.9401 23.2286ZM28.9872 23.0027V6.57742H28.7872V23.0027H28.9872ZM28.9872 6.57742C28.9872 6.42763 28.9277 6.28398 28.8218 6.17806L28.6804 6.31948C28.7488 6.3879 28.7872 6.48068 28.7872 6.57743L28.9872 6.57742ZM28.8218 6.17806C28.7159 6.07215 28.5722 6.01264 28.4225 6.01263L28.4225 6.21263C28.5192 6.21264 28.612 6.25107 28.6804 6.31948L28.8218 6.17806ZM28.4225 6.01263H27.4929V6.21263H28.4225V6.01263ZM27.3929 6.11263V6.57776H27.5929V6.11263H27.3929ZM27.3929 6.57757C27.3926 6.72446 27.3672 6.87023 27.3178 7.00857L27.5061 7.07585C27.5632 6.91604 27.5926 6.74765 27.5929 6.57795L27.3929 6.57757ZM27.4119 7.14221H27.9577V6.94221H27.4119V7.14221ZM27.8577 7.04221V22.6126H28.0577V7.04221H27.8577ZM27.9577 22.5126L23.301 22.5127L23.301 22.7127L27.9577 22.7126L27.9577 22.5126ZM23.3018 22.5127C23.1553 22.5115 23.0143 22.5686 22.9099 22.6714L23.0502 22.814C23.1168 22.7484 23.2068 22.712 23.3002 22.7127L23.3018 22.5127ZM22.9099 22.6714C22.8055 22.7742 22.7462 22.9142 22.745 23.0607L22.945 23.0623C22.9458 22.9689 22.9836 22.8795 23.0502 22.814L22.9099 22.6714ZM22.745 23.0615V27.4929H22.945V23.0615H22.745ZM22.845 27.3929H13.0845V27.5929H22.845V27.3929ZM13.1845 27.4929V7.04221H12.9845V27.4929H13.1845ZM13.0845 7.14221H13.6302V6.94221H13.0845V7.14221ZM23.757 23.6104L27.1921 23.6103L27.1921 23.4103L23.757 23.4104L23.757 23.6104ZM27.1241 23.437L23.689 26.6243L23.825 26.7709L27.2601 23.5836L27.1241 23.437ZM23.857 26.6976V23.5104H23.657V26.6976H23.857ZM14.9436 7.14221H26.0985V6.94221H14.9436V7.14221ZM26.0985 7.14221C26.2483 7.1422 26.392 7.08269 26.4979 6.97678L26.3565 6.83536C26.288 6.90377 26.1953 6.9422 26.0985 6.94221L26.0985 7.14221ZM26.4979 6.97678C26.6038 6.87086 26.6633 6.72721 26.6633 6.57743L26.4633 6.57742C26.4633 6.67416 26.4249 6.76695 26.3565 6.83536L26.4979 6.97678ZM26.6633 6.57742V4.26075H26.4633V6.57742H26.6633ZM26.6633 4.26053C26.6625 3.86474 26.5047 3.48545 26.2245 3.20587L26.0832 3.34743C26.3259 3.5896 26.4626 3.91814 26.4633 4.26096L26.6633 4.26053ZM26.2245 3.20587C25.9444 2.92629 25.5647 2.76925 25.169 2.76922L25.1689 2.96922C25.5118 2.96925 25.8406 3.10527 26.0832 3.34743L26.2245 3.20587ZM25.1689 2.76922H22.8593V2.96922H25.1689V2.76922ZM22.9569 2.8472C22.8321 2.2944 22.5229 1.80049 22.0803 1.44663L21.9554 1.60285C22.3626 1.92837 22.647 2.38272 22.7618 2.89124L22.9569 2.8472ZM22.0803 1.44663C21.6376 1.09277 21.0878 0.9 20.5211 0.9V1.1C21.0424 1.1 21.5482 1.27733 21.9554 1.60285L22.0803 1.44663ZM20.5211 0.9C19.9544 0.9 19.4045 1.09277 18.9619 1.44663L19.0867 1.60285C19.4939 1.27733 19.9998 1.1 20.5211 1.1V0.9ZM18.9619 1.44663C18.5192 1.80049 18.2101 2.2944 18.0853 2.8472L18.2804 2.89124C18.3952 2.38272 18.6796 1.92837 19.0867 1.60285L18.9619 1.44663ZM18.1828 2.76922H15.8732V2.96922H18.1828V2.76922ZM15.8732 2.76922C15.4774 2.76925 15.0978 2.92629 14.8176 3.20587L14.9589 3.34743C15.2016 3.10527 15.5304 2.96925 15.8732 2.96922L15.8732 2.76922ZM14.8176 3.20587C14.5375 3.48545 14.3797 3.86474 14.3788 4.26053L14.5788 4.26096C14.5796 3.91814 14.7163 3.5896 14.9589 3.34743L14.8176 3.20587ZM14.3788 4.26075V6.57742H14.5788V4.26075H14.3788ZM14.3788 6.57743C14.3788 6.72721 14.4383 6.87086 14.5443 6.97678L14.6857 6.83536C14.6173 6.76695 14.5788 6.67416 14.5788 6.57742L14.3788 6.57743ZM14.5443 6.97678C14.6502 7.08269 14.7938 7.1422 14.9436 7.14221L14.9436 6.94221C14.8469 6.9422 14.7541 6.90377 14.6857 6.83536L14.5443 6.97678ZM15.5084 4.26117C15.5088 4.1648 15.5474 4.07253 15.6158 4.0046L15.4748 3.86274C15.3689 3.96801 15.309 4.11099 15.3084 4.26032L15.5084 4.26117ZM15.6158 4.0046C15.6841 3.93666 15.7766 3.89862 15.873 3.8988L15.8734 3.6988C15.7241 3.69852 15.5807 3.75748 15.4748 3.86274L15.6158 4.0046ZM15.8732 3.8988H18.5923V3.6988H15.8732V3.8988ZM18.5922 3.8988C18.7392 3.89881 18.8804 3.84154 18.9858 3.73914L18.8464 3.59569C18.7783 3.66182 18.6872 3.6988 18.5923 3.6988L18.5922 3.8988ZM18.9858 3.73914C19.0912 3.63675 19.1525 3.49729 19.1568 3.3504L18.9568 3.34462C18.9541 3.43949 18.9145 3.52955 18.8464 3.59569L18.9858 3.73914ZM19.1568 3.35071C19.1681 2.99642 19.3168 2.66043 19.5714 2.41382L19.4323 2.27016C19.1403 2.5529 18.9698 2.93812 18.9569 3.34432L19.1568 3.35071ZM19.5714 2.41382C19.826 2.16721 20.1666 2.02932 20.5211 2.02932V1.82932C20.1147 1.82932 19.7242 1.98742 19.4323 2.27016L19.5714 2.41382ZM20.5211 2.02932C20.8755 2.02932 21.2161 2.16721 21.4707 2.41382L21.6099 2.27016C21.3179 1.98742 20.9275 1.82932 20.5211 1.82932V2.02932ZM21.4707 2.41382C21.7253 2.66043 21.8741 2.99642 21.8854 3.35071L22.0853 3.34432C22.0723 2.93812 21.9018 2.5529 21.6099 2.27016L21.4707 2.41382ZM21.8854 3.3504C21.8896 3.49729 21.951 3.63675 22.0564 3.73914L22.1957 3.59569C22.1276 3.52955 22.088 3.43949 22.0853 3.34462L21.8854 3.3504ZM22.0564 3.73914C22.1618 3.84154 22.3029 3.89881 22.4499 3.8988L22.4499 3.6988C22.355 3.6988 22.2638 3.66182 22.1957 3.59569L22.0564 3.73914ZM22.4499 3.8988H25.1689V3.6988H22.4499V3.8988ZM25.1691 3.8988C25.2655 3.89862 25.358 3.93667 25.4264 4.0046L25.5673 3.86274C25.4614 3.75748 25.3181 3.69852 25.1688 3.6988L25.1691 3.8988ZM25.4264 4.0046C25.4947 4.07253 25.5333 4.1648 25.5337 4.26117L25.7337 4.26032C25.7331 4.11099 25.6733 3.96801 25.5673 3.86274L25.4264 4.0046ZM25.5337 4.26075V6.11263H25.7337V4.26075H25.5337ZM25.6337 6.01263H15.4084V6.21263H25.6337V6.01263ZM15.5084 6.11263V4.26075H15.3084V6.11263H15.5084ZM17.1676 10.0633C17.1676 10.2131 17.2271 10.3568 17.333 10.4627L17.4744 10.3213C17.406 10.2528 17.3676 10.1601 17.3676 10.0633L17.1676 10.0633ZM17.333 10.4627C17.4389 10.5686 17.5825 10.6281 17.7323 10.6281L17.7323 10.4281C17.6356 10.4281 17.5428 10.3897 17.4744 10.3213L17.333 10.4627ZM17.7323 10.6281H26.5633V10.4281H17.7323V10.6281ZM26.5633 10.6281C26.7131 10.6281 26.8568 10.5686 26.9627 10.4627L26.8213 10.3213C26.7529 10.3897 26.6601 10.4281 26.5633 10.4281V10.6281ZM26.9627 10.4627C27.0686 10.3568 27.1281 10.2131 27.1281 10.0633H26.9281C26.9281 10.1601 26.8897 10.2529 26.8213 10.3213L26.9627 10.4627ZM27.1281 10.0633C27.1281 9.91354 27.0686 9.76988 26.9627 9.66396L26.8213 9.80538C26.8897 9.87379 26.9281 9.96658 26.9281 10.0633H27.1281ZM26.9627 9.66396C26.8568 9.55804 26.7131 9.49854 26.5633 9.49854V9.69854C26.6601 9.69854 26.7529 9.73697 26.8213 9.80538L26.9627 9.66396ZM26.5633 9.49854H17.7323V9.69854H26.5633V9.49854ZM17.7323 9.49854C17.5825 9.49855 17.4389 9.55806 17.333 9.66397L17.4744 9.80539C17.5428 9.73698 17.6356 9.69855 17.7323 9.69854L17.7323 9.49854ZM17.333 9.66397C17.2271 9.76989 17.1676 9.91354 17.1676 10.0633L17.3676 10.0633C17.3676 9.96659 17.406 9.8738 17.4744 9.80539L17.333 9.66397ZM20.8859 3.32297C20.8859 3.52444 20.7225 3.68776 20.5211 3.68776V3.88776C20.833 3.88776 21.0859 3.6349 21.0859 3.32297H20.8859ZM20.5211 3.68776C20.3196 3.68776 20.1563 3.52444 20.1563 3.32297H19.9563C19.9563 3.6349 20.2091 3.88776 20.5211 3.88776V3.68776ZM20.1563 3.32297C20.1563 3.12151 20.3196 2.95819 20.5211 2.95819V2.75819C20.2091 2.75819 19.9563 3.01105 19.9563 3.32297H20.1563ZM20.5211 2.95819C20.7225 2.95819 20.8859 3.12151 20.8859 3.32297H21.0859C21.0859 3.01105 20.833 2.75819 20.5211 2.75819V2.95819ZM14.461 11.1324C14.5554 11.2399 14.687 11.3077 14.8293 11.3219L14.8493 11.1229C14.7573 11.1137 14.6723 11.0699 14.6114 11.0005L14.461 11.1324ZM14.8293 11.3219C14.9717 11.3362 15.1142 11.2959 15.2279 11.2092L15.1067 11.0501C15.0332 11.1061 14.9412 11.1321 14.8493 11.1229L14.8293 11.3219ZM15.2279 11.2092L16.448 10.2796L16.3268 10.1205L15.1067 11.0501L15.2279 11.2092ZM16.448 10.2796C16.507 10.2347 16.5566 10.1785 16.5939 10.1144L16.421 10.0138C16.3969 10.0552 16.3649 10.0915 16.3268 10.1205L16.448 10.2796ZM16.5939 10.1144C16.6312 10.0503 16.6555 9.97952 16.6654 9.90602L16.4672 9.87923C16.4608 9.9267 16.4451 9.97244 16.421 10.0138L16.5939 10.1144ZM16.6654 9.90602C16.6754 9.83253 16.6707 9.75779 16.6518 9.68609L16.4584 9.73718C16.4707 9.78349 16.4737 9.83176 16.4672 9.87923L16.6654 9.90602ZM16.6518 9.68609C16.6328 9.61439 16.6 9.54712 16.555 9.48812L16.3959 9.60932C16.4249 9.64742 16.4462 9.69087 16.4584 9.73718L16.6518 9.68609ZM16.555 9.48812C16.5101 9.42912 16.4539 9.37956 16.3898 9.34225L16.2892 9.51511C16.3306 9.53921 16.3669 9.57122 16.3959 9.60932L16.555 9.48812ZM16.3898 9.34225C16.3257 9.30495 16.2549 9.28063 16.1814 9.2707L16.1546 9.46889C16.2021 9.47531 16.2478 9.49102 16.2892 9.51511L16.3898 9.34225ZM16.1814 9.2707C16.1079 9.26076 16.0332 9.2654 15.9615 9.28434L16.0126 9.47771C16.0589 9.46547 16.1072 9.46248 16.1546 9.46889L16.1814 9.2707ZM15.9615 9.28434C15.8898 9.30329 15.8225 9.33617 15.7635 9.38112L15.8847 9.54021C15.9228 9.51118 15.9663 9.48994 16.0126 9.47771L15.9615 9.28434ZM15.7635 9.38112L14.8884 10.0478L15.0096 10.2069L15.8847 9.54021L15.7635 9.38112ZM15.0243 10.0615L14.9038 9.92381L14.7533 10.0555L14.8738 10.1932L15.0243 10.0615ZM14.9037 9.92374C14.8049 9.81111 14.6655 9.74233 14.516 9.73253L14.5029 9.9321C14.5994 9.93843 14.6895 9.98286 14.7533 10.0556L14.9037 9.92374ZM14.516 9.73253C14.3665 9.72273 14.2192 9.77271 14.1066 9.87149L14.2385 10.0219C14.3112 9.95806 14.4063 9.92577 14.5029 9.9321L14.516 9.73253ZM14.1066 9.87149C13.994 9.97026 13.9252 10.1097 13.9154 10.2592L14.1149 10.2723C14.1213 10.1757 14.1657 10.0857 14.2385 10.0219L14.1066 9.87149ZM13.9154 10.2592C13.9056 10.4087 13.9556 10.556 14.0543 10.6686L14.2047 10.5367C14.1409 10.464 14.1086 10.3689 14.1149 10.2723L13.9154 10.2592ZM14.0543 10.6686L14.461 11.1324L14.6114 11.0005L14.2047 10.5367L14.0543 10.6686ZM26.5635 12.0549H17.7323V12.2549H26.5635V12.0549ZM17.7323 12.0549C17.5825 12.0549 17.4388 12.1144 17.3329 12.2203L17.4744 12.3617C17.5428 12.2933 17.6355 12.2549 17.7323 12.2549V12.0549ZM17.3329 12.2203C17.227 12.3262 17.1675 12.4699 17.1675 12.6196H17.3675C17.3675 12.5229 17.4059 12.4301 17.4744 12.3617L17.3329 12.2203ZM17.1675 12.6196C17.1675 12.7694 17.227 12.9131 17.3329 13.019L17.4744 12.8776C17.4059 12.8092 17.3675 12.7164 17.3675 12.6196H17.1675ZM17.3329 13.019C17.4388 13.1249 17.5825 13.1844 17.7323 13.1844V12.9844C17.6355 12.9844 17.5428 12.946 17.4744 12.8776L17.3329 13.019ZM17.7323 13.1844H26.5635V12.9844H17.7323V13.1844ZM26.5635 13.1844C26.7133 13.1844 26.8569 13.1249 26.9629 13.019L26.8214 12.8776C26.753 12.946 26.6602 12.9844 26.5635 12.9844V13.1844ZM26.9629 13.019C27.0688 12.9131 27.1283 12.7694 27.1283 12.6196H26.9283C26.9283 12.7164 26.8898 12.8092 26.8214 12.8776L26.9629 13.019ZM27.1283 12.6196C27.1283 12.4699 27.0688 12.3262 26.9629 12.2203L26.8214 12.3617C26.8898 12.4301 26.9283 12.5229 26.9283 12.6196H27.1283ZM26.9629 12.2203C26.8569 12.1144 26.7133 12.0549 26.5635 12.0549V12.2549C26.6602 12.2549 26.753 12.2933 26.8214 12.3617L26.9629 12.2203ZM14.461 13.4578C14.5554 13.5653 14.687 13.6331 14.8293 13.6473L14.8493 13.4483C14.7573 13.4391 14.6723 13.3954 14.6114 13.3259L14.461 13.4578ZM14.8293 13.6473C14.9717 13.6616 15.1142 13.6213 15.2279 13.5346L15.1067 13.3755C15.0332 13.4315 14.9412 13.4575 14.8493 13.4483L14.8293 13.6473ZM15.2279 13.5346L16.448 12.605L16.3268 12.4459L15.1067 13.3755L15.2279 13.5346ZM16.448 12.605C16.5672 12.5143 16.6454 12.3799 16.6654 12.2314L16.4672 12.2046C16.4543 12.3005 16.4038 12.3873 16.3268 12.4459L16.448 12.605ZM16.6654 12.2314C16.6855 12.083 16.6458 11.9327 16.555 11.8135L16.3959 11.9347C16.4545 12.0117 16.4802 12.1088 16.4672 12.2046L16.6654 12.2314ZM16.555 11.8135C16.4642 11.6944 16.3299 11.6162 16.1814 11.5961L16.1546 11.7943C16.2505 11.8073 16.3373 11.8578 16.3959 11.9347L16.555 11.8135ZM16.1814 11.5961C16.033 11.576 15.8827 11.6158 15.7635 11.7065L15.8847 11.8656C15.9617 11.807 16.0588 11.7813 16.1546 11.7943L16.1814 11.5961ZM15.7635 11.7065L14.8884 12.3732L15.0096 12.5323L15.8847 11.8656L15.7635 11.7065ZM15.0243 12.3869L14.9038 12.2492L14.7533 12.381L14.8738 12.5186L15.0243 12.3869ZM14.9037 12.2492C14.8049 12.1365 14.6655 12.0677 14.516 12.0579L14.5029 12.2575C14.5994 12.2638 14.6895 12.3083 14.7533 12.381L14.9037 12.2492ZM14.516 12.0579C14.3665 12.0481 14.2192 12.0981 14.1066 12.1969L14.2385 12.3473C14.3112 12.2835 14.4063 12.2512 14.5029 12.2575L14.516 12.0579ZM14.1066 12.1969C13.994 12.2957 13.9252 12.4351 13.9154 12.5846L14.1149 12.5977C14.1213 12.5012 14.1657 12.4111 14.2385 12.3473L14.1066 12.1969ZM13.9154 12.5846C13.9056 12.7341 13.9556 12.8814 14.0543 12.994L14.2047 12.8621C14.1409 12.7894 14.1086 12.6943 14.1149 12.5977L13.9154 12.5846ZM14.0543 12.994L14.461 13.4578L14.6114 13.3259L14.2047 12.8621L14.0543 12.994ZM26.5635 14.3788H17.7323V14.5788H26.5635V14.3788ZM17.7323 14.3788C17.5825 14.3788 17.4388 14.4383 17.3329 14.5442L17.4744 14.6856C17.5428 14.6172 17.6355 14.5788 17.7323 14.5788V14.3788ZM17.3329 14.5442C17.227 14.6501 17.1675 14.7938 17.1675 14.9436H17.3675C17.3675 14.8468 17.4059 14.7541 17.4744 14.6856L17.3329 14.5442ZM17.1675 14.9436C17.1675 15.0934 17.227 15.237 17.3329 15.3429L17.4744 15.2015C17.4059 15.1331 17.3675 15.0403 17.3675 14.9436H17.1675ZM17.3329 15.3429C17.4388 15.4489 17.5825 15.5084 17.7323 15.5084V15.3084C17.6355 15.3084 17.5428 15.2699 17.4744 15.2015L17.3329 15.3429ZM17.7323 15.5084H26.5635V15.3084H17.7323V15.5084ZM26.5635 15.5084C26.7133 15.5084 26.8569 15.4489 26.9629 15.3429L26.8214 15.2015C26.753 15.2699 26.6602 15.3084 26.5635 15.3084V15.5084ZM26.9629 15.3429C27.0688 15.237 27.1283 15.0934 27.1283 14.9436H26.9283C26.9283 15.0403 26.8898 15.1331 26.8214 15.2015L26.9629 15.3429ZM27.1283 14.9436C27.1283 14.7938 27.0688 14.6501 26.9629 14.5442L26.8214 14.6856C26.8898 14.7541 26.9283 14.8468 26.9283 14.9436H27.1283ZM26.9629 14.5442C26.8569 14.4383 26.7133 14.3788 26.5635 14.3788V14.5788C26.6602 14.5788 26.753 14.6172 26.8214 14.6856L26.9629 14.5442ZM14.461 15.7832C14.5554 15.8907 14.687 15.9585 14.8293 15.9727L14.8493 15.7737C14.7573 15.7645 14.6723 15.7208 14.6114 15.6513L14.461 15.7832ZM14.8293 15.9727C14.9717 15.987 15.1142 15.9467 15.2279 15.86L15.1067 15.7009C15.0332 15.7569 14.9412 15.7829 14.8493 15.7737L14.8293 15.9727ZM15.2279 15.86L16.448 14.9304L16.3268 14.7713L15.1067 15.7009L15.2279 15.86ZM16.448 14.9304C16.507 14.8855 16.5566 14.8294 16.5939 14.7653L16.421 14.6647C16.3969 14.7061 16.3649 14.7423 16.3268 14.7713L16.448 14.9304ZM16.5939 14.7653C16.6312 14.7012 16.6555 14.6303 16.6654 14.5568L16.4672 14.5301C16.4608 14.5775 16.4451 14.6233 16.421 14.6647L16.5939 14.7653ZM16.6654 14.5568C16.6754 14.4833 16.6707 14.4086 16.6518 14.3369L16.4584 14.388C16.4707 14.4343 16.4737 14.4826 16.4672 14.5301L16.6654 14.5568ZM16.6518 14.3369C16.6328 14.2652 16.6 14.1979 16.555 14.1389L16.3959 14.2601C16.4249 14.2982 16.4462 14.3417 16.4584 14.388L16.6518 14.3369ZM16.555 14.1389C16.5101 14.0799 16.4539 14.0304 16.3898 13.9931L16.2892 14.1659C16.3306 14.19 16.3669 14.222 16.3959 14.2601L16.555 14.1389ZM16.3898 13.9931C16.3257 13.9558 16.2549 13.9315 16.1814 13.9215L16.1546 14.1197C16.2021 14.1261 16.2478 14.1418 16.2892 14.1659L16.3898 13.9931ZM16.1814 13.9215C16.1079 13.9116 16.0332 13.9162 15.9615 13.9352L16.0126 14.1285C16.0589 14.1163 16.1072 14.1133 16.1546 14.1197L16.1814 13.9215ZM15.9615 13.9352C15.8898 13.9541 15.8225 13.987 15.7635 14.0319L15.8847 14.191C15.9228 14.162 15.9663 14.1408 16.0126 14.1285L15.9615 13.9352ZM15.7635 14.0319L14.8884 14.6986L15.0096 14.8577L15.8847 14.191L15.7635 14.0319ZM15.0243 14.7123L14.9038 14.5746L14.7533 14.7064L14.8738 14.844L15.0243 14.7123ZM14.9037 14.5746C14.8049 14.4619 14.6655 14.3932 14.516 14.3834L14.5029 14.5829C14.5994 14.5893 14.6895 14.6337 14.7533 14.7064L14.9037 14.5746ZM14.516 14.3834C14.3665 14.3736 14.2192 14.4235 14.1066 14.5223L14.2385 14.6727C14.3112 14.6089 14.4063 14.5766 14.5029 14.5829L14.516 14.3834ZM14.1066 14.5223C13.994 14.6211 13.9252 14.7606 13.9154 14.91L14.1149 14.9231C14.1213 14.8266 14.1657 14.7365 14.2385 14.6727L14.1066 14.5223ZM13.9154 14.91C13.9056 15.0595 13.9556 15.2068 14.0543 15.3194L14.2047 15.1876C14.1409 15.1148 14.1086 15.0197 14.1149 14.9231L13.9154 14.91ZM14.0543 15.3194L14.461 15.7832L14.6114 15.6513L14.2047 15.1876L14.0543 15.3194ZM26.5635 16.7027H17.7323V16.9027H26.5635V16.7027ZM17.7323 16.7027C17.5825 16.7027 17.4388 16.7622 17.3329 16.8682L17.4744 17.0096C17.5428 16.9412 17.6355 16.9027 17.7323 16.9027V16.7027ZM17.3329 16.8682C17.227 16.9741 17.1675 17.1177 17.1675 17.2675H17.3675C17.3675 17.1708 17.4059 17.078 17.4744 17.0096L17.3329 16.8682ZM17.1675 17.2675C17.1675 17.4173 17.227 17.561 17.3329 17.6669L17.4744 17.5255C17.4059 17.4571 17.3675 17.3643 17.3675 17.2675H17.1675ZM17.3329 17.6669C17.4388 17.7728 17.5825 17.8323 17.7323 17.8323V17.6323C17.6355 17.6323 17.5428 17.5939 17.4744 17.5255L17.3329 17.6669ZM17.7323 17.8323H26.5635V17.6323H17.7323V17.8323ZM26.5635 17.8323C26.7133 17.8323 26.8569 17.7728 26.9629 17.6669L26.8214 17.5255C26.753 17.5939 26.6602 17.6323 26.5635 17.6323V17.8323ZM26.9629 17.6669C27.0688 17.561 27.1283 17.4173 27.1283 17.2675H26.9283C26.9283 17.3643 26.8898 17.4571 26.8214 17.5255L26.9629 17.6669ZM27.1283 17.2675C27.1283 17.1177 27.0688 16.9741 26.9629 16.8682L26.8214 17.0096C26.8898 17.078 26.9283 17.1708 26.9283 17.2675H27.1283ZM26.9629 16.8682C26.8569 16.7622 26.7133 16.7027 26.5635 16.7027V16.9027C26.6602 16.9027 26.753 16.9412 26.8214 17.0096L26.9629 16.8682ZM14.461 18.1086C14.5554 18.2161 14.687 18.2839 14.8293 18.2981L14.8493 18.0991C14.7573 18.0899 14.6723 18.0462 14.6114 17.9767L14.461 18.1086ZM14.8293 18.2981C14.9717 18.3124 15.1142 18.2721 15.2279 18.1854L15.1067 18.0263C15.0332 18.0823 14.9412 18.1083 14.8493 18.0991L14.8293 18.2981ZM15.2279 18.1854L16.448 17.2558L16.3268 17.0968L15.1067 18.0263L15.2279 18.1854ZM16.448 17.2558C16.507 17.2109 16.5566 17.1548 16.5939 17.0907L16.421 16.9901C16.3969 17.0315 16.3649 17.0677 16.3268 17.0967L16.448 17.2558ZM16.5939 17.0907C16.6312 17.0266 16.6555 16.9558 16.6654 16.8823L16.4672 16.8555C16.4608 16.9029 16.4451 16.9487 16.421 16.9901L16.5939 17.0907ZM16.6654 16.8823C16.6754 16.8088 16.6707 16.734 16.6518 16.6623L16.4584 16.7134C16.4707 16.7597 16.4737 16.808 16.4672 16.8555L16.6654 16.8823ZM16.6518 16.6623C16.6328 16.5906 16.6 16.5234 16.555 16.4644L16.3959 16.5856C16.4249 16.6237 16.4462 16.6671 16.4584 16.7134L16.6518 16.6623ZM16.555 16.4644C16.5101 16.4054 16.4539 16.3558 16.3898 16.3185L16.2892 16.4913C16.3306 16.5154 16.3669 16.5475 16.3959 16.5856L16.555 16.4644ZM16.3898 16.3185C16.3257 16.2812 16.2549 16.2569 16.1814 16.2469L16.1546 16.4451C16.2021 16.4515 16.2478 16.4673 16.2892 16.4913L16.3898 16.3185ZM16.1814 16.2469C16.1079 16.237 16.0332 16.2416 15.9615 16.2606L16.0126 16.4539C16.0589 16.4417 16.1072 16.4387 16.1546 16.4451L16.1814 16.2469ZM15.9615 16.2606C15.8898 16.2795 15.8225 16.3124 15.7635 16.3574L15.8847 16.5164C15.9228 16.4874 15.9663 16.4662 16.0126 16.4539L15.9615 16.2606ZM15.7635 16.3574L14.8884 17.024L15.0096 17.1831L15.8847 16.5164L15.7635 16.3574ZM15.0243 17.0377L14.9038 16.9L14.7533 17.0318L14.8738 17.1694L15.0243 17.0377ZM14.9037 16.9C14.8049 16.7873 14.6655 16.7186 14.516 16.7088L14.5029 16.9083C14.5994 16.9147 14.6895 16.9591 14.7533 17.0318L14.9037 16.9ZM14.516 16.7088C14.3665 16.699 14.2192 16.7489 14.1066 16.8477L14.2385 16.9981C14.3112 16.9343 14.4063 16.902 14.5029 16.9083L14.516 16.7088ZM14.1066 16.8477C13.994 16.9465 13.9252 17.086 13.9154 17.2355L14.1149 17.2485C14.1213 17.152 14.1657 17.0619 14.2385 16.9981L14.1066 16.8477ZM13.9154 17.2355C13.9056 17.3849 13.9556 17.5322 14.0543 17.6448L14.2047 17.513C14.1409 17.4402 14.1086 17.3451 14.1149 17.2485L13.9154 17.2355ZM14.0543 17.6448L14.461 18.1086L14.6114 17.9767L14.2047 17.513L14.0543 17.6448ZM26.5633 19.0267H17.7323V19.2267H26.5633V19.0267ZM17.7323 19.0267C17.5825 19.0267 17.4389 19.0862 17.333 19.1921L17.4744 19.3335C17.5428 19.2651 17.6356 19.2267 17.7323 19.2267V19.0267ZM17.333 19.1921C17.2271 19.298 17.1675 19.4417 17.1675 19.5915H17.3675C17.3675 19.4947 17.406 19.4019 17.4744 19.3335L17.333 19.1921ZM17.1675 19.5915C17.1675 19.7413 17.2271 19.8849 17.333 19.9908L17.4744 19.8494C17.406 19.781 17.3675 19.6882 17.3675 19.5915H17.1675ZM17.333 19.9908C17.4389 20.0967 17.5825 20.1562 17.7323 20.1562V19.9562C17.6356 19.9562 17.5428 19.9178 17.4744 19.8494L17.333 19.9908ZM17.7323 20.1562H26.5633V19.9562H17.7323V20.1562ZM26.5633 20.1562C26.7131 20.1562 26.8568 20.0967 26.9627 19.9908L26.8213 19.8494C26.7529 19.9178 26.6601 19.9562 26.5633 19.9562V20.1562ZM26.9627 19.9908C27.0686 19.8849 27.1281 19.7413 27.1281 19.5915H26.9281C26.9281 19.6882 26.8897 19.781 26.8213 19.8494L26.9627 19.9908ZM27.1281 19.5915C27.1281 19.4417 27.0686 19.298 26.9627 19.1921L26.8213 19.3335C26.8897 19.4019 26.9281 19.4947 26.9281 19.5915H27.1281ZM26.9627 19.1921C26.8568 19.0862 26.7131 19.0267 26.5633 19.0267V19.2267C26.6601 19.2267 26.7529 19.2651 26.8213 19.3335L26.9627 19.1921ZM15.7636 18.6826L14.8885 19.3493L15.0097 19.5084L15.8848 18.8417L15.7636 18.6826ZM15.0243 19.3629L14.9038 19.2254L14.7533 19.3572L14.8739 19.4948L15.0243 19.3629ZM14.9037 19.2254C14.805 19.1128 14.6655 19.044 14.516 19.0342L14.5029 19.2337C14.5995 19.2401 14.6896 19.2845 14.7534 19.3573L14.9037 19.2254ZM14.516 19.0342C14.3665 19.0244 14.2193 19.0744 14.1066 19.1731L14.2385 19.3235C14.3113 19.2597 14.4064 19.2274 14.5029 19.2337L14.516 19.0342ZM14.1066 19.1731C13.994 19.2719 13.9252 19.4114 13.9154 19.5609L14.115 19.5739C14.1213 19.4774 14.1658 19.3873 14.2385 19.3235L14.1066 19.1731ZM13.9154 19.5609C13.9056 19.7103 13.9556 19.8576 14.0544 19.9702L14.2048 19.8384C14.141 19.7656 14.1087 19.6705 14.115 19.5739L13.9154 19.5609ZM14.0544 19.9702L14.4611 20.4339L14.6114 20.302L14.2047 19.8384L14.0544 19.9702ZM14.4611 20.4339C14.5554 20.5414 14.6871 20.6092 14.8294 20.6234L14.8493 20.4244C14.7574 20.4152 14.6724 20.3715 14.6114 20.302L14.4611 20.4339ZM14.8294 20.6234C14.9717 20.6377 15.1142 20.5974 15.228 20.5107L15.1068 20.3516C15.0333 20.4076 14.9413 20.4336 14.8493 20.4244L14.8294 20.6234ZM15.228 20.5107L16.4481 19.5811L16.3269 19.4221L15.1068 20.3516L15.228 20.5107ZM16.4481 19.5811C16.5672 19.4904 16.6454 19.356 16.6655 19.2076L16.4673 19.1808C16.4543 19.2766 16.4038 19.3634 16.3269 19.422L16.4481 19.5811ZM16.6655 19.2076C16.6856 19.0591 16.6458 18.9088 16.5551 18.7897L16.396 18.9109C16.4546 18.9878 16.4802 19.0849 16.4673 19.1808L16.6655 19.2076ZM16.5551 18.7897C16.4643 18.6705 16.3299 18.5923 16.1815 18.5722L16.1547 18.7704C16.2506 18.7834 16.3373 18.8339 16.396 18.9109L16.5551 18.7897ZM16.1815 18.5722C16.0331 18.5522 15.8827 18.5919 15.7636 18.6826L15.8848 18.8417C15.9617 18.7831 16.0588 18.7575 16.1547 18.7704L16.1815 18.5722ZM14.4788 24.8041H16.8028V24.6041H14.4788V24.8041ZM16.8028 24.8041C16.9526 24.8041 17.0962 24.7446 17.2021 24.6387L17.0607 24.4973C16.9923 24.5657 16.8995 24.6041 16.8028 24.6041V24.8041ZM17.2021 24.6387C17.3081 24.5328 17.3676 24.3891 17.3676 24.2393H17.1676C17.1676 24.3361 17.1291 24.4289 17.0607 24.4973L17.2021 24.6387ZM17.3676 24.2393C17.3676 24.0895 17.3081 23.9459 17.2021 23.84L17.0607 23.9814C17.1291 24.0498 17.1676 24.1426 17.1676 24.2393H17.3676ZM17.2021 23.84C17.0962 23.7341 16.9526 23.6745 16.8028 23.6745V23.8745C16.8995 23.8745 16.9923 23.913 17.0607 23.9814L17.2021 23.84ZM16.8028 23.6745H14.4788V23.8745H16.8028V23.6745ZM14.4788 23.6745C14.329 23.6745 14.1854 23.7341 14.0795 23.84L14.2209 23.9814C14.2893 23.913 14.3821 23.8745 14.4788 23.8745V23.6745ZM14.0795 23.84C13.9736 23.9459 13.914 24.0895 13.914 24.2393H14.114C14.114 24.1426 14.1525 24.0498 14.2209 23.9814L14.0795 23.84ZM13.914 24.2393C13.914 24.3891 13.9736 24.5328 14.0795 24.6387L14.2209 24.4973C14.1525 24.4289 14.114 24.3361 14.114 24.2393H13.914ZM14.0795 24.6387C14.1854 24.7446 14.329 24.8041 14.4788 24.8041V24.6041C14.3821 24.6041 14.2893 24.5657 14.2209 24.4973L14.0795 24.6387ZM1.82957 30.2816C1.82957 30.483 1.66625 30.6464 1.46479 30.6464V30.8464C1.77671 30.8464 2.02957 30.5935 2.02957 30.2816H1.82957ZM1.46479 30.6464C1.26332 30.6464 1.1 30.483 1.1 30.2816H0.9C0.9 30.5935 1.15286 30.8464 1.46479 30.8464V30.6464ZM1.1 30.2816C1.1 30.0801 1.26332 29.9168 1.46479 29.9168V29.7168C1.15286 29.7168 0.9 29.9697 0.9 30.2816H1.1ZM1.46479 29.9168C1.66625 29.9168 1.82957 30.0801 1.82957 30.2816H2.02957C2.02957 29.9697 1.77671 29.7168 1.46479 29.7168V29.9168ZM3.55633 29.7168H2.85915V29.9168H3.55633V29.7168ZM2.85915 29.7168C2.70936 29.7168 2.5657 29.7763 2.45978 29.8822L2.60121 30.0236C2.66962 29.9552 2.7624 29.9168 2.85915 29.9168V29.7168ZM2.45978 29.8822C2.35387 29.9881 2.29436 30.1318 2.29436 30.2816H2.49436C2.49436 30.1848 2.53279 30.092 2.60121 30.0236L2.45978 29.8822ZM2.29436 30.2816C2.29436 30.4314 2.35387 30.575 2.45978 30.6809L2.60121 30.5395C2.5328 30.4711 2.49436 30.3783 2.49436 30.2816H2.29436ZM2.45978 30.6809C2.5657 30.7869 2.70936 30.8464 2.85915 30.8464V30.6464C2.7624 30.6464 2.66962 30.6079 2.60121 30.5395L2.45978 30.6809ZM2.85915 30.8464H3.55633V30.6464H2.85915V30.8464ZM3.55633 30.8464C3.70612 30.8464 3.84978 30.7869 3.9557 30.6809L3.81427 30.5395C3.74586 30.6079 3.65308 30.6464 3.55633 30.6464V30.8464ZM3.9557 30.6809C4.06161 30.575 4.12112 30.4314 4.12112 30.2816H3.92112C3.92112 30.3783 3.88269 30.4711 3.81427 30.5395L3.9557 30.6809ZM4.12112 30.2816C4.12112 30.1318 4.06161 29.9881 3.9557 29.8822L3.81427 30.0236C3.88269 30.092 3.92112 30.1848 3.92112 30.2816H4.12112ZM3.9557 29.8822C3.84978 29.7763 3.70612 29.7168 3.55633 29.7168V29.9168C3.65308 29.9168 3.74586 29.9552 3.81427 30.0236L3.9557 29.8822ZM38.183 29.7168H37.4858V29.9168H38.183V29.7168ZM37.4858 29.7168C37.336 29.7168 37.1924 29.7763 37.0864 29.8822L37.2279 30.0236C37.2963 29.9552 37.3891 29.9168 37.4858 29.9168V29.7168ZM37.0864 29.8822C36.9805 29.9881 36.921 30.1318 36.921 30.2816H37.121C37.121 30.1848 37.1595 30.092 37.2279 30.0236L37.0864 29.8822ZM36.921 30.2816C36.921 30.4314 36.9805 30.575 37.0864 30.6809L37.2279 30.5395C37.1595 30.4711 37.121 30.3783 37.121 30.2816H36.921ZM37.0864 30.6809C37.1924 30.7869 37.336 30.8464 37.4858 30.8464V30.6464C37.3891 30.6464 37.2963 30.6079 37.2279 30.5395L37.0864 30.6809ZM37.4858 30.8464H38.183V30.6464H37.4858V30.8464ZM38.183 30.8464C38.3328 30.8464 38.4764 30.7869 38.5824 30.6809L38.4409 30.5395C38.3725 30.6079 38.2797 30.6464 38.183 30.6464V30.8464ZM38.5824 30.6809C38.6883 30.575 38.7478 30.4314 38.7478 30.2816H38.5478C38.5478 30.3783 38.5093 30.4711 38.4409 30.5395L38.5824 30.6809ZM38.7478 30.2816C38.7478 30.1318 38.6883 29.9881 38.5824 29.8822L38.4409 30.0236C38.5093 30.092 38.5478 30.1848 38.5478 30.2816H38.7478ZM38.5824 29.8822C38.4764 29.7763 38.3328 29.7168 38.183 29.7168V29.9168C38.2797 29.9168 38.3725 29.9552 38.4409 30.0236L38.5824 29.8822ZM39.9421 30.2816C39.9421 30.483 39.7788 30.6464 39.5774 30.6464V30.8464C39.8893 30.8464 40.1421 30.5935 40.1421 30.2816H39.9421ZM39.5774 30.6464C39.3759 30.6464 39.2126 30.483 39.2126 30.2816H39.0126C39.0126 30.5935 39.2654 30.8464 39.5774 30.8464V30.6464ZM39.2126 30.2816C39.2126 30.0801 39.3759 29.9168 39.5774 29.9168V29.7168C39.2654 29.7168 39.0126 29.9697 39.0126 30.2816H39.2126ZM39.5774 29.9168C39.7788 29.9168 39.9421 30.0801 39.9421 30.2816H40.1421C40.1421 29.9697 39.8893 29.7168 39.5774 29.7168V29.9168ZM28.4582 31.5759H26.5276V31.7759H28.4582V31.5759ZM26.5196 31.5763C26.3777 31.5876 26.2453 31.652 26.1487 31.7566L26.2957 31.8923C26.3581 31.8246 26.4438 31.783 26.5355 31.7756L26.5196 31.5763ZM26.1487 31.7566C26.0521 31.8612 25.9985 31.9984 25.9985 32.1407H26.1985C26.1985 32.0486 26.2332 31.9599 26.2957 31.8923L26.1487 31.7566ZM25.9985 32.1407C25.9985 32.2831 26.0521 32.4202 26.1487 32.5248L26.2957 32.3892C26.2332 32.3215 26.1985 32.2328 26.1985 32.1407H25.9985ZM26.1487 32.5248C26.2453 32.6294 26.3777 32.6938 26.5196 32.7052L26.5355 32.5058C26.4438 32.4985 26.3581 32.4568 26.2957 32.3892L26.1487 32.5248ZM26.5276 32.7055H28.4582V32.5055H26.5276V32.7055ZM28.4662 32.7052C28.6081 32.6938 28.7405 32.6294 28.8371 32.5248L28.6901 32.3892C28.6277 32.4568 28.542 32.4985 28.4502 32.5058L28.4662 32.7052ZM28.8371 32.5248C28.9336 32.4202 28.9873 32.2831 28.9873 32.1407H28.7873C28.7873 32.2328 28.7526 32.3215 28.6901 32.3892L28.8371 32.5248ZM28.9873 32.1407C28.9873 31.9984 28.9336 31.8612 28.8371 31.7566L28.6901 31.8923C28.7526 31.9599 28.7873 32.0487 28.7873 32.1407H28.9873ZM28.8371 31.7566C28.7405 31.652 28.6081 31.5876 28.4662 31.5763L28.4502 31.7756C28.542 31.783 28.6277 31.8246 28.6901 31.8923L28.8371 31.7566ZM14.5146 31.5759H12.5839V31.7759H14.5146V31.5759ZM12.5759 31.5763C12.434 31.5876 12.3016 31.652 12.2051 31.7566L12.352 31.8923C12.4145 31.8246 12.5001 31.783 12.5919 31.7756L12.5759 31.5763ZM12.2051 31.7566C12.1085 31.8612 12.0549 31.9984 12.0549 32.1407H12.2549C12.2549 32.0486 12.2896 31.9599 12.352 31.8923L12.2051 31.7566ZM12.0549 32.1407C12.0549 32.2831 12.1085 32.4202 12.2051 32.5248L12.352 32.3892C12.2896 32.3215 12.2549 32.2328 12.2549 32.1407H12.0549ZM12.2051 32.5248C12.3016 32.6294 12.434 32.6938 12.5759 32.7052L12.5919 32.5058C12.5001 32.4985 12.4145 32.4568 12.352 32.3892L12.2051 32.5248ZM12.5839 32.7055H14.5146V32.5055H12.5839V32.7055ZM14.5226 32.7052C14.6645 32.6938 14.7969 32.6294 14.8935 32.5248L14.7465 32.3892C14.684 32.4568 14.5984 32.4985 14.5066 32.5058L14.5226 32.7052ZM14.8935 32.5248C14.99 32.4202 15.0436 32.2831 15.0436 32.1407H14.8436C14.8436 32.2328 14.809 32.3215 14.7465 32.3892L14.8935 32.5248ZM15.0436 32.1407C15.0436 31.9984 14.99 31.8612 14.8935 31.7566L14.7465 31.8923C14.809 31.9599 14.8436 32.0486 14.8436 32.1407H15.0436ZM14.8935 31.7566C14.7969 31.652 14.6645 31.5876 14.5226 31.5763L14.5066 31.7756C14.5984 31.783 14.684 31.8246 14.7465 31.8923L14.8935 31.7566ZM25.169 31.5759H15.8732V31.7759H25.169V31.5759ZM15.8732 31.5759C15.7234 31.5759 15.5798 31.6354 15.4738 31.7414L15.6153 31.8828C15.6837 31.8144 15.7765 31.7759 15.8732 31.7759V31.5759ZM15.4738 31.7414C15.3679 31.8473 15.3084 31.9909 15.3084 32.1407H15.5084C15.5084 32.044 15.5468 31.9512 15.6153 31.8828L15.4738 31.7414ZM15.3084 32.1407C15.3084 32.2905 15.3679 32.4342 15.4738 32.5401L15.6153 32.3987C15.5468 32.3303 15.5084 32.2375 15.5084 32.1407H15.3084ZM15.4738 32.5401C15.5798 32.646 15.7234 32.7055 15.8732 32.7055V32.5055C15.7765 32.5055 15.6837 32.4671 15.6153 32.3987L15.4738 32.5401ZM15.8732 32.7055H19.5776V32.5055H15.8732V32.7055ZM19.4776 32.6055V33.0703H19.6776V32.6055H19.4776ZM19.5776 32.9703H17.7324V33.1703H19.5776V32.9703ZM17.7324 32.9703C17.5826 32.9703 17.4389 33.0298 17.333 33.1357L17.4744 33.2771C17.5428 33.2087 17.6356 33.1703 17.7324 33.1703V32.9703ZM17.333 33.1357C17.2271 33.2416 17.1676 33.3853 17.1676 33.5351H17.3676C17.3676 33.4383 17.406 33.3456 17.4744 33.2771L17.333 33.1357ZM17.1676 33.5351C17.1676 33.6849 17.2271 33.8285 17.333 33.9345L17.4744 33.793C17.406 33.7246 17.3676 33.6318 17.3676 33.5351H17.1676ZM17.333 33.9345C17.4389 34.0404 17.5826 34.0999 17.7324 34.0999V33.8999C17.6356 33.8999 17.5428 33.8614 17.4744 33.793L17.333 33.9345ZM17.7324 34.0999H23.5422V33.8999H17.7324V34.0999ZM23.5422 34.0999C23.692 34.0999 23.8356 34.0404 23.9416 33.9345L23.8001 33.793C23.7317 33.8614 23.6389 33.8999 23.5422 33.8999V34.0999ZM23.9416 33.9345C24.0475 33.8285 24.107 33.6849 24.107 33.5351H23.907C23.907 33.6318 23.8685 33.7246 23.8001 33.793L23.9416 33.9345ZM24.107 33.5351C24.107 33.3853 24.0475 33.2416 23.9416 33.1357L23.8001 33.2771C23.8685 33.3456 23.907 33.4383 23.907 33.5351H24.107ZM23.9416 33.1357C23.8356 33.0298 23.692 32.9703 23.5422 32.9703V33.1703C23.6389 33.1703 23.7317 33.2087 23.8001 33.2771L23.9416 33.1357ZM23.5422 32.9703H21.4646V33.1703H23.5422V32.9703ZM21.5646 33.0703V32.6055H21.3646V33.0703H21.5646ZM21.4646 32.7055H25.169V32.5055H21.4646V32.7055ZM25.169 32.7055C25.3187 32.7055 25.4624 32.646 25.5683 32.5401L25.4269 32.3987C25.3585 32.4671 25.2657 32.5055 25.169 32.5055V32.7055ZM25.5683 32.5401C25.6742 32.4342 25.7337 32.2905 25.7337 32.1407H25.5337C25.5337 32.2375 25.4953 32.3303 25.4269 32.3987L25.5683 32.5401ZM25.7337 32.1407C25.7337 31.9909 25.6742 31.8473 25.5683 31.7414L25.4269 31.8828C25.4953 31.9512 25.5337 32.044 25.5337 32.1407H25.7337ZM25.5683 31.7414C25.4624 31.6354 25.3187 31.5759 25.169 31.5759V31.7759C25.2657 31.7759 25.3585 31.8144 25.4269 31.8828L25.5683 31.7414ZM36.0267 29.7168H31.1256V29.9168H36.0267V29.7168ZM31.2193 29.8515C31.2784 29.6919 31.3095 29.5232 31.3112 29.353L31.1112 29.351C31.1098 29.4982 31.0829 29.644 31.0318 29.7821L31.2193 29.8515ZM31.3112 29.352V5.64785H31.1112V29.352H31.3112ZM31.3112 5.64774C31.3108 5.25157 31.1532 4.87175 30.8731 4.59162L30.7317 4.73304C30.9743 4.97572 31.1108 5.30475 31.1112 5.64795L31.3112 5.64774ZM30.8731 4.59162C30.5929 4.31148 30.2131 4.15392 29.817 4.15348L29.8167 4.35348C30.1599 4.35386 30.489 4.49036 30.7317 4.73304L30.8731 4.59162ZM29.8168 4.15348H27.4925V4.35348H29.8168V4.15348ZM27.3927 4.25852L27.393 4.26612L27.5928 4.25605L27.5924 4.24845L27.3927 4.25852ZM27.3929 4.26109V5.18306H27.5929V4.26109H27.3929ZM27.4929 5.28306H29.8168V5.08306H27.4929V5.28306ZM29.8167 5.28306C29.9135 5.28317 30.0062 5.32165 30.0746 5.39006L30.2161 5.24864C30.1102 5.14278 29.9667 5.08323 29.817 5.08306L29.8167 5.28306ZM30.0746 5.39006C30.143 5.45847 30.1815 5.55122 30.1816 5.64796L30.3816 5.64773C30.3815 5.49802 30.3219 5.3545 30.2161 5.24864L30.0746 5.39006ZM30.1816 5.64785V29.352H30.3816V5.64785H30.1816ZM30.1816 29.3519C30.1815 29.4486 30.143 29.5414 30.0746 29.6098L30.2161 29.7512C30.3219 29.6454 30.3815 29.5018 30.3816 29.3521L30.1816 29.3519ZM30.0746 29.6098C30.0062 29.6782 29.9135 29.7167 29.8167 29.7168L29.817 29.9168C29.9667 29.9166 30.1102 29.8571 30.2161 29.7512L30.0746 29.6098ZM29.8168 29.7168H11.2254V29.9168H29.8168V29.7168ZM11.2255 29.7168C11.1287 29.7167 11.036 29.6782 10.9676 29.6098L10.8261 29.7512C10.932 29.8571 11.0755 29.9166 11.2252 29.9168L11.2255 29.7168ZM10.9676 29.6098C10.8992 29.5414 10.8607 29.4486 10.8606 29.3519L10.6606 29.3521C10.6607 29.5018 10.7203 29.6454 10.8261 29.7512L10.9676 29.6098ZM10.8606 29.352V5.64785H10.6606V29.352H10.8606ZM10.8606 5.64796C10.8607 5.55122 10.8992 5.45847 10.9676 5.39006L10.8261 5.24864C10.7203 5.3545 10.6607 5.49802 10.6606 5.64773L10.8606 5.64796ZM10.9676 5.39006C11.036 5.32165 11.1287 5.28317 11.2255 5.28306L11.2252 5.08306C11.0755 5.08323 10.932 5.14278 10.8261 5.24864L10.9676 5.39006ZM11.2254 5.28306H13.5493V5.08306H11.2254V5.28306ZM13.6493 5.18306V4.26109H13.4493V5.18306H13.6493ZM13.6492 4.26612L13.6495 4.25852L13.4498 4.24845L13.4494 4.25605L13.6492 4.26612ZM13.5497 4.15348H11.2254V4.35348H13.5497V4.15348ZM11.2252 4.15348C10.8291 4.15392 10.4493 4.31148 10.1691 4.59162L10.3105 4.73304C10.5532 4.49036 10.8823 4.35386 11.2255 4.35348L11.2252 4.15348ZM10.1691 4.59162C9.88899 4.87175 9.73142 5.25157 9.73099 5.64774L9.93099 5.64795C9.93136 5.30475 10.0679 4.97572 10.3105 4.73304L10.1691 4.59162ZM9.73099 5.64785V29.352H9.93099V5.64785H9.73099ZM9.73099 29.353C9.73268 29.5232 9.76375 29.6919 9.82285 29.8515L10.0104 29.7821C9.95931 29.644 9.93244 29.4982 9.93098 29.351L9.73099 29.353ZM9.91663 29.7168H5.01549V29.9168H9.91663V29.7168ZM5.02844 29.7176C4.94821 29.7071 4.86667 29.7139 4.78926 29.7375L4.84746 29.9288C4.89765 29.9135 4.95052 29.9092 5.00253 29.9159L5.02844 29.7176ZM4.78926 29.7375C4.71185 29.761 4.64036 29.8008 4.57955 29.8542L4.7115 30.0045C4.75092 29.9699 4.79727 29.9441 4.84746 29.9288L4.78926 29.7375ZM4.57955 29.8542C4.51875 29.9075 4.47003 29.9733 4.43666 30.047L4.61885 30.1295C4.64049 30.0817 4.67207 30.0391 4.7115 30.0045L4.57955 29.8542ZM4.43666 30.047C4.40328 30.1207 4.38602 30.2007 4.38602 30.2816H4.58602C4.58602 30.2291 4.59721 30.1773 4.61885 30.1295L4.43666 30.047ZM4.38602 30.2816C4.38602 30.3625 4.40328 30.4425 4.43666 30.5162L4.61885 30.4337C4.59721 30.3859 4.58602 30.334 4.58602 30.2816H4.38602ZM4.43666 30.5162C4.47003 30.5899 4.51875 30.6556 4.57955 30.709L4.7115 30.5587C4.67207 30.5241 4.64049 30.4815 4.61885 30.4337L4.43666 30.5162ZM4.57955 30.709C4.64036 30.7624 4.71185 30.8022 4.78926 30.8257L4.84746 30.6344C4.79727 30.6191 4.75092 30.5933 4.7115 30.5587L4.57955 30.709ZM4.78926 30.8257C4.86667 30.8492 4.94821 30.856 5.02844 30.8455L5.00253 30.6472C4.95052 30.654 4.89765 30.6496 4.84746 30.6344L4.78926 30.8257ZM5.01549 30.8464H36.0267V30.6464H5.01549V30.8464ZM36.0138 30.8455C36.094 30.856 36.1755 30.8492 36.2529 30.8257L36.1947 30.6344C36.1446 30.6496 36.0917 30.654 36.0397 30.6472L36.0138 30.8455ZM36.2529 30.8257C36.3303 30.8022 36.4018 30.7624 36.4626 30.709L36.3307 30.5587C36.2913 30.5933 36.2449 30.6191 36.1947 30.6344L36.2529 30.8257ZM36.4626 30.709C36.5235 30.6556 36.5722 30.5899 36.6055 30.5162L36.4234 30.4337C36.4017 30.4815 36.3701 30.5241 36.3307 30.5587L36.4626 30.709ZM36.6055 30.5162C36.6389 30.4425 36.6562 30.3625 36.6562 30.2816H36.4562C36.4562 30.334 36.445 30.3859 36.4234 30.4337L36.6055 30.5162ZM36.6562 30.2816C36.6562 30.2007 36.6389 30.1207 36.6055 30.047L36.4234 30.1295C36.445 30.1773 36.4562 30.2291 36.4562 30.2816H36.6562ZM36.6055 30.047C36.5722 29.9733 36.5235 29.9075 36.4626 29.8542L36.3307 30.0045C36.3701 30.0391 36.4017 30.0817 36.4234 30.1295L36.6055 30.047ZM36.4626 29.8542C36.4018 29.8008 36.3303 29.761 36.2529 29.7375L36.1947 29.9288C36.2449 29.9441 36.2913 29.9699 36.3307 30.0045L36.4626 29.8542ZM36.2529 29.7375C36.1755 29.7139 36.094 29.7071 36.0138 29.7176L36.0397 29.9159C36.0917 29.9092 36.1445 29.9135 36.1947 29.9288L36.2529 29.7375Z" fill="white" mask="url(#path-1-outside-1_6_8057)"/>
</svg>
