<svg width="17" height="17" viewBox="0 0 17 17" fill="none" xmlns="http://www.w3.org/2000/svg">
<path d="M11.0355 8.50007C11.0355 9.90257 9.9022 11.0359 8.4997 11.0359C7.0972 11.0359 5.96387 9.90257 5.96387 8.50007C5.96387 7.09757 7.0972 5.96423 8.4997 5.96423C9.9022 5.96423 11.0355 7.09757 11.0355 8.50007Z" stroke="#43BEBB" stroke-width="1.3" stroke-linecap="round" stroke-linejoin="round"/>
<path d="M8.49989 14.3579C11.0003 14.3579 13.3307 12.8846 14.9528 10.3346C15.5903 9.33584 15.5903 7.65709 14.9528 6.65834C13.3307 4.10834 11.0003 2.63501 8.49989 2.63501C5.99947 2.63501 3.66906 4.10834 2.04697 6.65834C1.40947 7.65709 1.40947 9.33584 2.04697 10.3346C3.66906 12.8846 5.99947 14.3579 8.49989 14.3579Z" stroke="#43BEBB" stroke-width="1.3" stroke-linecap="round" stroke-linejoin="round"/>
</svg>
