<svg width="40" height="40" viewBox="0 0 40 40" fill="none" xmlns="http://www.w3.org/2000/svg">
<g clip-path="url(#clip0_6_8041)">
<path d="M21.196 33.0952H18.8165C18.6902 33.0952 18.5691 33.1454 18.4798 33.2347C18.3905 33.324 18.3403 33.4451 18.3403 33.5714C18.3403 33.6977 18.3905 33.8188 18.4798 33.9081C18.5691 33.9974 18.6902 34.0476 18.8165 34.0476H21.196C21.3223 34.0476 21.4435 33.9974 21.5328 33.9081C21.6221 33.8188 21.6722 33.6977 21.6722 33.5714C21.6722 33.4451 21.6221 33.324 21.5328 33.2347C21.4435 33.1454 21.3223 33.0952 21.196 33.0952Z" fill="#0BCEB2"/>
<path d="M29.3531 14.6348C29.256 14.5542 29.131 14.5155 29.0053 14.527C28.8797 14.5386 28.7638 14.5995 28.6831 14.6964C28.6024 14.7933 28.5634 14.9183 28.5747 15.0439C28.586 15.1696 28.6467 15.2856 28.7434 15.3665L29.6004 16.0807C29.6982 16.1595 29.8229 16.1971 29.948 16.1857C30.0732 16.1743 30.189 16.1148 30.2711 16.0196C30.3519 15.9226 30.3909 15.7974 30.3794 15.6717C30.368 15.5459 30.307 15.4298 30.21 15.349L29.3531 14.6348Z" fill="#2D4356"/>
<path d="M30.4762 12.62H29.0484C28.9221 12.62 28.801 12.6702 28.7117 12.7595C28.6224 12.8488 28.5722 12.9699 28.5722 13.0962C28.5722 13.2225 28.6224 13.3436 28.7117 13.4329C28.801 13.5222 28.9221 13.5724 29.0484 13.5724H30.4762C30.6025 13.5724 30.7236 13.5222 30.8129 13.4329C30.9022 13.3436 30.9524 13.2225 30.9524 13.0962C30.9524 12.9699 30.9022 12.8488 30.8129 12.7595C30.7236 12.6702 30.6025 12.62 30.4762 12.62Z" fill="#0BCEB2"/>
<path d="M10.6467 14.6348L9.7898 15.349C9.69277 15.4298 9.63183 15.5459 9.62039 15.6717C9.60894 15.7975 9.64792 15.9226 9.72876 16.0197C9.81084 16.1148 9.92665 16.1743 10.0518 16.1857C10.1769 16.1971 10.3015 16.1595 10.3994 16.0807L11.2564 15.3665C11.3046 15.3266 11.3444 15.2775 11.3736 15.2221C11.4028 15.1667 11.4207 15.1061 11.4265 15.0437C11.4322 14.9814 11.4256 14.9185 11.407 14.8587C11.3884 14.7989 11.3582 14.7434 11.3181 14.6953C11.278 14.6472 11.2289 14.6074 11.1734 14.5783C11.118 14.5493 11.0573 14.5314 10.995 14.5258C10.9326 14.5202 10.8697 14.5269 10.81 14.5456C10.7502 14.5643 10.6948 14.5946 10.6467 14.6348H10.6467ZM10.6467 11.5559C10.7446 11.6347 10.8693 11.6725 10.9944 11.6611C11.1196 11.6497 11.2354 11.5901 11.3174 11.4948C11.3983 11.3978 11.4372 11.2726 11.4258 11.1468C11.4143 11.0211 11.3534 10.905 11.2564 10.8241L10.3994 10.11C10.3514 10.0698 10.2959 10.0395 10.2362 10.0208C10.1764 10.0021 10.1136 9.99533 10.0512 10.0009C9.98885 10.0066 9.92821 10.0244 9.87276 10.0535C9.81731 10.0826 9.76813 10.1223 9.72805 10.1704C9.68797 10.2185 9.65777 10.274 9.63918 10.3338C9.62059 10.3936 9.61397 10.4565 9.61971 10.5188C9.62544 10.5812 9.64342 10.6418 9.6726 10.6972C9.70179 10.7526 9.74161 10.8017 9.78979 10.8417L10.6467 11.5559Z" fill="#2D4356"/>
<path d="M10.9518 12.62H9.52404C9.39775 12.62 9.27663 12.6702 9.18732 12.7595C9.09802 12.8488 9.04785 12.9699 9.04785 13.0962C9.04785 13.2225 9.09802 13.3436 9.18732 13.4329C9.27663 13.5222 9.39775 13.5724 9.52404 13.5724H10.9518C11.0781 13.5724 11.1992 13.5222 11.2885 13.4329C11.3778 13.3436 11.428 13.2225 11.428 13.0962C11.428 12.9699 11.3778 12.8488 11.2885 12.7595C11.1992 12.6702 11.0781 12.62 10.9518 12.62ZM20.1251 16.5245C19.7226 16.4739 19.3139 16.536 18.9446 16.7037C18.5752 16.8715 18.2596 17.1385 18.0329 17.4749C17.9979 17.5267 17.9734 17.5849 17.9608 17.6462C17.9483 17.7074 17.9479 17.7706 17.9598 17.832C17.9716 17.8934 17.9955 17.9519 18.0299 18.004C18.0644 18.0562 18.1088 18.1011 18.1606 18.1362C18.2124 18.1712 18.2706 18.1957 18.3318 18.2083C18.3931 18.2208 18.4562 18.2212 18.5176 18.2093C18.5791 18.1975 18.6375 18.1736 18.6897 18.1392C18.7419 18.1047 18.7868 18.0603 18.8218 18.0085C18.9255 17.8548 19.0622 17.7262 19.222 17.6322C19.3817 17.5381 19.5605 17.4809 19.7451 17.4648C19.9298 17.4487 20.1158 17.4741 20.2894 17.5391C20.463 17.6041 20.6199 17.7071 20.7486 17.8406C20.8773 17.974 20.9745 18.1345 21.0332 18.3104C21.0919 18.4863 21.1105 18.673 21.0877 18.857C21.0649 19.041 21.0013 19.2175 20.9015 19.3738C20.8017 19.53 20.6682 19.6619 20.5108 19.76C20.1948 19.9261 19.9336 20.1799 19.7585 20.4911C19.5834 20.8022 19.502 21.1573 19.524 21.5136V23.3334C19.524 23.4596 19.5742 23.5808 19.6635 23.6701C19.7528 23.7594 19.8739 23.8095 20.0002 23.8095C20.1265 23.8095 20.2476 23.7594 20.337 23.6701C20.4263 23.5808 20.4764 23.4596 20.4764 23.3334V21.5136C20.4764 21.0353 20.5923 20.8321 21.0154 20.5677C21.4005 20.3276 21.7017 19.974 21.8777 19.5557C22.0537 19.1374 22.0958 18.6749 21.9982 18.2317C21.9006 17.7885 21.6681 17.3864 21.3327 17.0807C20.9973 16.775 20.5754 16.5807 20.1251 16.5245V16.5245Z" fill="#0BCEB2"/>
<path d="M20.0001 25.7143C20.2631 25.7143 20.4763 25.5011 20.4763 25.2382C20.4763 24.9752 20.2631 24.762 20.0001 24.762C19.7371 24.762 19.5239 24.9752 19.5239 25.2382C19.5239 25.5011 19.7371 25.7143 20.0001 25.7143Z" fill="#0BCEB2"/>
<path d="M29.3548 11.5596L30.2117 10.8455C30.2599 10.8055 30.2997 10.7564 30.3289 10.701C30.3581 10.6456 30.376 10.585 30.3818 10.5226C30.3875 10.4603 30.3809 10.3974 30.3623 10.3376C30.3437 10.2778 30.3135 10.2223 30.2734 10.1742C30.2333 10.1261 30.1842 10.0864 30.1287 10.0573C30.0733 10.0282 30.0126 10.0103 29.9503 10.0047C29.8879 9.99911 29.825 10.0059 29.7653 10.0246C29.7055 10.0433 29.6501 10.0736 29.602 10.1137L28.7451 10.8279C28.6481 10.9088 28.5871 11.0248 28.5757 11.1506C28.5642 11.2764 28.6032 11.4016 28.6841 11.4986C28.7661 11.5938 28.8819 11.6535 29.0071 11.6649C29.1322 11.6763 29.2569 11.6385 29.3548 11.5596Z" fill="#2D4356"/>
<path d="M0.47619 35.9524C0.739183 35.9524 0.952381 35.7392 0.952381 35.4762C0.952381 35.2132 0.739183 35 0.47619 35C0.213198 35 0 35.2132 0 35.4762C0 35.7392 0.213198 35.9524 0.47619 35.9524Z" fill="#2D4356"/>
<path d="M2.61919 35H1.9049C1.77861 35 1.65749 35.0502 1.56818 35.1395C1.47888 35.2288 1.42871 35.3499 1.42871 35.4762C1.42871 35.6025 1.47888 35.7236 1.56818 35.8129C1.65749 35.9022 1.77861 35.9524 1.9049 35.9524H2.61919C2.74548 35.9524 2.8666 35.9022 2.9559 35.8129C3.04521 35.7236 3.09538 35.6025 3.09538 35.4762C3.09538 35.3499 3.04521 35.2288 2.9559 35.1395C2.8666 35.0502 2.74548 35 2.61919 35ZM38.0954 35H37.3811C37.2548 35 37.1337 35.0502 37.0444 35.1395C36.9551 35.2288 36.9049 35.3499 36.9049 35.4762C36.9049 35.6025 36.9551 35.7236 37.0444 35.8129C37.1337 35.9022 37.2548 35.9524 37.3811 35.9524H38.0954C38.2217 35.9524 38.3428 35.9022 38.4321 35.8129C38.5214 35.7236 38.5716 35.6025 38.5716 35.4762C38.5716 35.3499 38.5214 35.2288 38.4321 35.1395C38.3428 35.0502 38.2217 35 38.0954 35Z" fill="#2D4356"/>
<path d="M39.524 35.9524C39.787 35.9524 40.0002 35.7392 40.0002 35.4762C40.0002 35.2132 39.787 35 39.524 35C39.261 35 39.0479 35.2132 39.0479 35.4762C39.0479 35.7392 39.261 35.9524 39.524 35.9524Z" fill="#2D4356"/>
<path d="M28.132 36.9048H26.154C26.0343 36.9144 25.9226 36.9687 25.8411 37.0569C25.7597 37.1452 25.7144 37.2609 25.7144 37.381C25.7144 37.5011 25.7597 37.6168 25.8411 37.705C25.9226 37.7932 26.0343 37.8476 26.154 37.8572H28.132C28.2517 37.8476 28.3634 37.7932 28.4449 37.705C28.5264 37.6168 28.5716 37.5011 28.5716 37.381C28.5716 37.2609 28.5264 37.1452 28.4449 37.0569C28.3634 36.9687 28.2517 36.9144 28.132 36.9048ZM13.8463 36.9048H11.8683C11.7486 36.9144 11.6369 36.9687 11.5554 37.0569C11.4739 37.1452 11.4287 37.2609 11.4287 37.381C11.4287 37.5011 11.4739 37.6168 11.5554 37.705C11.6369 37.7932 11.7486 37.8476 11.8683 37.8572H13.8463C13.966 37.8476 14.0777 37.7932 14.1592 37.705C14.2406 37.6168 14.2859 37.5011 14.2859 37.381C14.2859 37.2609 14.2406 37.1452 14.1592 37.0569C14.0777 36.9687 13.966 36.9144 13.8463 36.9048ZM24.7621 36.9048H15.2382C15.1119 36.9048 14.9908 36.955 14.9015 37.0443C14.8122 37.1336 14.7621 37.2547 14.7621 37.381C14.7621 37.5073 14.8122 37.6284 14.9015 37.7177C14.9908 37.807 15.1119 37.8572 15.2382 37.8572H19.0335V38.3334H17.143C17.0167 38.3334 16.8956 38.3835 16.8063 38.4728C16.717 38.5621 16.6668 38.6833 16.6668 38.8095C16.6668 38.9358 16.717 39.057 16.8063 39.1463C16.8956 39.2356 17.0167 39.2857 17.143 39.2857H23.0954C23.2217 39.2857 23.3428 39.2356 23.4321 39.1463C23.5214 39.057 23.5716 38.9358 23.5716 38.8095C23.5716 38.6833 23.5214 38.5621 23.4321 38.4728C23.3428 38.3835 23.2217 38.3334 23.0954 38.3334H20.9668V37.8572H24.7621C24.8883 37.8572 25.0095 37.807 25.0988 37.7177C25.1881 37.6284 25.2382 37.5073 25.2382 37.381C25.2382 37.2547 25.1881 37.1336 25.0988 37.0443C25.0095 36.955 24.8883 36.9048 24.7621 36.9048Z" fill="#0BCEB2"/>
<path d="M35.8858 35H27.5376C27.5924 34.8472 27.6206 34.6861 27.6209 34.5238V6.90477C27.6205 6.52601 27.4699 6.16289 27.202 5.89507C26.9342 5.62725 26.5711 5.47661 26.1923 5.4762H13.8198C13.441 5.47661 13.0779 5.62725 12.8101 5.89507C12.5422 6.16289 12.3916 6.52601 12.3912 6.90477V34.5238C12.3915 34.6861 12.4197 34.8472 12.4745 35H4.11375C4.046 34.9912 3.97715 34.9969 3.91179 35.0167C3.84642 35.0366 3.78605 35.0702 3.73471 35.1153C3.68336 35.1604 3.64223 35.2159 3.61405 35.2781C3.58587 35.3403 3.57129 35.4079 3.57129 35.4762C3.57129 35.5445 3.58587 35.6121 3.61405 35.6743C3.64223 35.7365 3.68336 35.792 3.73471 35.8371C3.78605 35.8822 3.84642 35.9158 3.91179 35.9356C3.97715 35.9555 4.046 35.9612 4.11375 35.9524H35.8858C35.9535 35.9612 36.0224 35.9555 36.0878 35.9356C36.1531 35.9158 36.2135 35.8822 36.2648 35.8371C36.3162 35.792 36.3573 35.7365 36.3855 35.6743C36.4137 35.6121 36.4283 35.5445 36.4283 35.4762C36.4283 35.4079 36.4137 35.3403 36.3855 35.2781C36.3573 35.2159 36.3162 35.1604 36.2648 35.1153C36.2135 35.0702 36.1531 35.0366 36.0878 35.0167C36.0224 34.9969 35.9535 34.9912 35.8858 35ZM16.6749 6.42858H23.3372V6.90477C23.3371 7.03094 23.287 7.15195 23.1979 7.24122C23.1087 7.3305 22.9877 7.38075 22.8616 7.38096H17.1505C17.0244 7.38075 16.9034 7.3305 16.8143 7.24122C16.7251 7.15195 16.675 7.03094 16.6749 6.90477V6.42858ZM13.8198 35C13.6935 34.9999 13.5725 34.9497 13.4832 34.8604C13.3939 34.7711 13.3437 34.6501 13.3436 34.5238V6.90477C13.3437 6.77851 13.3939 6.65747 13.4832 6.56819C13.5725 6.47891 13.6935 6.4287 13.8198 6.42858H15.7225V6.90477C15.7229 7.28344 15.8734 7.64652 16.1411 7.91434C16.4088 8.18216 16.7719 8.33284 17.1505 8.33334H22.8616C23.2402 8.33284 23.6033 8.18216 23.871 7.91434C24.1387 7.64652 24.2892 7.28344 24.2896 6.90477V6.42858H26.1923C26.3186 6.4287 26.4396 6.47891 26.5289 6.56819C26.6182 6.65747 26.6684 6.77851 26.6685 6.90477V34.5238C26.6684 34.6501 26.6182 34.7711 26.5289 34.8604C26.4396 34.9497 26.3186 34.9999 26.1923 35H13.8198Z" fill="#2D4356"/>
</g>
<defs>
<clipPath id="clip0_6_8041">
<rect width="40" height="40" fill="white"/>
</clipPath>
</defs>
</svg>
