<svg width="38" height="32" viewBox="0 0 38 32" fill="none" xmlns="http://www.w3.org/2000/svg">
<path d="M26.4398 29.7623H24.5807C24.4682 29.7713 24.3632 29.8223 24.2866 29.9053C24.2101 29.9882 24.1676 30.0969 24.1676 30.2098C24.1676 30.3227 24.2101 30.4314 24.2866 30.5144C24.3632 30.5973 24.4682 30.6484 24.5807 30.6574H26.4398C26.5523 30.6484 26.6573 30.5973 26.7338 30.5144C26.8104 30.4314 26.8529 30.3227 26.8529 30.2098C26.8529 30.0969 26.8104 29.9882 26.7338 29.9053C26.6573 29.8223 26.5523 29.7713 26.4398 29.7623ZM13.0132 29.7623H11.1541C11.0416 29.7713 10.9366 29.8223 10.8601 29.9053C10.7835 29.9882 10.741 30.0969 10.741 30.2098C10.741 30.3227 10.7835 30.4314 10.8601 30.5144C10.9366 30.5973 11.0416 30.6484 11.1541 30.6574H13.0132C13.1257 30.6484 13.2307 30.5973 13.3073 30.5144C13.3838 30.4314 13.4263 30.3227 13.4263 30.2098C13.4263 30.0969 13.3838 29.9882 13.3073 29.9053C13.2307 29.8223 13.1257 29.7713 13.0132 29.7623ZM23.2725 29.7623H14.3214C14.2027 29.7623 14.0889 29.8094 14.005 29.8933C13.921 29.9773 13.8739 30.0911 13.8739 30.2098C13.8739 30.3285 13.921 30.4424 14.005 30.5263C14.0889 30.6102 14.2027 30.6574 14.3214 30.6574H17.8884V31.1049H16.1116C15.9929 31.1049 15.8791 31.1521 15.7952 31.236C15.7112 31.3199 15.6641 31.4338 15.6641 31.5525C15.6641 31.6712 15.7112 31.785 15.7952 31.8689C15.8791 31.9529 15.9929 32 16.1116 32H21.706C21.8247 32 21.9386 31.9529 22.0225 31.8689C22.1064 31.785 22.1536 31.6712 22.1536 31.5525C22.1536 31.4338 22.1064 31.3199 22.0225 31.236C21.9386 31.1521 21.8247 31.1049 21.706 31.1049H19.7055V30.6574H23.2725C23.3912 30.6574 23.505 30.6102 23.5889 30.5263C23.6729 30.4424 23.72 30.3285 23.72 30.2098C23.72 30.0911 23.6729 29.9773 23.5889 29.8933C23.505 29.8094 23.3912 29.7623 23.2725 29.7623ZM13.8739 20.5874H23.72C23.8387 20.5874 23.9526 20.5403 24.0365 20.4564C24.1204 20.3724 24.1676 20.2586 24.1676 20.1399C24.1676 20.0212 24.1204 19.9073 24.0365 19.8234C23.9526 19.7395 23.8387 19.6923 23.72 19.6923H13.8739C13.7552 19.6923 13.6413 19.7395 13.5574 19.8234C13.4735 19.9073 13.4263 20.0212 13.4263 20.1399C13.4263 20.2586 13.4735 20.3724 13.5574 20.4564C13.6413 20.5403 13.7552 20.5874 13.8739 20.5874ZM13.8739 18.7972H23.72C23.8387 18.7972 23.9526 18.7501 24.0365 18.6661C24.1204 18.5822 24.1676 18.4684 24.1676 18.3497C24.1676 18.231 24.1204 18.1171 24.0365 18.0332C23.9526 17.9493 23.8387 17.9021 23.72 17.9021H13.8739C13.7552 17.9021 13.6413 17.9493 13.5574 18.0332C13.4735 18.1171 13.4263 18.231 13.4263 18.3497C13.4263 18.4684 13.4735 18.5822 13.5574 18.6661C13.6413 18.7501 13.7552 18.7972 13.8739 18.7972ZM27.3004 9.84618V5.81821C27.2998 5.22492 27.0638 4.65612 26.6443 4.2366C26.2248 3.81708 25.656 3.5811 25.0627 3.58044H21.9298C21.4947 3.58099 21.0691 3.70826 20.7052 3.9467C20.3412 4.18513 20.0545 4.52442 19.8802 4.9231H17.7137C17.5394 4.52442 17.2527 4.18513 16.8888 3.9467C16.5248 3.70826 16.0992 3.58099 15.6641 3.58044H12.5312C11.9379 3.5811 11.3691 3.81708 10.9496 4.2366C10.5301 4.65612 10.2941 5.22492 10.2935 5.81821V9.84618C10.2941 10.4395 10.5301 11.0083 10.9496 11.4278C11.3691 11.8473 11.9379 12.0833 12.5312 12.0839H15.6641C16.2574 12.0833 16.8262 11.8473 17.2457 11.4278C17.6652 11.0083 17.9012 10.4395 17.9018 9.84618V8.27975H19.6921V9.84618C19.6927 10.4395 19.9287 11.0083 20.3482 11.4278C20.7677 11.8473 21.3365 12.0833 21.9298 12.0839H25.0627C25.656 12.0833 26.2248 11.8473 26.6443 11.4278C27.0638 11.0083 27.2998 10.4395 27.3004 9.84618ZM17.0067 9.84618C17.0064 10.2022 16.8648 10.5434 16.6131 10.7952C16.3613 11.0469 16.0201 11.1884 15.6641 11.1888H12.5312C12.1752 11.1884 11.834 11.0469 11.5822 10.7952C11.3305 10.5434 11.189 10.2022 11.1886 9.84618V5.81821C11.189 5.46223 11.3305 5.12095 11.5822 4.86923C11.834 4.61752 12.1752 4.47594 12.5312 4.47555H15.6641C16.0201 4.47594 16.3613 4.61752 16.6131 4.86923C16.8648 5.12095 17.0064 5.46223 17.0067 5.81821V9.84618ZM19.6921 7.38464H17.9018V5.81821H19.6921V7.38464ZM26.4053 9.84618C26.405 10.2022 26.2634 10.5434 26.0117 10.7952C25.7599 11.0469 25.4187 11.1884 25.0627 11.1888H21.9298C21.5738 11.1884 21.2326 11.0469 20.9808 10.7952C20.7291 10.5434 20.5876 10.2022 20.5872 9.84618V5.81821C20.5876 5.46223 20.7291 5.12095 20.9808 4.86923C21.2326 4.61752 21.5738 4.47594 21.9298 4.47555H25.0627C25.4187 4.47594 25.7599 4.61752 26.0117 4.86923C26.2634 5.12095 26.405 5.46223 26.4053 5.81821V9.84618Z" fill="#0BCEB2"/>
<path d="M14.0976 5.59436C13.655 5.59436 13.2224 5.7256 12.8544 5.97149C12.4864 6.21738 12.1996 6.56687 12.0302 6.97577C11.8608 7.38467 11.8165 7.83461 11.9029 8.26869C11.9892 8.70277 12.2023 9.1015 12.5153 9.41446C12.8282 9.72742 13.227 9.94054 13.6611 10.0269C14.0951 10.1132 14.5451 10.0689 14.954 9.89955C15.3629 9.73018 15.7124 9.44336 15.9583 9.07536C16.2041 8.70736 16.3354 8.27471 16.3354 7.83212C16.3347 7.23883 16.0988 6.67003 15.6792 6.25051C15.2597 5.831 14.6909 5.59502 14.0976 5.59436ZM14.0976 9.17478C13.8321 9.17478 13.5725 9.09604 13.3517 8.9485C13.1309 8.80097 12.9588 8.59127 12.8572 8.34594C12.7556 8.1006 12.729 7.83063 12.7808 7.57018C12.8326 7.30973 12.9605 7.0705 13.1482 6.88272C13.336 6.69495 13.5752 6.56707 13.8357 6.51526C14.0961 6.46346 14.3661 6.49005 14.6114 6.59167C14.8568 6.69329 15.0665 6.86538 15.214 7.08618C15.3615 7.30698 15.4403 7.56657 15.4403 7.83212C15.4399 8.1881 15.2983 8.52938 15.0466 8.7811C14.7949 9.03281 14.4536 9.17439 14.0976 9.17478ZM23.4962 5.59436C23.0536 5.59436 22.621 5.7256 22.253 5.97149C21.885 6.21738 21.5982 6.56687 21.4288 6.97577C21.2594 7.38467 21.2151 7.83461 21.3015 8.26869C21.3878 8.70277 21.6009 9.1015 21.9139 9.41446C22.2268 9.72742 22.6256 9.94054 23.0597 10.0269C23.4937 10.1132 23.9437 10.0689 24.3526 9.89955C24.7615 9.73018 25.111 9.44336 25.3569 9.07536C25.6027 8.70736 25.734 8.27471 25.734 7.83212C25.7333 7.23883 25.4974 6.67003 25.0778 6.25051C24.6583 5.831 24.0895 5.59502 23.4962 5.59436ZM23.4962 9.17478C23.2307 9.17478 22.9711 9.09604 22.7503 8.9485C22.5295 8.80097 22.3574 8.59127 22.2558 8.34594C22.1542 8.1006 22.1276 7.83063 22.1794 7.57018C22.2312 7.30973 22.3591 7.0705 22.5468 6.88272C22.7346 6.69495 22.9738 6.56707 23.2343 6.51526C23.4947 6.46346 23.7647 6.49005 24.01 6.59167C24.2554 6.69329 24.4651 6.86538 24.6126 7.08618C24.7601 7.30698 24.8389 7.56657 24.8389 7.83212C24.8385 8.1881 24.6969 8.52938 24.4452 8.7811C24.1935 9.03281 23.8522 9.17439 23.4962 9.17478Z" fill="#2D4356"/>
<path d="M0.447552 28.867C0.694729 28.867 0.895105 28.6667 0.895105 28.4195C0.895105 28.1723 0.694729 27.9719 0.447552 27.9719C0.200376 27.9719 0 28.1723 0 28.4195C0 28.6667 0.200376 28.867 0.447552 28.867Z" fill="#2D4356"/>
<path d="M2.46156 27.972H1.79023C1.67154 27.972 1.5577 28.0192 1.47377 28.1031C1.38983 28.1871 1.34268 28.3009 1.34268 28.4196C1.34268 28.5383 1.38983 28.6521 1.47377 28.7361C1.5577 28.82 1.67154 28.8672 1.79023 28.8672H2.46156C2.58026 28.8672 2.6941 28.82 2.77803 28.7361C2.86196 28.6521 2.90912 28.5383 2.90912 28.4196C2.90912 28.3009 2.86196 28.1871 2.77803 28.1031C2.6941 28.0192 2.58026 27.972 2.46156 27.972ZM35.8042 27.972H35.1329C35.0142 27.972 34.9004 28.0192 34.8164 28.1031C34.7325 28.1871 34.6853 28.3009 34.6853 28.4196C34.6853 28.5383 34.7325 28.6521 34.8164 28.7361C34.9004 28.82 35.0142 28.8672 35.1329 28.8672H35.8042C35.9229 28.8672 36.0368 28.82 36.1207 28.7361C36.2046 28.6521 36.2518 28.5383 36.2518 28.4196C36.2518 28.3009 36.2046 28.1871 36.1207 28.1031C36.0368 28.0192 35.9229 27.972 35.8042 27.972Z" fill="#2D4356"/>
<path d="M37.1468 28.867C37.3939 28.867 37.5943 28.6667 37.5943 28.4195C37.5943 28.1723 37.3939 27.9719 37.1468 27.9719C36.8996 27.9719 36.6992 28.1723 36.6992 28.4195C36.6992 28.6667 36.8996 28.867 37.1468 28.867Z" fill="#2D4356"/>
<path d="M33.728 27.972H32.2239V20.9944L33.119 20.6812V16.7832H28.6435V16.5594C28.6431 16.2035 28.5015 15.8622 28.2498 15.6105C27.9981 15.3588 27.6568 15.2172 27.3009 15.2168H24.8393V13.8741H25.5107C26.3036 13.8727 27.0736 13.6083 27.7002 13.1224C28.3268 12.6364 28.7745 11.9564 28.9732 11.1888H30.21C30.6253 11.1883 31.0234 11.0232 31.3171 10.7295C31.6107 10.4358 31.7759 10.0377 31.7764 9.62238V6.04196C31.7759 5.62666 31.6107 5.2285 31.3171 4.93484C31.0234 4.64117 30.6253 4.47599 30.21 4.47552H28.9732C28.7745 3.70792 28.3268 3.0279 27.7002 2.54198C27.0736 2.05605 26.3036 1.79166 25.5107 1.79021H24.8393V0.447552C24.8393 0.328854 24.7922 0.215018 24.7082 0.131085C24.6243 0.0471528 24.5105 0 24.3918 0C24.2731 0 24.1592 0.0471528 24.0753 0.131085C23.9914 0.215018 23.9442 0.328854 23.9442 0.447552V1.79021H13.6505V0.447552C13.6505 0.328854 13.6034 0.215018 13.5194 0.131085C13.4355 0.0471528 13.3217 0 13.203 0C13.0843 0 12.9704 0.0471528 12.8865 0.131085C12.8026 0.215018 12.7554 0.328854 12.7554 0.447552V1.79021H12.0841C11.2912 1.79166 10.5211 2.05605 9.89453 2.54198C9.26796 3.0279 8.82024 3.70792 8.62149 4.47552H7.38478C6.96948 4.47599 6.57132 4.64117 6.27766 4.93484C5.98399 5.2285 5.81881 5.62666 5.81834 6.04196V9.62238C5.81881 10.0377 5.98399 10.4358 6.27766 10.7295C6.57132 11.0232 6.96948 11.1883 7.38478 11.1888H8.62149C8.82024 11.9564 9.26796 12.6364 9.89453 13.1224C10.5211 13.6083 11.2912 13.8727 12.0841 13.8741H12.7554V15.2168H10.2939C9.93789 15.2172 9.59661 15.3588 9.34489 15.6105C9.09318 15.8622 8.9516 16.2035 8.95121 16.5594V16.7832H4.47569V20.6812L5.37079 20.9944V27.972H3.86672C3.80305 27.9637 3.73834 27.9691 3.67691 27.9878C3.61547 28.0065 3.55873 28.038 3.51048 28.0804C3.46222 28.1227 3.42356 28.1749 3.39707 28.2334C3.37059 28.2919 3.35689 28.3554 3.35689 28.4196C3.35689 28.4838 3.37059 28.5473 3.39707 28.6058C3.42356 28.6643 3.46222 28.7164 3.51048 28.7588C3.55873 28.8012 3.61547 28.8327 3.67691 28.8514C3.73834 28.8701 3.80305 28.8755 3.86672 28.8671H33.728C33.7917 28.8755 33.8564 28.8701 33.9178 28.8514C33.9793 28.8327 34.036 28.8012 34.0842 28.7588C34.1325 28.7164 34.1712 28.6643 34.1977 28.6058C34.2241 28.5473 34.2378 28.4838 34.2378 28.4196C34.2378 28.3554 34.2241 28.2919 34.1977 28.2334C34.1712 28.1749 34.1325 28.1227 34.0842 28.0804C34.036 28.038 33.9793 28.0065 33.9178 27.9878C33.8564 27.9691 33.7917 27.9637 33.728 27.972ZM29.0911 5.37063H30.21C30.3879 5.37082 30.5586 5.44162 30.6844 5.56747C30.8103 5.69333 30.8811 5.86397 30.8813 6.04196V9.62238C30.8811 9.80037 30.8103 9.97101 30.6844 10.0969C30.5586 10.2227 30.3879 10.2935 30.21 10.2937H29.0911V5.37063ZM8.50366 10.2937H7.38478C7.20679 10.2935 7.03615 10.2227 6.91029 10.0969C6.78443 9.97101 6.71364 9.80037 6.71345 9.62238V6.04196C6.71364 5.86397 6.78443 5.69333 6.91029 5.56747C7.03615 5.44162 7.20679 5.37082 7.38478 5.37063H8.50366V10.2937ZM31.3288 27.972H30.4337V21.621L31.3288 21.3077V27.972ZM28.6435 17.6783H32.2239V20.0461L28.6435 21.2993V17.6783ZM29.5386 21.9343V27.972H28.6435V22.2476L29.5386 21.9343ZM12.0841 12.979C11.3721 12.9782 10.6896 12.695 10.1862 12.1916C9.68275 11.6882 9.39958 11.0056 9.39876 10.2937V5.37063C9.39958 4.65869 9.68275 3.97614 10.1862 3.47272C10.6896 2.96931 11.3721 2.68613 12.0841 2.68531H25.5107C26.2226 2.68613 26.9051 2.96931 27.4086 3.47272C27.912 3.97614 28.1952 4.65869 28.196 5.37063V10.2937C28.1952 11.0056 27.912 11.6882 27.4086 12.1916C26.9051 12.695 26.2226 12.9782 25.5107 12.979H12.0841ZM23.9442 13.8741V14.993H22.6016V13.8741H23.9442ZM21.7065 13.8741V15.2168H15.8883V13.8741H21.7065ZM14.9932 13.8741V14.993H13.6505V13.8741H14.9932ZM9.84631 16.7832V16.5594C9.84643 16.4408 9.89362 16.327 9.97753 16.2431C10.0614 16.1592 10.1752 16.112 10.2939 16.1119H27.3009C27.4195 16.112 27.5333 16.1592 27.6172 16.2431C27.7011 16.327 27.7483 16.4408 27.7484 16.5594V27.972H24.168V22.3776C24.168 22.2589 24.1208 22.1451 24.0369 22.0612C23.953 21.9772 23.8391 21.9301 23.7204 21.9301H13.8743C13.7556 21.9301 13.6418 21.9772 13.5578 22.0612C13.4739 22.1451 13.4267 22.2589 13.4267 22.3776V27.972H9.84631V16.7832ZM23.2729 27.972H14.3218V22.8252H23.2729V27.972ZM8.95121 27.972H8.05611V21.9343L8.95121 22.2476V27.972ZM5.37079 17.6783H8.95121V21.2993L5.37079 20.0461V17.6783ZM6.2659 21.3077L7.161 21.621V27.972H6.2659V21.3077Z" fill="#2D4356"/>
</svg>
