<svg width="42" height="35" viewBox="0 0 42 35" fill="none" xmlns="http://www.w3.org/2000/svg">
<path d="M0.492958 31.5493C0.765211 31.5493 0.985915 31.3286 0.985915 31.0563C0.985915 30.7841 0.765211 30.5634 0.492958 30.5634C0.220705 30.5634 0 30.7841 0 31.0563C0 31.3286 0.220705 31.5493 0.492958 31.5493Z" fill="#2D4356"/>
<path d="M2.71091 30.5634H1.97147C1.84073 30.5634 1.71535 30.6153 1.6229 30.7077C1.53045 30.8002 1.47852 30.9256 1.47852 31.0563C1.47852 31.1871 1.53045 31.3124 1.6229 31.4049C1.71535 31.4973 1.84073 31.5493 1.97147 31.5493H2.71091C2.84165 31.5493 2.96704 31.4973 3.05948 31.4049C3.15193 31.3124 3.20387 31.1871 3.20387 31.0563C3.20387 30.9256 3.15193 30.8002 3.05948 30.7077C2.96704 30.6153 2.84165 30.5634 2.71091 30.5634ZM39.4363 30.5634H38.6968C38.5661 30.5634 38.4407 30.6153 38.3483 30.7077C38.2558 30.8002 38.2039 30.9256 38.2039 31.0563C38.2039 31.1871 38.2558 31.3124 38.3483 31.4049C38.4407 31.4973 38.5661 31.5493 38.6968 31.5493H39.4363C39.567 31.5493 39.6924 31.4973 39.7848 31.4049C39.8773 31.3124 39.9292 31.1871 39.9292 31.0563C39.9292 30.9256 39.8773 30.8002 39.7848 30.7077C39.6924 30.6153 39.567 30.5634 39.4363 30.5634Z" fill="#2D4356"/>
<path d="M40.9153 31.5493C41.1876 31.5493 41.4083 31.3286 41.4083 31.0563C41.4083 30.7841 41.1876 30.5634 40.9153 30.5634C40.6431 30.5634 40.4224 30.7841 40.4224 31.0563C40.4224 31.3286 40.6431 31.5493 40.9153 31.5493Z" fill="#2D4356"/>
<path d="M29.1225 32.5352H27.0748C26.9509 32.5452 26.8353 32.6014 26.7509 32.6928C26.6666 32.7841 26.6198 32.9039 26.6198 33.0282C26.6198 33.1525 26.6666 33.2723 26.7509 33.3636C26.8353 33.455 26.9509 33.5112 27.0748 33.5212H29.1225C29.2464 33.5112 29.3621 33.455 29.4464 33.3636C29.5307 33.2723 29.5775 33.1525 29.5775 33.0282C29.5775 32.9039 29.5307 32.7841 29.4464 32.6928C29.3621 32.6014 29.2464 32.5452 29.1225 32.5352ZM14.3338 32.5352H12.2861C12.1622 32.5452 12.0465 32.6014 11.9622 32.6928C11.8779 32.7841 11.8311 32.9039 11.8311 33.0282C11.8311 33.1525 11.8779 33.2723 11.9622 33.3636C12.0465 33.455 12.1622 33.5112 12.2861 33.5212H14.3338C14.4577 33.5112 14.5733 33.455 14.6577 33.3636C14.742 33.2723 14.7888 33.1525 14.7888 33.0282C14.7888 32.9039 14.742 32.7841 14.6577 32.6928C14.5733 32.6014 14.4577 32.5452 14.3338 32.5352ZM25.6339 32.5352H15.7747C15.644 32.5352 15.5186 32.5872 15.4261 32.6796C15.3337 32.7721 15.2818 32.8975 15.2818 33.0282C15.2818 33.1589 15.3337 33.2843 15.4261 33.3768C15.5186 33.4692 15.644 33.5212 15.7747 33.5212H19.7036V34.0141H17.7466C17.6158 34.0141 17.4904 34.0661 17.398 34.1585C17.3055 34.2509 17.2536 34.3763 17.2536 34.5071C17.2536 34.6378 17.3055 34.7632 17.398 34.8556C17.4904 34.9481 17.6158 35 17.7466 35H23.9085C24.0393 35 24.1647 34.9481 24.2571 34.8556C24.3495 34.7632 24.4015 34.6378 24.4015 34.5071C24.4015 34.3763 24.3495 34.2509 24.2571 34.1585C24.1647 34.0661 24.0393 34.0141 23.9085 34.0141H21.705V33.5212H25.6339C25.7646 33.5212 25.89 33.4692 25.9825 33.3768C26.0749 33.2843 26.1268 33.1589 26.1268 33.0282C26.1268 32.8975 26.0749 32.7721 25.9825 32.6796C25.89 32.5872 25.7646 32.5352 25.6339 32.5352ZM21.4707 24.7305L18.513 22.7589C18.4387 22.7094 18.3524 22.6809 18.2633 22.6766C18.1742 22.6723 18.0855 22.6922 18.0069 22.7343C17.9282 22.7765 17.8624 22.8391 17.8166 22.9157C17.7707 22.9922 17.7465 23.0798 17.7466 23.169V27.1127C17.7466 27.2019 17.7708 27.2895 17.8166 27.366C17.8625 27.4426 17.9282 27.5053 18.0069 27.5474C18.0859 27.5885 18.1743 27.6078 18.2632 27.6035C18.3521 27.5992 18.4383 27.5714 18.5129 27.5229L21.4707 25.5508C21.5382 25.5058 21.5936 25.4448 21.6319 25.3732C21.6702 25.3017 21.6902 25.2218 21.6902 25.1406C21.6902 25.0595 21.6702 24.9796 21.6319 24.908C21.5936 24.8365 21.5382 24.7755 21.4707 24.7305L21.4707 24.7305ZM18.7325 26.1915V24.09L20.3086 25.1406L18.7325 26.1915ZM23.1691 23.169C23.0384 23.1691 22.913 23.221 22.8205 23.3134C22.7281 23.4059 22.6761 23.5313 22.6761 23.662V26.6198C22.6761 26.7505 22.7281 26.8759 22.8205 26.9683C22.913 27.0608 23.0383 27.1127 23.1691 27.1127C23.2998 27.1127 23.4252 27.0608 23.5177 26.9683C23.6101 26.8759 23.662 26.7505 23.662 26.6198V23.662C23.662 23.5313 23.6101 23.4059 23.5177 23.3134C23.4252 23.221 23.2998 23.1691 23.1691 23.169Z" fill="#0BCEB2"/>
<path d="M25.387 7.14795H16.0208C15.8901 7.14796 15.7647 7.19989 15.6722 7.29234C15.5798 7.38479 15.5278 7.51017 15.5278 7.64091V18.7325C15.5278 18.8632 15.5798 18.9886 15.6722 19.081C15.7647 19.1735 15.8901 19.2254 16.0208 19.2254H25.387C25.5177 19.2254 25.6431 19.1735 25.7356 19.081C25.828 18.9886 25.8799 18.8632 25.8799 18.7325V7.64091C25.8799 7.51017 25.828 7.38479 25.7356 7.29234C25.6431 7.19989 25.5177 7.14796 25.387 7.14795ZM24.894 18.2395H17.4193L19.4862 15.8479L21.1269 17.2211C21.2214 17.3001 21.3421 17.3409 21.4652 17.3354C21.5882 17.33 21.7048 17.2786 21.7919 17.1915L24.894 14.0892V18.2395ZM24.894 12.6987C24.8877 12.7044 21.4137 16.1755 21.4137 16.1755L19.7469 14.7805C19.6476 14.6974 19.5197 14.6567 19.3908 14.6671C19.2618 14.6776 19.1421 14.7383 19.0575 14.8362L16.5137 17.7795V8.13386H24.894V12.6987Z" fill="#2D4356"/>
<path d="M21.1971 13.3098C21.4896 13.3098 21.7756 13.2231 22.0188 13.0606C22.262 12.8981 22.4515 12.6671 22.5634 12.3969C22.6754 12.1266 22.7047 11.8293 22.6476 11.5424C22.5905 11.2555 22.4497 10.992 22.2429 10.7852C22.036 10.5784 21.7725 10.4375 21.4856 10.3805C21.1988 10.3234 20.9014 10.3527 20.6312 10.4646C20.361 10.5766 20.13 10.7661 19.9675 11.0093C19.805 11.2525 19.7183 11.5384 19.7183 11.8309C19.7187 12.223 19.8746 12.5989 20.1519 12.8762C20.4291 13.1534 20.805 13.3094 21.1971 13.3098ZM21.1971 11.338C21.2946 11.338 21.3899 11.3669 21.471 11.421C21.5521 11.4752 21.6153 11.5522 21.6526 11.6423C21.6899 11.7324 21.6996 11.8315 21.6806 11.9271C21.6616 12.0227 21.6147 12.1106 21.5457 12.1795C21.4768 12.2484 21.3889 12.2954 21.2933 12.3144C21.1977 12.3334 21.0986 12.3237 21.0085 12.2864C20.9184 12.249 20.8414 12.1859 20.7873 12.1048C20.7331 12.0237 20.7042 11.9284 20.7042 11.8309C20.7043 11.7002 20.7563 11.5749 20.8487 11.4825C20.9411 11.3901 21.0664 11.3381 21.1971 11.338Z" fill="#0BCEB2"/>
<path d="M37.1496 30.5634H29.0642C29.2388 30.2642 29.3309 29.9239 29.331 29.5775V1.97183C29.3304 1.44905 29.1224 0.94786 28.7528 0.5782C28.3831 0.20854 27.8819 0.000600811 27.3591 0H14.0493C13.5265 0.000598207 13.0253 0.208536 12.6557 0.578197C12.286 0.947857 12.0781 1.44905 12.0775 1.97183V29.5775C12.0776 29.9239 12.1696 30.2642 12.3443 30.5634H4.25882C4.18869 30.5542 4.11742 30.5601 4.04975 30.5807C3.98209 30.6013 3.91959 30.6361 3.86644 30.6827C3.81329 30.7294 3.7707 30.7868 3.74153 30.8513C3.71236 30.9157 3.69727 30.9856 3.69727 31.0563C3.69727 31.1271 3.71236 31.197 3.74153 31.2614C3.7707 31.3258 3.81329 31.3833 3.86644 31.43C3.91959 31.4766 3.98209 31.5114 4.04975 31.532C4.11742 31.5526 4.18869 31.5585 4.25882 31.5493H37.1496C37.2197 31.5585 37.291 31.5526 37.3587 31.532C37.4263 31.5114 37.4888 31.4766 37.542 31.43C37.5951 31.3833 37.6377 31.3258 37.6669 31.2614C37.6961 31.197 37.7112 31.1271 37.7112 31.0563C37.7112 30.9856 37.6961 30.9157 37.6669 30.8513C37.6377 30.7868 37.5951 30.7294 37.542 30.6827C37.4888 30.6361 37.4263 30.6013 37.3587 30.5807C37.291 30.5601 37.2197 30.5542 37.1496 30.5634ZM24.0896 0.985915L24.0346 1.42556C24.0092 1.57359 23.934 1.7085 23.8214 1.80788C23.7087 1.90725 23.5655 1.9651 23.4155 1.97183H17.9929C17.8429 1.9651 17.6996 1.90723 17.587 1.80783C17.4744 1.70844 17.3992 1.5735 17.3739 1.42544L17.319 0.985915H24.0896ZM14.0493 30.5634C13.7879 30.5631 13.5373 30.4591 13.3524 30.2743C13.1676 30.0895 13.0636 29.8389 13.0634 29.5775V1.97183C13.0637 1.71044 13.1676 1.45984 13.3525 1.27501C13.5373 1.09018 13.7879 0.986209 14.0493 0.985915H16.3254L16.3956 1.54759C16.4488 1.93501 16.6393 2.29046 16.9324 2.54927C17.2256 2.80807 17.6019 2.95302 17.9929 2.95775H23.4155C23.8065 2.95303 24.1828 2.80809 24.4759 2.54931C24.7691 2.29053 24.9596 1.93511 25.0128 1.54771L25.0831 0.985915H27.3591C27.6205 0.986212 27.8711 1.09018 28.056 1.27501C28.2408 1.45984 28.3448 1.71044 28.3451 1.97183V29.5775C28.3448 29.8389 28.2408 30.0895 28.056 30.2743C27.8712 30.4591 27.6205 30.5631 27.3591 30.5634H14.0493Z" fill="#2D4356"/>
</svg>
