<svg width="39" height="33" viewBox="0 0 39 33" fill="none" xmlns="http://www.w3.org/2000/svg">
<path d="M0.460095 29.446C0.714198 29.446 0.92019 29.24 0.92019 28.9859C0.92019 28.7318 0.714198 28.5258 0.460095 28.5258C0.205992 28.5258 0 28.7318 0 28.9859C0 29.24 0.205992 29.446 0.460095 29.446Z" fill="#002D4F"/>
<path d="M2.53052 28.5259H1.84037C1.71835 28.5259 1.60132 28.5744 1.51504 28.6606C1.42875 28.7469 1.38028 28.8639 1.38028 28.986C1.38028 29.108 1.42875 29.225 1.51504 29.3113C1.60132 29.3976 1.71835 29.4461 1.84037 29.4461H2.53052C2.65254 29.4461 2.76957 29.3976 2.85585 29.3113C2.94214 29.225 2.99061 29.108 2.99061 28.986C2.99061 28.8639 2.94214 28.7469 2.85585 28.6606C2.76957 28.5744 2.65254 28.5259 2.53052 28.5259Z" fill="#002D4F"/>
<path d="M27.1812 30.3662H25.27C25.1544 30.3755 25.0464 30.428 24.9677 30.5132C24.889 30.5985 24.8453 30.7103 24.8453 30.8263C24.8453 30.9423 24.889 31.0541 24.9677 31.1394C25.0464 31.2246 25.1544 31.2771 25.27 31.2864H27.1812C27.2969 31.2771 27.4048 31.2246 27.4835 31.1394C27.5622 31.0541 27.6059 30.9423 27.6059 30.8263C27.6059 30.7103 27.5622 30.5985 27.4835 30.5132C27.4048 30.428 27.2969 30.3755 27.1812 30.3662ZM13.3784 30.3662H11.4672C11.3515 30.3755 11.2436 30.428 11.1649 30.5132C11.0862 30.5985 11.0425 30.7103 11.0425 30.8263C11.0425 30.9423 11.0862 31.0541 11.1649 31.1394C11.2436 31.2246 11.3515 31.2771 11.4672 31.2864H13.3784C13.494 31.2771 13.602 31.2246 13.6807 31.1394C13.7594 31.0541 13.8031 30.9423 13.8031 30.8263C13.8031 30.7103 13.7594 30.5985 13.6807 30.5132C13.602 30.428 13.494 30.3755 13.3784 30.3662ZM23.9251 30.3662H14.7232C14.6012 30.3662 14.4842 30.4147 14.3979 30.501C14.3116 30.5873 14.2632 30.7043 14.2632 30.8263C14.2632 30.9483 14.3116 31.0654 14.3979 31.1516C14.4842 31.2379 14.6012 31.2864 14.7232 31.2864H18.3902V31.7465H16.5636C16.4416 31.7465 16.3246 31.795 16.2383 31.8813C16.152 31.9675 16.1035 32.0846 16.1035 32.2066C16.1035 32.3286 16.152 32.4456 16.2383 32.5319C16.3246 32.6182 16.4416 32.6667 16.5636 32.6667H22.3148C22.4368 32.6667 22.5539 32.6182 22.6402 32.5319C22.7264 32.4456 22.7749 32.3286 22.7749 32.2066C22.7749 32.0846 22.7264 31.9675 22.6402 31.8813C22.5539 31.795 22.4368 31.7465 22.3148 31.7465H20.2582V31.2864H23.9251C24.0472 31.2864 24.1642 31.2379 24.2505 31.1516C24.3368 31.0654 24.3852 30.9483 24.3852 30.8263C24.3852 30.7043 24.3368 30.5873 24.2505 30.501C24.1642 30.4147 24.0472 30.3662 23.9251 30.3662Z" fill="#43BEBB"/>
<path d="M28.4685 26.2254C28.1852 26.5476 27.8852 26.8548 27.5697 27.1456H33.127C33.2866 27.1456 33.4435 27.1041 33.5822 27.0251C33.7209 26.9461 33.8367 26.8324 33.9182 26.6951C33.9997 26.5579 34.0441 26.4018 34.047 26.2422C34.0499 26.0826 34.0112 25.9249 33.9348 25.7848L31.2248 20.8165C31.1294 21.2458 31.0107 21.6696 30.8691 22.0859L33.127 26.2254H28.4685ZM5.52125 27.1456H11.0785C10.763 26.8548 10.463 26.5476 10.1797 26.2254H5.52125L7.77915 22.086C7.63754 21.6696 7.51877 21.2458 7.42338 20.8165L4.71342 25.7848C4.63699 25.9249 4.59832 26.0826 4.60123 26.2422C4.60413 26.4018 4.64851 26.5579 4.73 26.6951C4.81148 26.8324 4.92728 26.9461 5.066 27.0251C5.20473 27.1041 5.36162 27.1456 5.52125 27.1456ZM19.3241 0.920196L22.2838 6.34636C22.7106 6.45286 23.1313 6.58257 23.5439 6.73491L20.1319 0.479561C20.0528 0.334432 19.936 0.213308 19.7938 0.128921C19.6517 0.0445341 19.4894 0 19.3241 0C19.1588 0 18.9965 0.0445341 18.8544 0.128921C18.7122 0.213308 18.5954 0.334432 18.5163 0.479561L15.1043 6.7349C15.5169 6.58256 15.9376 6.45285 16.3644 6.34635L19.3241 0.920196Z" fill="#002D4F"/>
<path d="M19.3241 22.7747C19.0511 22.7747 18.7843 22.8557 18.5573 23.0073C18.3303 23.159 18.1534 23.3746 18.0489 23.6268C17.9444 23.879 17.9171 24.1565 17.9704 24.4243C18.0236 24.692 18.1551 24.938 18.3481 25.131C18.5412 25.324 18.7871 25.4555 19.0549 25.5088C19.3226 25.562 19.6001 25.5347 19.8523 25.4302C20.1046 25.3257 20.3201 25.1488 20.4718 24.9218C20.6235 24.6949 20.7044 24.428 20.7044 24.155C20.7086 23.9726 20.6757 23.7913 20.6078 23.6219C20.5399 23.4526 20.4384 23.2988 20.3094 23.1698C20.1804 23.0408 20.0265 22.9392 19.8572 22.8713C19.6879 22.8034 19.5065 22.7706 19.3241 22.7747ZM19.3241 24.6151H19.3163C19.195 24.613 19.0794 24.5631 18.9947 24.4762C18.91 24.3893 18.8631 24.2724 18.8642 24.1511C18.8652 24.0298 18.9141 23.9138 19.0002 23.8283C19.0864 23.7429 19.2028 23.6949 19.3241 23.6949C19.4462 23.6949 19.5632 23.7434 19.6495 23.8297C19.7358 23.9159 19.7842 24.033 19.7842 24.155C19.7842 24.277 19.7358 24.3941 19.6495 24.4803C19.5632 24.5666 19.4462 24.6151 19.3241 24.6151ZM20.7964 11.2723H17.8518C17.7237 11.2723 17.5971 11.2991 17.4799 11.3509C17.3627 11.4026 17.2577 11.4783 17.1714 11.573C17.0852 11.6677 17.0197 11.7794 16.9791 11.9009C16.9385 12.0224 16.9237 12.151 16.9357 12.2785L17.7563 21.0203C17.7777 21.2485 17.8835 21.4604 18.0529 21.6147C18.2224 21.769 18.4433 21.8545 18.6725 21.8545H19.9758C20.205 21.8545 20.4259 21.769 20.5953 21.6147C20.7648 21.4604 20.8706 21.2485 20.892 21.0203L21.7126 12.2785C21.7246 12.151 21.7098 12.0224 21.6692 11.9009C21.6286 11.7794 21.5631 11.6677 21.4768 11.573C21.3906 11.4783 21.2855 11.4026 21.1684 11.3508C21.0512 11.2991 20.9245 11.2723 20.7964 11.2723ZM19.9758 20.9343H18.6725L17.8518 12.1925H20.7964L19.9758 20.9343Z" fill="#43BEBB"/>
<path d="M36.808 28.5259H36.1178C35.9958 28.5259 35.8788 28.5744 35.7925 28.6606C35.7062 28.7469 35.6577 28.8639 35.6577 28.986C35.6577 29.108 35.7062 29.225 35.7925 29.3113C35.8788 29.3976 35.9958 29.4461 36.1178 29.4461H36.808C36.93 29.4461 37.047 29.3976 37.1333 29.3113C37.2196 29.225 37.268 29.108 37.268 28.986C37.268 28.8639 37.2196 28.7469 37.1333 28.6606C37.047 28.5744 36.93 28.5259 36.808 28.5259Z" fill="#002D4F"/>
<path d="M38.1876 29.4459C38.4417 29.4459 38.6477 29.24 38.6477 28.9859C38.6477 28.7317 38.4417 28.5258 38.1876 28.5258C37.9335 28.5258 37.7275 28.7317 37.7275 28.9859C37.7275 29.24 37.9335 29.4459 38.1876 29.4459Z" fill="#002D4F"/>
<path d="M34.673 28.5258H23.7802C26.1634 27.5001 28.1199 25.6836 29.3194 23.3829C30.5188 21.0821 30.8879 18.438 30.3643 15.8968C29.8406 13.3556 28.4563 11.0728 26.445 9.43363C24.4337 7.7945 21.9185 6.89941 19.3239 6.89941C16.7292 6.89941 14.214 7.7945 12.2027 9.43363C10.1914 11.0728 8.80714 13.3556 8.2835 15.8968C7.75986 18.438 8.12891 21.0821 9.32839 23.3829C10.5279 25.6836 12.4843 27.5001 14.8676 28.5258H3.97481C3.90935 28.5173 3.84283 28.5228 3.77967 28.542C3.71652 28.5612 3.65819 28.5937 3.60858 28.6372C3.55897 28.6808 3.51923 28.7344 3.492 28.7945C3.46477 28.8547 3.45068 28.9199 3.45068 28.9859C3.45068 29.0519 3.46477 29.1172 3.492 29.1773C3.51923 29.2375 3.55897 29.2911 3.60858 29.3346C3.65819 29.3782 3.71652 29.4106 3.77967 29.4298C3.84283 29.4491 3.90935 29.4546 3.97481 29.446H34.673C34.7384 29.4546 34.8049 29.4491 34.8681 29.4298C34.9312 29.4106 34.9896 29.3782 35.0392 29.3346C35.0888 29.2911 35.1285 29.2375 35.1558 29.1773C35.183 29.1172 35.1971 29.0519 35.1971 28.9859C35.1971 28.9199 35.183 28.8547 35.1558 28.7945C35.1285 28.7344 35.0888 28.6808 35.0392 28.6372C34.9896 28.5937 34.9312 28.5612 34.8681 28.542C34.8049 28.5228 34.7384 28.5173 34.673 28.5258ZM8.97174 18.1737C8.97174 16.1262 9.57888 14.1247 10.7164 12.4223C11.8539 10.7199 13.4707 9.39309 15.3623 8.60956C17.2539 7.82603 19.3354 7.62102 21.3435 8.02046C23.3516 8.4199 25.1962 9.40585 26.6439 10.8536C28.0917 12.3014 29.0777 14.146 29.4771 16.1541C29.8765 18.1622 29.6715 20.2437 28.888 22.1353C28.1045 24.0269 26.7776 25.6437 25.0752 26.7812C23.3728 27.9187 21.3713 28.5258 19.3239 28.5258C16.5783 28.5258 13.9452 27.4352 12.0038 25.4938C10.0624 23.5524 8.97174 20.9192 8.97174 18.1737Z" fill="#002D4F"/>
</svg>
